{
 "id": "9J34MK3M6I",
 "fps": {
  "num": 30,
  "den": 1
 },
 "display_ratio": {
  "num": 16,
  "den": 9
 },
 "pixel_ratio": {
  "num": 1,
  "den": 1
 },
 "width": 1280,
 "height": 720,
 "sample_rate": 44100,
 "channels": 2,
 "channel_layout": 3,
 "settings": {},
 "clips": [
  {
   "alpha": {
    "Points": [
     {
      "co": {
       "X": 1.0,
       "Y": 1.0
      },
      "interpolation": 2
     }
    ]
   },
   "anchor": 0,
   "channel_filter": {
    "Points": [
     {
      "co": {
       "X": 1.0,
       "Y": -1.0
      },
      "interpolation": 2
     }
    ]
   },
   "channel_mapping": {
    "Points": [
     {
      "co": {
       "X": 1.0,
       "Y": -1.0
      },
      "interpolation": 2
     }
    ]
   },
   "crop_height": {
    "Points": [
     {
      "co": {
       "X": 1.0,
       "Y": 1.0
      },
      "interpolation": 2
     }
    ]
   },
   "crop_width": {
    "Points": [
     {
      "co": {
       "X": 1.0,
       "Y": 1.0
      },
      "interpolation": 2
     }
    ]
   },
   "crop_x": {
    "Points": [
     {
      "co": {
       "X": 1.0,
       "Y": 0.0
      },
      "interpolation": 2
     }
    ]
   },
   "crop_y": {
    "Points": [
     {
      "co": {
       "X": 1.0,
       "Y": 0.0
      },
      "interpolation": 2
     }
    ]
   },
   "display": 0,
   "duration": 3600.0,
   "effects": [],
   "end": 9.7,
   "gravity": 4,
   "has_audio": {
    "Points": [
     {
      "co": {
       "X": 1.0,
       "Y": -1.0
      },
      "interpolation": 2
     }
    ]
   },
   "has_video": {
    "Points": [
     {
      "co": {
       "X": 1.0,
       "Y": -1.0
      },
      "interpolation": 2
     }
    ]
   },
   "id": "K9WNY1TF6W",
   "layer": 1000000,
   "location_x": {
    "Points": [
     {
      "co": {
       "X": 1.0,
       "Y": 0.0
      },
      "interpolation": 2
     }
    ]
   },
   "location_y": {
    "Points": [
     {
      "co": {
       "X": 1.0,
       "Y": 0.0
      },
      "interpolation": 2
     }
    ]
   },
   "mixing": 0,
   "perspective_c1_x": {
    "Points": [
     {
      "co": {
       "X": 1.0,
       "Y": -1.0
      },
      "interpolation": 2
     }
    ]
   },
   "perspective_c1_y": {
    "Points": [
     {
      "co": {
       "X": 1.0,
       "Y": -1.0
      },
      "interpolation": 2
     }
    ]
   },
   "perspective_c2_x": {
    "Points": [
     {
      "co": {
       "X": 1.0,
       "Y": -1.0
      },
      "interpolation": 2
     }
    ]
   },
   "perspective_c2_y": {
    "Points": [
     {
      "co": {
       "X": 1.0,
       "Y": -1.0
      },
      "interpolation": 2
     }
    ]
   },
   "perspective_c3_x": {
    "Points": [
     {
      "co": {
       "X": 1.0,
       "Y": -1.0
      },
      "interpolation": 2
     }
    ]
   },
   "perspective_c3_y": {
    "Points": [
     {
      "co": {
       "X": 1.0,
       "Y": -1.0
      },
      "interpolation": 2
     }
    ]
   },
   "perspective_c4_x": {
    "Points": [
     {
      "co": {
       "X": 1.0,
       "Y": -1.0
      },
      "interpolation": 2
     }
    ]
   },
   "perspective_c4_y": {
    "Points": [
     {
      "co": {
       "X": 1.0,
       "Y": -1.0
      },
      "interpolation": 2
     }
    ]
   },
   "position": 0,
   "reader": {
    "acodec": "",
    "audio_bit_rate": 0,
    "audio_stream_index": -1,
    "audio_timebase": {
     "den": 1,
     "num": 1
    },
    "channel_layout": 4,
    "channels": 0,
    "display_ratio": {
     "den": 64,
     "num": 135
    },
    "duration": 3600.0,
    "file_size": "1693440",
    "fps": {
     "den": 1,
     "num": 30
    },
    "has_audio": false,
    "has_single_image": true,
    "has_video": true,
    "height": 448,
    "interlaced_frame": false,
    "metadata": {},
    "path": "./Portada.jpg",
    "pixel_format": -1,
    "pixel_ratio": {
     "den": 1,
     "num": 1
    },
    "sample_rate": 0,
    "top_field_first": true,
    "type": "QtImageReader",
    "vcodec": "",
    "video_bit_rate": 0,
    "video_length": "108000",
    "video_stream_index": -1,
    "video_timebase": {
     "den": 30,
     "num": 1
    },
    "width": 945
   },
   "rotation": {
    "Points": [
     {
      "co": {
       "X": 1.0,
       "Y": 0.0
      },
      "interpolation": 2
     }
    ]
   },
   "scale": 1,
   "scale_x": {
    "Points": [
     {
      "co": {
       "X": 1.0,
       "Y": 1.0
      },
      "interpolation": 2
     }
    ]
   },
   "scale_y": {
    "Points": [
     {
      "co": {
       "X": 1.0,
       "Y": 1.0
      },
      "interpolation": 2
     }
    ]
   },
   "shear_x": {
    "Points": [
     {
      "co": {
       "X": 1.0,
       "Y": 0.0
      },
      "interpolation": 2
     }
    ]
   },
   "shear_y": {
    "Points": [
     {
      "co": {
       "X": 1.0,
       "Y": 0.0
      },
      "interpolation": 2
     }
    ]
   },
   "start": 0,
   "time": {
    "Points": [
     {
      "co": {
       "X": 1.0,
       "Y": 1.0
      },
      "interpolation": 2
     }
    ]
   },
   "volume": {
    "Points": [
     {
      "co": {
       "X": 1.0,
       "Y": 1.0
      },
      "interpolation": 2
     }
    ]
   },
   "wave_color": {
    "alpha": {
     "Points": [
      {
       "co": {
        "X": 1.0,
        "Y": 255.0
       },
       "handle_left": {
        "X": 0.5,
        "Y": 1.0
       },
       "handle_right": {
        "X": 0.5,
        "Y": 0.0
       },
       "handle_type": 0,
       "interpolation": 0
      }
     ]
    },
    "blue": {
     "Points": [
      {
       "co": {
        "X": 1.0,
        "Y": 255.0
       },
       "handle_left": {
        "X": 0.5,
        "Y": 1.0
       },
       "handle_right": {
        "X": 0.5,
        "Y": 0.0
       },
       "handle_type": 0,
       "interpolation": 0
      }
     ]
    },
    "green": {
     "Points": [
      {
       "co": {
        "X": 1.0,
        "Y": 123.0
       },
       "handle_left": {
        "X": 0.5,
        "Y": 1.0
       },
       "handle_right": {
        "X": 0.5,
        "Y": 0.0
       },
       "handle_type": 0,
       "interpolation": 0
      }
     ]
    },
    "red": {
     "Points": [
      {
       "co": {
        "X": 1.0,
        "Y": 0.0
       },
       "handle_left": {
        "X": 0.5,
        "Y": 1.0
       },
       "handle_right": {
        "X": 0.5,
        "Y": 0.0
       },
       "handle_type": 0,
       "interpolation": 0
      }
     ]
    }
   },
   "waveform": false,
   "file_id": "7KNKIPTI1V",
   "title": "Portada.jpg",
   "image": "thumbnail/7KNKIPTI1V.png"
  },
  {
   "alpha": {
    "Points": [
     {
      "co": {
       "X": 1.0,
       "Y": 1.0
      },
      "interpolation": 2
     }
    ]
   },
   "anchor": 0,
   "channel_filter": {
    "Points": [
     {
      "co": {
       "X": 1.0,
       "Y": -1.0
      },
      "interpolation": 2
     }
    ]
   },
   "channel_mapping": {
    "Points": [
     {
      "co": {
       "X": 1.0,
       "Y": -1.0
      },
      "interpolation": 2
     }
    ]
   },
   "crop_height": {
    "Points": [
     {
      "co": {
       "X": 1.0,
       "Y": 1.0
      },
      "interpolation": 2
     }
    ]
   },
   "crop_width": {
    "Points": [
     {
      "co": {
       "X": 1.0,
       "Y": 1.0
      },
      "interpolation": 2
     }
    ]
   },
   "crop_x": {
    "Points": [
     {
      "co": {
       "X": 1.0,
       "Y": 0.0
      },
      "interpolation": 2
     }
    ]
   },
   "crop_y": {
    "Points": [
     {
      "co": {
       "X": 1.0,
       "Y": 0.0
      },
      "interpolation": 2
     }
    ]
   },
   "display": 0,
   "duration": 3600.0,
   "effects": [],
   "end": 7.9,
   "gravity": 4,
   "has_audio": {
    "Points": [
     {
      "co": {
       "X": 1.0,
       "Y": -1.0
      },
      "interpolation": 2
     }
    ]
   },
   "has_video": {
    "Points": [
     {
      "co": {
       "X": 1.0,
       "Y": -1.0
      },
      "interpolation": 2
     }
    ]
   },
   "id": "6H5ASCXTT6",
   "layer": 1000000,
   "location_x": {
    "Points": [
     {
      "co": {
       "X": 1.0,
       "Y": 0.0
      },
      "interpolation": 2
     }
    ]
   },
   "location_y": {
    "Points": [
     {
      "co": {
       "X": 1.0,
       "Y": 0.0
      },
      "interpolation": 2
     }
    ]
   },
   "mixing": 0,
   "perspective_c1_x": {
    "Points": [
     {
      "co": {
       "X": 1.0,
       "Y": -1.0
      },
      "interpolation": 2
     }
    ]
   },
   "perspective_c1_y": {
    "Points": [
     {
      "co": {
       "X": 1.0,
       "Y": -1.0
      },
      "interpolation": 2
     }
    ]
   },
   "perspective_c2_x": {
    "Points": [
     {
      "co": {
       "X": 1.0,
       "Y": -1.0
      },
      "interpolation": 2
     }
    ]
   },
   "perspective_c2_y": {
    "Points": [
     {
      "co": {
       "X": 1.0,
       "Y": -1.0
      },
      "interpolation": 2
     }
    ]
   },
   "perspective_c3_x": {
    "Points": [
     {
      "co": {
       "X": 1.0,
       "Y": -1.0
      },
      "interpolation": 2
     }
    ]
   },
   "perspective_c3_y": {
    "Points": [
     {
      "co": {
       "X": 1.0,
       "Y": -1.0
      },
      "interpolation": 2
     }
    ]
   },
   "perspective_c4_x": {
    "Points": [
     {
      "co": {
       "X": 1.0,
       "Y": -1.0
      },
      "interpolation": 2
     }
    ]
   },
   "perspective_c4_y": {
    "Points": [
     {
      "co": {
       "X": 1.0,
       "Y": -1.0
      },
      "interpolation": 2
     }
    ]
   },
   "position": 9.700000000000001,
   "reader": {
    "acodec": "",
    "audio_bit_rate": 0,
    "audio_stream_index": -1,
    "audio_timebase": {
     "den": 1,
     "num": 1
    },
    "channel_layout": 4,
    "channels": 0,
    "display_ratio": {
     "den": 600,
     "num": 487
    },
    "duration": 3600.0,
    "file_size": "4675200",
    "fps": {
     "den": 1,
     "num": 30
    },
    "has_audio": false,
    "has_single_image": true,
    "has_video": true,
    "height": 1200,
    "interlaced_frame": false,
    "metadata": {},
    "path": "./mapa.jpg",
    "pixel_format": -1,
    "pixel_ratio": {
     "den": 1,
     "num": 1
    },
    "sample_rate": 0,
    "top_field_first": true,
    "type": "QtImageReader",
    "vcodec": "",
    "video_bit_rate": 0,
    "video_length": "108000",
    "video_stream_index": -1,
    "video_timebase": {
     "den": 30,
     "num": 1
    },
    "width": 974
   },
   "rotation": {
    "Points": [
     {
      "co": {
       "X": 1.0,
       "Y": 0.0
      },
      "interpolation": 2
     }
    ]
   },
   "scale": 1,
   "scale_x": {
    "Points": [
     {
      "co": {
       "X": 1.0,
       "Y": 1.0
      },
      "interpolation": 2
     }
    ]
   },
   "scale_y": {
    "Points": [
     {
      "co": {
       "X": 1.0,
       "Y": 1.0
      },
      "interpolation": 2
     }
    ]
   },
   "shear_x": {
    "Points": [
     {
      "co": {
       "X": 1.0,
       "Y": 0.0
      },
      "interpolation": 2
     }
    ]
   },
   "shear_y": {
    "Points": [
     {
      "co": {
       "X": 1.0,
       "Y": 0.0
      },
      "interpolation": 2
     }
    ]
   },
   "start": 0,
   "time": {
    "Points": [
     {
      "co": {
       "X": 1.0,
       "Y": 1.0
      },
      "interpolation": 2
     }
    ]
   },
   "volume": {
    "Points": [
     {
      "co": {
       "X": 1.0,
       "Y": 1.0
      },
      "interpolation": 2
     }
    ]
   },
   "wave_color": {
    "alpha": {
     "Points": [
      {
       "co": {
        "X": 1.0,
        "Y": 255.0
       },
       "handle_left": {
        "X": 0.5,
        "Y": 1.0
       },
       "handle_right": {
        "X": 0.5,
        "Y": 0.0
       },
       "handle_type": 0,
       "interpolation": 0
      }
     ]
    },
    "blue": {
     "Points": [
      {
       "co": {
        "X": 1.0,
        "Y": 255.0
       },
       "handle_left": {
        "X": 0.5,
        "Y": 1.0
       },
       "handle_right": {
        "X": 0.5,
        "Y": 0.0
       },
       "handle_type": 0,
       "interpolation": 0
      }
     ]
    },
    "green": {
     "Points": [
      {
       "co": {
        "X": 1.0,
        "Y": 123.0
       },
       "handle_left": {
        "X": 0.5,
        "Y": 1.0
       },
       "handle_right": {
        "X": 0.5,
        "Y": 0.0
       },
       "handle_type": 0,
       "interpolation": 0
      }
     ]
    },
    "red": {
     "Points": [
      {
       "co": {
        "X": 1.0,
        "Y": 0.0
       },
       "handle_left": {
        "X": 0.5,
        "Y": 1.0
       },
       "handle_right": {
        "X": 0.5,
        "Y": 0.0
       },
       "handle_type": 0,
       "interpolation": 0
      }
     ]
    }
   },
   "waveform": false,
   "file_id": "3CEE6QW14U",
   "title": "mapa.jpg",
   "image": "thumbnail/3CEE6QW14U.png"
  },
  {
   "alpha": {
    "Points": [
     {
      "co": {
       "X": 1.0,
       "Y": 1.0
      },
      "interpolation": 2
     }
    ]
   },
   "anchor": 0,
   "channel_filter": {
    "Points": [
     {
      "co": {
       "X": 1.0,
       "Y": -1.0
      },
      "interpolation": 2
     }
    ]
   },
   "channel_mapping": {
    "Points": [
     {
      "co": {
       "X": 1.0,
       "Y": -1.0
      },
      "interpolation": 2
     }
    ]
   },
   "crop_height": {
    "Points": [
     {
      "co": {
       "X": 1.0,
       "Y": 1.0
      },
      "interpolation": 2
     }
    ]
   },
   "crop_width": {
    "Points": [
     {
      "co": {
       "X": 1.0,
       "Y": 1.0
      },
      "interpolation": 2
     }
    ]
   },
   "crop_x": {
    "Points": [
     {
      "co": {
       "X": 1.0,
       "Y": 0.0
      },
      "interpolation": 2
     }
    ]
   },
   "crop_y": {
    "Points": [
     {
      "co": {
       "X": 1.0,
       "Y": 0.0
      },
      "interpolation": 2
     }
    ]
   },
   "display": 0,
   "duration": 3600.0,
   "effects": [],
   "end": 10,
   "gravity": 4,
   "has_audio": {
    "Points": [
     {
      "co": {
       "X": 1.0,
       "Y": -1.0
      },
      "interpolation": 2
     }
    ]
   },
   "has_video": {
    "Points": [
     {
      "co": {
       "X": 1.0,
       "Y": -1.0
      },
      "interpolation": 2
     }
    ]
   },
   "id": "SBRYWH6ZFA",
   "layer": 1000000,
   "location_x": {
    "Points": [
     {
      "co": {
       "X": 1.0,
       "Y": 0.0
      },
      "interpolation": 2
     }
    ]
   },
   "location_y": {
    "Points": [
     {
      "co": {
       "X": 1.0,
       "Y": 0.0
      },
      "interpolation": 2
     }
    ]
   },
   "mixing": 0,
   "perspective_c1_x": {
    "Points": [
     {
      "co": {
       "X": 1.0,
       "Y": -1.0
      },
      "interpolation": 2
     }
    ]
   },
   "perspective_c1_y": {
    "Points": [
     {
      "co": {
       "X": 1.0,
       "Y": -1.0
      },
      "interpolation": 2
     }
    ]
   },
   "perspective_c2_x": {
    "Points": [
     {
      "co": {
       "X": 1.0,
       "Y": -1.0
      },
      "interpolation": 2
     }
    ]
   },
   "perspective_c2_y": {
    "Points": [
     {
      "co": {
       "X": 1.0,
       "Y": -1.0
      },
      "interpolation": 2
     }
    ]
   },
   "perspective_c3_x": {
    "Points": [
     {
      "co": {
       "X": 1.0,
       "Y": -1.0
      },
      "interpolation": 2
     }
    ]
   },
   "perspective_c3_y": {
    "Points": [
     {
      "co": {
       "X": 1.0,
       "Y": -1.0
      },
      "interpolation": 2
     }
    ]
   },
   "perspective_c4_x": {
    "Points": [
     {
      "co": {
       "X": 1.0,
       "Y": -1.0
      },
      "interpolation": 2
     }
    ]
   },
   "perspective_c4_y": {
    "Points": [
     {
      "co": {
       "X": 1.0,
       "Y": -1.0
      },
      "interpolation": 2
     }
    ]
   },
   "position": 17.6,
   "reader": {
    "acodec": "",
    "audio_bit_rate": 0,
    "audio_stream_index": -1,
    "audio_timebase": {
     "den": 1,
     "num": 1
    },
    "channel_layout": 4,
    "channels": 0,
    "display_ratio": {
     "den": 37,
     "num": 50
    },
    "duration": 3600.0,
    "file_size": "266400",
    "fps": {
     "den": 1,
     "num": 30
    },
    "has_audio": false,
    "has_single_image": true,
    "has_video": true,
    "height": 222,
    "interlaced_frame": false,
    "metadata": {},
    "path": "./Playa-punta-de-anguileira-300x222.jpg",
    "pixel_format": -1,
    "pixel_ratio": {
     "den": 1,
     "num": 1
    },
    "sample_rate": 0,
    "top_field_first": true,
    "type": "QtImageReader",
    "vcodec": "",
    "video_bit_rate": 0,
    "video_length": "108000",
    "video_stream_index": -1,
    "video_timebase": {
     "den": 30,
     "num": 1
    },
    "width": 300
   },
   "rotation": {
    "Points": [
     {
      "co": {
       "X": 1.0,
       "Y": 0.0
      },
      "interpolation": 2
     }
    ]
   },
   "scale": 1,
   "scale_x": {
    "Points": [
     {
      "co": {
       "X": 1.0,
       "Y": 1.0
      },
      "interpolation": 2
     }
    ]
   },
   "scale_y": {
    "Points": [
     {
      "co": {
       "X": 1.0,
       "Y": 1.0
      },
      "interpolation": 2
     }
    ]
   },
   "shear_x": {
    "Points": [
     {
      "co": {
       "X": 1.0,
       "Y": 0.0
      },
      "interpolation": 2
     }
    ]
   },
   "shear_y": {
    "Points": [
     {
      "co": {
       "X": 1.0,
       "Y": 0.0
      },
      "interpolation": 2
     }
    ]
   },
   "start": 0,
   "time": {
    "Points": [
     {
      "co": {
       "X": 1.0,
       "Y": 1.0
      },
      "interpolation": 2
     }
    ]
   },
   "volume": {
    "Points": [
     {
      "co": {
       "X": 1.0,
       "Y": 1.0
      },
      "interpolation": 2
     }
    ]
   },
   "wave_color": {
    "alpha": {
     "Points": [
      {
       "co": {
        "X": 1.0,
        "Y": 255.0
       },
       "handle_left": {
        "X": 0.5,
        "Y": 1.0
       },
       "handle_right": {
        "X": 0.5,
        "Y": 0.0
       },
       "handle_type": 0,
       "interpolation": 0
      }
     ]
    },
    "blue": {
     "Points": [
      {
       "co": {
        "X": 1.0,
        "Y": 255.0
       },
       "handle_left": {
        "X": 0.5,
        "Y": 1.0
       },
       "handle_right": {
        "X": 0.5,
        "Y": 0.0
       },
       "handle_type": 0,
       "interpolation": 0
      }
     ]
    },
    "green": {
     "Points": [
      {
       "co": {
        "X": 1.0,
        "Y": 123.0
       },
       "handle_left": {
        "X": 0.5,
        "Y": 1.0
       },
       "handle_right": {
        "X": 0.5,
        "Y": 0.0
       },
       "handle_type": 0,
       "interpolation": 0
      }
     ]
    },
    "red": {
     "Points": [
      {
       "co": {
        "X": 1.0,
        "Y": 0.0
       },
       "handle_left": {
        "X": 0.5,
        "Y": 1.0
       },
       "handle_right": {
        "X": 0.5,
        "Y": 0.0
       },
       "handle_type": 0,
       "interpolation": 0
      }
     ]
    }
   },
   "waveform": false,
   "file_id": "MIWNEF7JG9",
   "title": "Playa-punta-de-anguileira-300x222.jpg",
   "image": "thumbnail/MIWNEF7JG9.png"
  },
  {
   "alpha": {
    "Points": [
     {
      "co": {
       "X": 1.0,
       "Y": 1.0
      },
      "interpolation": 2
     }
    ]
   },
   "anchor": 0,
   "channel_filter": {
    "Points": [
     {
      "co": {
       "X": 1.0,
       "Y": -1.0
      },
      "interpolation": 2
     }
    ]
   },
   "channel_mapping": {
    "Points": [
     {
      "co": {
       "X": 1.0,
       "Y": -1.0
      },
      "interpolation": 2
     }
    ]
   },
   "crop_height": {
    "Points": [
     {
      "co": {
       "X": 1.0,
       "Y": 1.0
      },
      "interpolation": 2
     }
    ]
   },
   "crop_width": {
    "Points": [
     {
      "co": {
       "X": 1.0,
       "Y": 1.0
      },
      "interpolation": 2
     }
    ]
   },
   "crop_x": {
    "Points": [
     {
      "co": {
       "X": 1.0,
       "Y": 0.0
      },
      "interpolation": 2
     }
    ]
   },
   "crop_y": {
    "Points": [
     {
      "co": {
       "X": 1.0,
       "Y": 0.0
      },
      "interpolation": 2
     }
    ]
   },
   "display": 0,
   "duration": 3600.0,
   "effects": [],
   "end": 10,
   "gravity": 4,
   "has_audio": {
    "Points": [
     {
      "co": {
       "X": 1.0,
       "Y": -1.0
      },
      "interpolation": 2
     }
    ]
   },
   "has_video": {
    "Points": [
     {
      "co": {
       "X": 1.0,
       "Y": -1.0
      },
      "interpolation": 2
     }
    ]
   },
   "id": "2WTYH5BK7W",
   "layer": 1000000,
   "location_x": {
    "Points": [
     {
      "co": {
       "X": 1.0,
       "Y": 0.0
      },
      "interpolation": 2
     }
    ]
   },
   "location_y": {
    "Points": [
     {
      "co": {
       "X": 1.0,
       "Y": 0.0
      },
      "interpolation": 2
     }
    ]
   },
   "mixing": 0,
   "perspective_c1_x": {
    "Points": [
     {
      "co": {
       "X": 1.0,
       "Y": -1.0
      },
      "interpolation": 2
     }
    ]
   },
   "perspective_c1_y": {
    "Points": [
     {
      "co": {
       "X": 1.0,
       "Y": -1.0
      },
      "interpolation": 2
     }
    ]
   },
   "perspective_c2_x": {
    "Points": [
     {
      "co": {
       "X": 1.0,
       "Y": -1.0
      },
      "interpolation": 2
     }
    ]
   },
   "perspective_c2_y": {
    "Points": [
     {
      "co": {
       "X": 1.0,
       "Y": -1.0
      },
      "interpolation": 2
     }
    ]
   },
   "perspective_c3_x": {
    "Points": [
     {
      "co": {
       "X": 1.0,
       "Y": -1.0
      },
      "interpolation": 2
     }
    ]
   },
   "perspective_c3_y": {
    "Points": [
     {
      "co": {
       "X": 1.0,
       "Y": -1.0
      },
      "interpolation": 2
     }
    ]
   },
   "perspective_c4_x": {
    "Points": [
     {
      "co": {
       "X": 1.0,
       "Y": -1.0
      },
      "interpolation": 2
     }
    ]
   },
   "perspective_c4_y": {
    "Points": [
     {
      "co": {
       "X": 1.0,
       "Y": -1.0
      },
      "interpolation": 2
     }
    ]
   },
   "position": 27.6,
   "reader": {
    "acodec": "",
    "audio_bit_rate": 0,
    "audio_stream_index": -1,
    "audio_timebase": {
     "den": 1,
     "num": 1
    },
    "channel_layout": 4,
    "channels": 0,
    "display_ratio": {
     "den": 37,
     "num": 50
    },
    "duration": 3600.0,
    "file_size": "266400",
    "fps": {
     "den": 1,
     "num": 30
    },
    "has_audio": false,
    "has_single_image": true,
    "has_video": true,
    "height": 222,
    "interlaced_frame": false,
    "metadata": {},
    "path": "./Playa-de-a-pasada-300x222.jpg",
    "pixel_format": -1,
    "pixel_ratio": {
     "den": 1,
     "num": 1
    },
    "sample_rate": 0,
    "top_field_first": true,
    "type": "QtImageReader",
    "vcodec": "",
    "video_bit_rate": 0,
    "video_length": "108000",
    "video_stream_index": -1,
    "video_timebase": {
     "den": 30,
     "num": 1
    },
    "width": 300
   },
   "rotation": {
    "Points": [
     {
      "co": {
       "X": 1.0,
       "Y": 0.0
      },
      "interpolation": 2
     }
    ]
   },
   "scale": 1,
   "scale_x": {
    "Points": [
     {
      "co": {
       "X": 1.0,
       "Y": 1.0
      },
      "interpolation": 2
     }
    ]
   },
   "scale_y": {
    "Points": [
     {
      "co": {
       "X": 1.0,
       "Y": 1.0
      },
      "interpolation": 2
     }
    ]
   },
   "shear_x": {
    "Points": [
     {
      "co": {
       "X": 1.0,
       "Y": 0.0
      },
      "interpolation": 2
     }
    ]
   },
   "shear_y": {
    "Points": [
     {
      "co": {
       "X": 1.0,
       "Y": 0.0
      },
      "interpolation": 2
     }
    ]
   },
   "start": 0,
   "time": {
    "Points": [
     {
      "co": {
       "X": 1.0,
       "Y": 1.0
      },
      "interpolation": 2
     }
    ]
   },
   "volume": {
    "Points": [
     {
      "co": {
       "X": 1.0,
       "Y": 1.0
      },
      "interpolation": 2
     }
    ]
   },
   "wave_color": {
    "alpha": {
     "Points": [
      {
       "co": {
        "X": 1.0,
        "Y": 255.0
       },
       "handle_left": {
        "X": 0.5,
        "Y": 1.0
       },
       "handle_right": {
        "X": 0.5,
        "Y": 0.0
       },
       "handle_type": 0,
       "interpolation": 0
      }
     ]
    },
    "blue": {
     "Points": [
      {
       "co": {
        "X": 1.0,
        "Y": 255.0
       },
       "handle_left": {
        "X": 0.5,
        "Y": 1.0
       },
       "handle_right": {
        "X": 0.5,
        "Y": 0.0
       },
       "handle_type": 0,
       "interpolation": 0
      }
     ]
    },
    "green": {
     "Points": [
      {
       "co": {
        "X": 1.0,
        "Y": 123.0
       },
       "handle_left": {
        "X": 0.5,
        "Y": 1.0
       },
       "handle_right": {
        "X": 0.5,
        "Y": 0.0
       },
       "handle_type": 0,
       "interpolation": 0
      }
     ]
    },
    "red": {
     "Points": [
      {
       "co": {
        "X": 1.0,
        "Y": 0.0
       },
       "handle_left": {
        "X": 0.5,
        "Y": 1.0
       },
       "handle_right": {
        "X": 0.5,
        "Y": 0.0
       },
       "handle_type": 0,
       "interpolation": 0
      }
     ]
    }
   },
   "waveform": false,
   "file_id": "PXOXMID3OL",
   "title": "Playa-de-a-pasada-300x222.jpg",
   "image": "thumbnail/PXOXMID3OL.png"
  },
  {
   "alpha": {
    "Points": [
     {
      "co": {
       "X": 1.0,
       "Y": 1.0
      },
      "interpolation": 2
     }
    ]
   },
   "anchor": 0,
   "channel_filter": {
    "Points": [
     {
      "co": {
       "X": 1.0,
       "Y": -1.0
      },
      "interpolation": 2
     }
    ]
   },
   "channel_mapping": {
    "Points": [
     {
      "co": {
       "X": 1.0,
       "Y": -1.0
      },
      "interpolation": 2
     }
    ]
   },
   "crop_height": {
    "Points": [
     {
      "co": {
       "X": 1.0,
       "Y": 1.0
      },
      "interpolation": 2
     }
    ]
   },
   "crop_width": {
    "Points": [
     {
      "co": {
       "X": 1.0,
       "Y": 1.0
      },
      "interpolation": 2
     }
    ]
   },
   "crop_x": {
    "Points": [
     {
      "co": {
       "X": 1.0,
       "Y": 0.0
      },
      "interpolation": 2
     }
    ]
   },
   "crop_y": {
    "Points": [
     {
      "co": {
       "X": 1.0,
       "Y": 0.0
      },
      "interpolation": 2
     }
    ]
   },
   "display": 0,
   "duration": 3600.0,
   "effects": [],
   "end": 10,
   "gravity": 4,
   "has_audio": {
    "Points": [
     {
      "co": {
       "X": 1.0,
       "Y": -1.0
      },
      "interpolation": 2
     }
    ]
   },
   "has_video": {
    "Points": [
     {
      "co": {
       "X": 1.0,
       "Y": -1.0
      },
      "interpolation": 2
     }
    ]
   },
   "id": "T9NB8VBY75",
   "layer": 1000000,
   "location_x": {
    "Points": [
     {
      "co": {
       "X": 1.0,
       "Y": 0.0
      },
      "interpolation": 2
     }
    ]
   },
   "location_y": {
    "Points": [
     {
      "co": {
       "X": 1.0,
       "Y": 0.0
      },
      "interpolation": 2
     }
    ]
   },
   "mixing": 0,
   "perspective_c1_x": {
    "Points": [
     {
      "co": {
       "X": 1.0,
       "Y": -1.0
      },
      "interpolation": 2
     }
    ]
   },
   "perspective_c1_y": {
    "Points": [
     {
      "co": {
       "X": 1.0,
       "Y": -1.0
      },
      "interpolation": 2
     }
    ]
   },
   "perspective_c2_x": {
    "Points": [
     {
      "co": {
       "X": 1.0,
       "Y": -1.0
      },
      "interpolation": 2
     }
    ]
   },
   "perspective_c2_y": {
    "Points": [
     {
      "co": {
       "X": 1.0,
       "Y": -1.0
      },
      "interpolation": 2
     }
    ]
   },
   "perspective_c3_x": {
    "Points": [
     {
      "co": {
       "X": 1.0,
       "Y": -1.0
      },
      "interpolation": 2
     }
    ]
   },
   "perspective_c3_y": {
    "Points": [
     {
      "co": {
       "X": 1.0,
       "Y": -1.0
      },
      "interpolation": 2
     }
    ]
   },
   "perspective_c4_x": {
    "Points": [
     {
      "co": {
       "X": 1.0,
       "Y": -1.0
      },
      "interpolation": 2
     }
    ]
   },
   "perspective_c4_y": {
    "Points": [
     {
      "co": {
       "X": 1.0,
       "Y": -1.0
      },
      "interpolation": 2
     }
    ]
   },
   "position": 50.233333333333334,
   "reader": {
    "acodec": "",
    "audio_bit_rate": 0,
    "audio_stream_index": -1,
    "audio_timebase": {
     "den": 1,
     "num": 1
    },
    "channel_layout": 4,
    "channels": 0,
    "display_ratio": {
     "den": 33,
     "num": 50
    },
    "duration": 3600.0,
    "file_size": "237600",
    "fps": {
     "den": 1,
     "num": 30
    },
    "has_audio": false,
    "has_single_image": true,
    "has_video": true,
    "height": 198,
    "interlaced_frame": false,
    "metadata": {},
    "path": "./Playa-de-Arealonga-300x198.jpg",
    "pixel_format": -1,
    "pixel_ratio": {
     "den": 1,
     "num": 1
    },
    "sample_rate": 0,
    "top_field_first": true,
    "type": "QtImageReader",
    "vcodec": "",
    "video_bit_rate": 0,
    "video_length": "108000",
    "video_stream_index": -1,
    "video_timebase": {
     "den": 30,
     "num": 1
    },
    "width": 300
   },
   "rotation": {
    "Points": [
     {
      "co": {
       "X": 1.0,
       "Y": 0.0
      },
      "interpolation": 2
     }
    ]
   },
   "scale": 1,
   "scale_x": {
    "Points": [
     {
      "co": {
       "X": 1.0,
       "Y": 1.0
      },
      "interpolation": 2
     }
    ]
   },
   "scale_y": {
    "Points": [
     {
      "co": {
       "X": 1.0,
       "Y": 1.0
      },
      "interpolation": 2
     }
    ]
   },
   "shear_x": {
    "Points": [
     {
      "co": {
       "X": 1.0,
       "Y": 0.0
      },
      "interpolation": 2
     }
    ]
   },
   "shear_y": {
    "Points": [
     {
      "co": {
       "X": 1.0,
       "Y": 0.0
      },
      "interpolation": 2
     }
    ]
   },
   "start": 0,
   "time": {
    "Points": [
     {
      "co": {
       "X": 1.0,
       "Y": 1.0
      },
      "interpolation": 2
     }
    ]
   },
   "volume": {
    "Points": [
     {
      "co": {
       "X": 1.0,
       "Y": 1.0
      },
      "interpolation": 2
     }
    ]
   },
   "wave_color": {
    "alpha": {
     "Points": [
      {
       "co": {
        "X": 1.0,
        "Y": 255.0
       },
       "handle_left": {
        "X": 0.5,
        "Y": 1.0
       },
       "handle_right": {
        "X": 0.5,
        "Y": 0.0
       },
       "handle_type": 0,
       "interpolation": 0
      }
     ]
    },
    "blue": {
     "Points": [
      {
       "co": {
        "X": 1.0,
        "Y": 255.0
       },
       "handle_left": {
        "X": 0.5,
        "Y": 1.0
       },
       "handle_right": {
        "X": 0.5,
        "Y": 0.0
       },
       "handle_type": 0,
       "interpolation": 0
      }
     ]
    },
    "green": {
     "Points": [
      {
       "co": {
        "X": 1.0,
        "Y": 123.0
       },
       "handle_left": {
        "X": 0.5,
        "Y": 1.0
       },
       "handle_right": {
        "X": 0.5,
        "Y": 0.0
       },
       "handle_type": 0,
       "interpolation": 0
      }
     ]
    },
    "red": {
     "Points": [
      {
       "co": {
        "X": 1.0,
        "Y": 0.0
       },
       "handle_left": {
        "X": 0.5,
        "Y": 1.0
       },
       "handle_right": {
        "X": 0.5,
        "Y": 0.0
       },
       "handle_type": 0,
       "interpolation": 0
      }
     ]
    }
   },
   "waveform": false,
   "file_id": "U7059MT4QL",
   "title": "Playa-de-Arealonga-300x198.jpg",
   "image": "thumbnail/U7059MT4QL.png"
  },
  {
   "alpha": {
    "Points": [
     {
      "co": {
       "X": 1.0,
       "Y": 1.0
      },
      "handle_left": {
       "X": 0.5,
       "Y": 1.0
      },
      "handle_right": {
       "X": 0.5,
       "Y": 0.0
      },
      "handle_type": 0,
      "interpolation": 0
     },
     {
      "co": {
       "X": 1.0,
       "Y": 0.0
      },
      "handle_left": {
       "X": 0.5,
       "Y": 1.0
      },
      "handle_right": {
       "X": 0.5,
       "Y": 0.0
      },
      "handle_type": 0,
      "interpolation": 0
     },
     {
      "co": {
       "X": 91.0,
       "Y": 1.0
      },
      "handle_left": {
       "X": 0.5,
       "Y": 1.0
      },
      "handle_right": {
       "X": 0.5,
       "Y": 0.0
      },
      "handle_type": 0,
      "interpolation": 0
     },
     {
      "co": {
       "X": 180.0,
       "Y": 1.0
      },
      "handle_left": {
       "X": 0.5,
       "Y": 1.0
      },
      "handle_right": {
       "X": 0.5,
       "Y": 0.0
      },
      "handle_type": 0,
      "interpolation": 0
     },
     {
      "co": {
       "X": 270.0,
       "Y": 0.0
      },
      "handle_left": {
       "X": 0.5,
       "Y": 1.0
      },
      "handle_right": {
       "X": 0.5,
       "Y": 0.0
      },
      "handle_type": 0,
      "interpolation": 0
     }
    ]
   },
   "anchor": 0,
   "channel_filter": {
    "Points": [
     {
      "co": {
       "X": 1.0,
       "Y": -1.0
      },
      "interpolation": 2
     }
    ]
   },
   "channel_mapping": {
    "Points": [
     {
      "co": {
       "X": 1.0,
       "Y": -1.0
      },
      "interpolation": 2
     }
    ]
   },
   "crop_height": {
    "Points": [
     {
      "co": {
       "X": 1.0,
       "Y": 1.0
      },
      "interpolation": 2
     }
    ]
   },
   "crop_width": {
    "Points": [
     {
      "co": {
       "X": 1.0,
       "Y": 1.0
      },
      "interpolation": 2
     }
    ]
   },
   "crop_x": {
    "Points": [
     {
      "co": {
       "X": 1.0,
       "Y": 0.0
      },
      "interpolation": 2
     }
    ]
   },
   "crop_y": {
    "Points": [
     {
      "co": {
       "X": 1.0,
       "Y": 0.0
      },
      "interpolation": 2
     }
    ]
   },
   "display": 0,
   "duration": 3600.0,
   "effects": [],
   "end": 8.966666666666667,
   "gravity": 4,
   "has_audio": {
    "Points": [
     {
      "co": {
       "X": 1.0,
       "Y": -1.0
      },
      "interpolation": 2
     }
    ]
   },
   "has_video": {
    "Points": [
     {
      "co": {
       "X": 1.0,
       "Y": -1.0
      },
      "interpolation": 2
     }
    ]
   },
   "id": "XUIQHBTIKV",
   "layer": 1000000,
   "location_x": {
    "Points": [
     {
      "co": {
       "X": 1.0,
       "Y": 0.0
      },
      "interpolation": 2
     }
    ]
   },
   "location_y": {
    "Points": [
     {
      "co": {
       "X": 1.0,
       "Y": 0.0
      },
      "interpolation": 2
     }
    ]
   },
   "mixing": 0,
   "perspective_c1_x": {
    "Points": [
     {
      "co": {
       "X": 1.0,
       "Y": -1.0
      },
      "interpolation": 2
     }
    ]
   },
   "perspective_c1_y": {
    "Points": [
     {
      "co": {
       "X": 1.0,
       "Y": -1.0
      },
      "interpolation": 2
     }
    ]
   },
   "perspective_c2_x": {
    "Points": [
     {
      "co": {
       "X": 1.0,
       "Y": -1.0
      },
      "interpolation": 2
     }
    ]
   },
   "perspective_c2_y": {
    "Points": [
     {
      "co": {
       "X": 1.0,
       "Y": -1.0
      },
      "interpolation": 2
     }
    ]
   },
   "perspective_c3_x": {
    "Points": [
     {
      "co": {
       "X": 1.0,
       "Y": -1.0
      },
      "interpolation": 2
     }
    ]
   },
   "perspective_c3_y": {
    "Points": [
     {
      "co": {
       "X": 1.0,
       "Y": -1.0
      },
      "interpolation": 2
     }
    ]
   },
   "perspective_c4_x": {
    "Points": [
     {
      "co": {
       "X": 1.0,
       "Y": -1.0
      },
      "interpolation": 2
     }
    ]
   },
   "perspective_c4_y": {
    "Points": [
     {
      "co": {
       "X": 1.0,
       "Y": -1.0
      },
      "interpolation": 2
     }
    ]
   },
   "position": 70.66666666666667,
   "reader": {
    "acodec": "",
    "audio_bit_rate": 0,
    "audio_stream_index": -1,
    "audio_timebase": {
     "den": 1,
     "num": 1
    },
    "channel_layout": 4,
    "channels": 0,
    "display_ratio": {
     "den": 1,
     "num": 1
    },
    "duration": 3600.0,
    "file_size": "360000",
    "fps": {
     "den": 1,
     "num": 30
    },
    "has_audio": false,
    "has_single_image": true,
    "has_video": true,
    "height": 300,
    "interlaced_frame": false,
    "metadata": {},
    "path": "./Crditos.jpg.png",
    "pixel_format": -1,
    "pixel_ratio": {
     "den": 1,
     "num": 1
    },
    "sample_rate": 0,
    "top_field_first": true,
    "type": "QtImageReader",
    "vcodec": "",
    "video_bit_rate": 0,
    "video_length": "108000",
    "video_stream_index": -1,
    "video_timebase": {
     "den": 30,
     "num": 1
    },
    "width": 300
   },
   "rotation": {
    "Points": [
     {
      "co": {
       "X": 1.0,
       "Y": 0.0
      },
      "interpolation": 2
     }
    ]
   },
   "scale": 1,
   "scale_x": {
    "Points": [
     {
      "co": {
       "X": 1.0,
       "Y": 1.0
      },
      "interpolation": 2
     }
    ]
   },
   "scale_y": {
    "Points": [
     {
      "co": {
       "X": 1.0,
       "Y": 1.0
      },
      "interpolation": 2
     }
    ]
   },
   "shear_x": {
    "Points": [
     {
      "co": {
       "X": 1.0,
       "Y": 0.0
      },
      "interpolation": 2
     }
    ]
   },
   "shear_y": {
    "Points": [
     {
      "co": {
       "X": 1.0,
       "Y": 0.0
      },
      "interpolation": 2
     }
    ]
   },
   "start": 0,
   "time": {
    "Points": [
     {
      "co": {
       "X": 1.0,
       "Y": 1.0
      },
      "interpolation": 2
     }
    ]
   },
   "volume": {
    "Points": [
     {
      "co": {
       "X": 1.0,
       "Y": 1.0
      },
      "interpolation": 2
     }
    ]
   },
   "wave_color": {
    "alpha": {
     "Points": [
      {
       "co": {
        "X": 1.0,
        "Y": 255.0
       },
       "handle_left": {
        "X": 0.5,
        "Y": 1.0
       },
       "handle_right": {
        "X": 0.5,
        "Y": 0.0
       },
       "handle_type": 0,
       "interpolation": 0
      }
     ]
    },
    "blue": {
     "Points": [
      {
       "co": {
        "X": 1.0,
        "Y": 255.0
       },
       "handle_left": {
        "X": 0.5,
        "Y": 1.0
       },
       "handle_right": {
        "X": 0.5,
        "Y": 0.0
       },
       "handle_type": 0,
       "interpolation": 0
      }
     ]
    },
    "green": {
     "Points": [
      {
       "co": {
        "X": 1.0,
        "Y": 123.0
       },
       "handle_left": {
        "X": 0.5,
        "Y": 1.0
       },
       "handle_right": {
        "X": 0.5,
        "Y": 0.0
       },
       "handle_type": 0,
       "interpolation": 0
      }
     ]
    },
    "red": {
     "Points": [
      {
       "co": {
        "X": 1.0,
        "Y": 0.0
       },
       "handle_left": {
        "X": 0.5,
        "Y": 1.0
       },
       "handle_right": {
        "X": 0.5,
        "Y": 0.0
       },
       "handle_type": 0,
       "interpolation": 0
      }
     ]
    }
   },
   "waveform": false,
   "file_id": "KZCD8EQ9G8",
   "title": "Crditos.jpg.png",
   "image": "thumbnail/KZCD8EQ9G8.png"
  },
  {
   "alpha": {
    "Points": [
     {
      "co": {
       "X": 1.0,
       "Y": 1.0
      },
      "interpolation": 2
     }
    ]
   },
   "anchor": 0,
   "channel_filter": {
    "Points": [
     {
      "co": {
       "X": 1.0,
       "Y": -1.0
      },
      "interpolation": 2
     }
    ]
   },
   "channel_mapping": {
    "Points": [
     {
      "co": {
       "X": 1.0,
       "Y": -1.0
      },
      "interpolation": 2
     }
    ]
   },
   "crop_height": {
    "Points": [
     {
      "co": {
       "X": 1.0,
       "Y": 1.0
      },
      "interpolation": 2
     }
    ]
   },
   "crop_width": {
    "Points": [
     {
      "co": {
       "X": 1.0,
       "Y": 1.0
      },
      "interpolation": 2
     }
    ]
   },
   "crop_x": {
    "Points": [
     {
      "co": {
       "X": 1.0,
       "Y": 0.0
      },
      "interpolation": 2
     }
    ]
   },
   "crop_y": {
    "Points": [
     {
      "co": {
       "X": 1.0,
       "Y": 0.0
      },
      "interpolation": 2
     }
    ]
   },
   "display": 0,
   "duration": 245.39431762695312,
   "effects": [],
   "end": 79.23333333333333,
   "gravity": 4,
   "has_audio": {
    "Points": [
     {
      "co": {
       "X": 1.0,
       "Y": -1.0
      },
      "interpolation": 2
     }
    ]
   },
   "has_video": {
    "Points": [
     {
      "co": {
       "X": 1.0,
       "Y": -1.0
      },
      "interpolation": 2
     }
    ]
   },
   "id": "VYG6JUQ6X2",
   "layer": 2000000,
   "location_x": {
    "Points": [
     {
      "co": {
       "X": 1.0,
       "Y": 0.0
      },
      "interpolation": 2
     }
    ]
   },
   "location_y": {
    "Points": [
     {
      "co": {
       "X": 1.0,
       "Y": 0.0
      },
      "interpolation": 2
     }
    ]
   },
   "mixing": 0,
   "perspective_c1_x": {
    "Points": [
     {
      "co": {
       "X": 1.0,
       "Y": -1.0
      },
      "interpolation": 2
     }
    ]
   },
   "perspective_c1_y": {
    "Points": [
     {
      "co": {
       "X": 1.0,
       "Y": -1.0
      },
      "interpolation": 2
     }
    ]
   },
   "perspective_c2_x": {
    "Points": [
     {
      "co": {
       "X": 1.0,
       "Y": -1.0
      },
      "interpolation": 2
     }
    ]
   },
   "perspective_c2_y": {
    "Points": [
     {
      "co": {
       "X": 1.0,
       "Y": -1.0
      },
      "interpolation": 2
     }
    ]
   },
   "perspective_c3_x": {
    "Points": [
     {
      "co": {
       "X": 1.0,
       "Y": -1.0
      },
      "interpolation": 2
     }
    ]
   },
   "perspective_c3_y": {
    "Points": [
     {
      "co": {
       "X": 1.0,
       "Y": -1.0
      },
      "interpolation": 2
     }
    ]
   },
   "perspective_c4_x": {
    "Points": [
     {
      "co": {
       "X": 1.0,
       "Y": -1.0
      },
      "interpolation": 2
     }
    ]
   },
   "perspective_c4_y": {
    "Points": [
     {
      "co": {
       "X": 1.0,
       "Y": -1.0
      },
      "interpolation": 2
     }
    ]
   },
   "position": 0,
   "reader": {
    "acodec": "mp3float",
    "audio_bit_rate": 256000,
    "audio_stream_index": 0,
    "audio_timebase": {
     "den": 14112000,
     "num": 1
    },
    "channel_layout": 3,
    "channels": 2,
    "display_ratio": {
     "den": 1,
     "num": 1
    },
    "duration": 245.39431762695312,
    "file_size": "7854755",
    "fps": {
     "den": 1,
     "num": 24
    },
    "has_audio": true,
    "has_single_image": false,
    "has_video": false,
    "height": 480,
    "interlaced_frame": false,
    "metadata": {
     "TDAT": "2011-01-16 6:36:01",
     "album": "Tanzen Allee",
     "album_artist": "Brian",
     "artist": "Brian",
     "comment": "URL: http://freemusicarchive.org/music/Brian/Tanzen_Allee/vamos_a_la_playa_1918\r\nComments: http://freemusicarchive.org/\r\nCurator: \r\nCopyright: Creative Commons Attribution-Noncommercial 2.5 Switzerland: http://creativecommons.org/licenses/by-nc/2.5/ch/",
     "copyright": "Creative Commons Attribution-Noncommercial 2.5 Switzerland: http://creativecommons.org/licenses/by-nc/2.5/ch/",
     "date": "2011-01-16T06:36:01",
     "title": "vamos a la playa",
     "track": "0"
    },
    "path": "./playa.mp3",
    "pixel_format": -1,
    "pixel_ratio": {
     "den": 1,
     "num": 1
    },
    "sample_rate": 44100,
    "top_field_first": true,
    "type": "FFmpegReader",
    "vcodec": "",
    "video_bit_rate": 0,
    "video_length": "5889",
    "video_stream_index": -1,
    "video_timebase": {
     "den": 24,
     "num": 1
    },
    "width": 720
   },
   "rotation": {
    "Points": [
     {
      "co": {
       "X": 1.0,
       "Y": 0.0
      },
      "interpolation": 2
     }
    ]
   },
   "scale": 1,
   "scale_x": {
    "Points": [
     {
      "co": {
       "X": 1.0,
       "Y": 1.0
      },
      "interpolation": 2
     }
    ]
   },
   "scale_y": {
    "Points": [
     {
      "co": {
       "X": 1.0,
       "Y": 1.0
      },
      "interpolation": 2
     }
    ]
   },
   "shear_x": {
    "Points": [
     {
      "co": {
       "X": 1.0,
       "Y": 0.0
      },
      "interpolation": 2
     }
    ]
   },
   "shear_y": {
    "Points": [
     {
      "co": {
       "X": 1.0,
       "Y": 0.0
      },
      "interpolation": 2
     }
    ]
   },
   "start": 0,
   "time": {
    "Points": [
     {
      "co": {
       "X": 1.0,
       "Y": 1.0
      },
      "interpolation": 2
     }
    ]
   },
   "volume": {
    "Points": [
     {
      "co": {
       "X": 1.0,
       "Y": 1.0
      },
      "interpolation": 2
     }
    ]
   },
   "wave_color": {
    "alpha": {
     "Points": [
      {
       "co": {
        "X": 1.0,
        "Y": 255.0
       },
       "handle_left": {
        "X": 0.5,
        "Y": 1.0
       },
       "handle_right": {
        "X": 0.5,
        "Y": 0.0
       },
       "handle_type": 0,
       "interpolation": 0
      }
     ]
    },
    "blue": {
     "Points": [
      {
       "co": {
        "X": 1.0,
        "Y": 255.0
       },
       "handle_left": {
        "X": 0.5,
        "Y": 1.0
       },
       "handle_right": {
        "X": 0.5,
        "Y": 0.0
       },
       "handle_type": 0,
       "interpolation": 0
      }
     ]
    },
    "green": {
     "Points": [
      {
       "co": {
        "X": 1.0,
        "Y": 123.0
       },
       "handle_left": {
        "X": 0.5,
        "Y": 1.0
       },
       "handle_right": {
        "X": 0.5,
        "Y": 0.0
       },
       "handle_type": 0,
       "interpolation": 0
      }
     ]
    },
    "red": {
     "Points": [
      {
       "co": {
        "X": 1.0,
        "Y": 0.0
       },
       "handle_left": {
        "X": 0.5,
        "Y": 1.0
       },
       "handle_right": {
        "X": 0.5,
        "Y": 0.0
       },
       "handle_type": 0,
       "interpolation": 0
      }
     ]
    }
   },
   "waveform": false,
   "file_id": "FTL2P1LDBH",
   "title": "playa.mp3",
   "image": "thumbnail/FTL2P1LDBH.png"
  },
  {
   "alpha": {
    "Points": [
     {
      "co": {
       "X": 1.0,
       "Y": 1.0
      },
      "interpolation": 2
     }
    ]
   },
   "anchor": 0,
   "channel_filter": {
    "Points": [
     {
      "co": {
       "X": 1.0,
       "Y": -1.0
      },
      "interpolation": 2
     }
    ]
   },
   "channel_mapping": {
    "Points": [
     {
      "co": {
       "X": 1.0,
       "Y": -1.0
      },
      "interpolation": 2
     }
    ]
   },
   "crop_height": {
    "Points": [
     {
      "co": {
       "X": 1.0,
       "Y": 1.0
      },
      "interpolation": 2
     }
    ]
   },
   "crop_width": {
    "Points": [
     {
      "co": {
       "X": 1.0,
       "Y": 1.0
      },
      "interpolation": 2
     }
    ]
   },
   "crop_x": {
    "Points": [
     {
      "co": {
       "X": 1.0,
       "Y": 0.0
      },
      "interpolation": 2
     }
    ]
   },
   "crop_y": {
    "Points": [
     {
      "co": {
       "X": 1.0,
       "Y": 0.0
      },
      "interpolation": 2
     }
    ]
   },
   "display": 0,
   "duration": 12.62933349609375,
   "effects": [],
   "end": 12.62933349609375,
   "gravity": 4,
   "has_audio": {
    "Points": [
     {
      "co": {
       "X": 1.0,
       "Y": -1.0
      },
      "interpolation": 2
     }
    ]
   },
   "has_video": {
    "Points": [
     {
      "co": {
       "X": 1.0,
       "Y": -1.0
      },
      "interpolation": 2
     }
    ]
   },
   "id": "QBPJX3417B",
   "layer": 1000000,
   "location_x": {
    "Points": [
     {
      "co": {
       "X": 1.0,
       "Y": 0.0
      },
      "interpolation": 2
     }
    ]
   },
   "location_y": {
    "Points": [
     {
      "co": {
       "X": 1.0,
       "Y": 0.0
      },
      "interpolation": 2
     }
    ]
   },
   "mixing": 0,
   "perspective_c1_x": {
    "Points": [
     {
      "co": {
       "X": 1.0,
       "Y": -1.0
      },
      "interpolation": 2
     }
    ]
   },
   "perspective_c1_y": {
    "Points": [
     {
      "co": {
       "X": 1.0,
       "Y": -1.0
      },
      "interpolation": 2
     }
    ]
   },
   "perspective_c2_x": {
    "Points": [
     {
      "co": {
       "X": 1.0,
       "Y": -1.0
      },
      "interpolation": 2
     }
    ]
   },
   "perspective_c2_y": {
    "Points": [
     {
      "co": {
       "X": 1.0,
       "Y": -1.0
      },
      "interpolation": 2
     }
    ]
   },
   "perspective_c3_x": {
    "Points": [
     {
      "co": {
       "X": 1.0,
       "Y": -1.0
      },
      "interpolation": 2
     }
    ]
   },
   "perspective_c3_y": {
    "Points": [
     {
      "co": {
       "X": 1.0,
       "Y": -1.0
      },
      "interpolation": 2
     }
    ]
   },
   "perspective_c4_x": {
    "Points": [
     {
      "co": {
       "X": 1.0,
       "Y": -1.0
      },
      "interpolation": 2
     }
    ]
   },
   "perspective_c4_y": {
    "Points": [
     {
      "co": {
       "X": 1.0,
       "Y": -1.0
      },
      "interpolation": 2
     }
    ]
   },
   "position": 37.6,
   "reader": {
    "acodec": "aac",
    "audio_bit_rate": 2282,
    "audio_stream_index": 1,
    "audio_timebase": {
     "den": 48000,
     "num": 1
    },
    "channel_layout": 3,
    "channels": 2,
    "display_ratio": {
     "den": 9,
     "num": 16
    },
    "duration": 12.62933349609375,
    "file_size": "7964189",
    "fps": {
     "den": 63,
     "num": 1580
    },
    "has_audio": true,
    "has_single_image": false,
    "has_video": true,
    "height": 576,
    "interlaced_frame": false,
    "metadata": {
     "compatible_brands": "isomiso2avc1mp41",
     "encoder": "Lavf58.20.100",
     "handler_name": "SoundHandler",
     "language": "und",
     "major_brand": "isom",
     "minor_version": "512"
    },
    "path": "./VideoAPasada.mp4",
    "pixel_format": 0,
    "pixel_ratio": {
     "den": 1,
     "num": 1
    },
    "sample_rate": 48000,
    "top_field_first": true,
    "type": "FFmpegReader",
    "vcodec": "h264",
    "video_bit_rate": 630577,
    "video_length": "316",
    "video_stream_index": 0,
    "video_timebase": {
     "den": 12800,
     "num": 1
    },
    "width": 1024
   },
   "rotation": {
    "Points": [
     {
      "co": {
       "X": 1.0,
       "Y": 0.0
      },
      "interpolation": 2
     }
    ]
   },
   "scale": 1,
   "scale_x": {
    "Points": [
     {
      "co": {
       "X": 1.0,
       "Y": 1.0
      },
      "interpolation": 2
     }
    ]
   },
   "scale_y": {
    "Points": [
     {
      "co": {
       "X": 1.0,
       "Y": 1.0
      },
      "interpolation": 2
     }
    ]
   },
   "shear_x": {
    "Points": [
     {
      "co": {
       "X": 1.0,
       "Y": 0.0
      },
      "interpolation": 2
     }
    ]
   },
   "shear_y": {
    "Points": [
     {
      "co": {
       "X": 1.0,
       "Y": 0.0
      },
      "interpolation": 2
     }
    ]
   },
   "start": 0,
   "time": {
    "Points": [
     {
      "co": {
       "X": 1.0,
       "Y": 1.0
      },
      "interpolation": 2
     }
    ]
   },
   "volume": {
    "Points": [
     {
      "co": {
       "X": 1.0,
       "Y": 1.0
      },
      "interpolation": 2
     }
    ]
   },
   "wave_color": {
    "alpha": {
     "Points": [
      {
       "co": {
        "X": 1.0,
        "Y": 255.0
       },
       "handle_left": {
        "X": 0.5,
        "Y": 1.0
       },
       "handle_right": {
        "X": 0.5,
        "Y": 0.0
       },
       "handle_type": 0,
       "interpolation": 0
      }
     ]
    },
    "blue": {
     "Points": [
      {
       "co": {
        "X": 1.0,
        "Y": 255.0
       },
       "handle_left": {
        "X": 0.5,
        "Y": 1.0
       },
       "handle_right": {
        "X": 0.5,
        "Y": 0.0
       },
       "handle_type": 0,
       "interpolation": 0
      }
     ]
    },
    "green": {
     "Points": [
      {
       "co": {
        "X": 1.0,
        "Y": 123.0
       },
       "handle_left": {
        "X": 0.5,
        "Y": 1.0
       },
       "handle_right": {
        "X": 0.5,
        "Y": 0.0
       },
       "handle_type": 0,
       "interpolation": 0
      }
     ]
    },
    "red": {
     "Points": [
      {
       "co": {
        "X": 1.0,
        "Y": 0.0
       },
       "handle_left": {
        "X": 0.5,
        "Y": 1.0
       },
       "handle_right": {
        "X": 0.5,
        "Y": 0.0
       },
       "handle_type": 0,
       "interpolation": 0
      }
     ]
    }
   },
   "waveform": false,
   "file_id": "WMSCAZ0V75",
   "title": "VideoAPasada.mp4",
   "image": "thumbnail/WMSCAZ0V75.png"
  },
  {
   "alpha": {
    "Points": [
     {
      "co": {
       "X": 1.0,
       "Y": 1.0
      },
      "interpolation": 2
     }
    ]
   },
   "anchor": 0,
   "channel_filter": {
    "Points": [
     {
      "co": {
       "X": 1.0,
       "Y": -1.0
      },
      "interpolation": 2
     }
    ]
   },
   "channel_mapping": {
    "Points": [
     {
      "co": {
       "X": 1.0,
       "Y": -1.0
      },
      "interpolation": 2
     }
    ]
   },
   "crop_height": {
    "Points": [
     {
      "co": {
       "X": 1.0,
       "Y": 1.0
      },
      "interpolation": 2
     }
    ]
   },
   "crop_width": {
    "Points": [
     {
      "co": {
       "X": 1.0,
       "Y": 1.0
      },
      "interpolation": 2
     }
    ]
   },
   "crop_x": {
    "Points": [
     {
      "co": {
       "X": 1.0,
       "Y": 0.0
      },
      "interpolation": 2
     }
    ]
   },
   "crop_y": {
    "Points": [
     {
      "co": {
       "X": 1.0,
       "Y": 0.0
      },
      "interpolation": 2
     }
    ]
   },
   "display": 0,
   "duration": 10.426666259765625,
   "effects": [],
   "end": 10.426666259765625,
   "gravity": 4,
   "has_audio": {
    "Points": [
     {
      "co": {
       "X": 1.0,
       "Y": -1.0
      },
      "interpolation": 2
     }
    ]
   },
   "has_video": {
    "Points": [
     {
      "co": {
       "X": 1.0,
       "Y": -1.0
      },
      "interpolation": 2
     }
    ]
   },
   "id": "XGNY5V5HGC",
   "layer": 1000000,
   "location_x": {
    "Points": [
     {
      "co": {
       "X": 1.0,
       "Y": 0.0
      },
      "interpolation": 2
     }
    ]
   },
   "location_y": {
    "Points": [
     {
      "co": {
       "X": 1.0,
       "Y": 0.0
      },
      "interpolation": 2
     }
    ]
   },
   "mixing": 0,
   "perspective_c1_x": {
    "Points": [
     {
      "co": {
       "X": 1.0,
       "Y": -1.0
      },
      "interpolation": 2
     }
    ]
   },
   "perspective_c1_y": {
    "Points": [
     {
      "co": {
       "X": 1.0,
       "Y": -1.0
      },
      "interpolation": 2
     }
    ]
   },
   "perspective_c2_x": {
    "Points": [
     {
      "co": {
       "X": 1.0,
       "Y": -1.0
      },
      "interpolation": 2
     }
    ]
   },
   "perspective_c2_y": {
    "Points": [
     {
      "co": {
       "X": 1.0,
       "Y": -1.0
      },
      "interpolation": 2
     }
    ]
   },
   "perspective_c3_x": {
    "Points": [
     {
      "co": {
       "X": 1.0,
       "Y": -1.0
      },
      "interpolation": 2
     }
    ]
   },
   "perspective_c3_y": {
    "Points": [
     {
      "co": {
       "X": 1.0,
       "Y": -1.0
      },
      "interpolation": 2
     }
    ]
   },
   "perspective_c4_x": {
    "Points": [
     {
      "co": {
       "X": 1.0,
       "Y": -1.0
      },
      "interpolation": 2
     }
    ]
   },
   "perspective_c4_y": {
    "Points": [
     {
      "co": {
       "X": 1.0,
       "Y": -1.0
      },
      "interpolation": 2
     }
    ]
   },
   "position": 60.233333333333334,
   "reader": {
    "acodec": "aac",
    "audio_bit_rate": 2277,
    "audio_stream_index": 1,
    "audio_timebase": {
     "den": 48000,
     "num": 1
    },
    "channel_layout": 3,
    "channels": 2,
    "display_ratio": {
     "den": 9,
     "num": 16
    },
    "duration": 10.426666259765625,
    "file_size": "6468057",
    "fps": {
     "den": 52,
     "num": 1305
    },
    "has_audio": true,
    "has_single_image": false,
    "has_video": true,
    "height": 576,
    "interlaced_frame": false,
    "metadata": {
     "compatible_brands": "isomiso2avc1mp41",
     "encoder": "Lavf58.20.100",
     "handler_name": "SoundHandler",
     "language": "und",
     "major_brand": "isom",
     "minor_version": "512"
    },
    "path": "./AerolongaVideo.mp4",
    "pixel_format": 0,
    "pixel_ratio": {
     "den": 1,
     "num": 1
    },
    "sample_rate": 48000,
    "top_field_first": true,
    "type": "FFmpegReader",
    "vcodec": "h264",
    "video_bit_rate": 620318,
    "video_length": "261",
    "video_stream_index": 0,
    "video_timebase": {
     "den": 12800,
     "num": 1
    },
    "width": 1024
   },
   "rotation": {
    "Points": [
     {
      "co": {
       "X": 1.0,
       "Y": 0.0
      },
      "interpolation": 2
     }
    ]
   },
   "scale": 1,
   "scale_x": {
    "Points": [
     {
      "co": {
       "X": 1.0,
       "Y": 1.0
      },
      "interpolation": 2
     }
    ]
   },
   "scale_y": {
    "Points": [
     {
      "co": {
       "X": 1.0,
       "Y": 1.0
      },
      "interpolation": 2
     }
    ]
   },
   "shear_x": {
    "Points": [
     {
      "co": {
       "X": 1.0,
       "Y": 0.0
      },
      "interpolation": 2
     }
    ]
   },
   "shear_y": {
    "Points": [
     {
      "co": {
       "X": 1.0,
       "Y": 0.0
      },
      "interpolation": 2
     }
    ]
   },
   "start": 0,
   "time": {
    "Points": [
     {
      "co": {
       "X": 1.0,
       "Y": 1.0
      },
      "interpolation": 2
     }
    ]
   },
   "volume": {
    "Points": [
     {
      "co": {
       "X": 1.0,
       "Y": 1.0
      },
      "interpolation": 2
     }
    ]
   },
   "wave_color": {
    "alpha": {
     "Points": [
      {
       "co": {
        "X": 1.0,
        "Y": 255.0
       },
       "handle_left": {
        "X": 0.5,
        "Y": 1.0
       },
       "handle_right": {
        "X": 0.5,
        "Y": 0.0
       },
       "handle_type": 0,
       "interpolation": 0
      }
     ]
    },
    "blue": {
     "Points": [
      {
       "co": {
        "X": 1.0,
        "Y": 255.0
       },
       "handle_left": {
        "X": 0.5,
        "Y": 1.0
       },
       "handle_right": {
        "X": 0.5,
        "Y": 0.0
       },
       "handle_type": 0,
       "interpolation": 0
      }
     ]
    },
    "green": {
     "Points": [
      {
       "co": {
        "X": 1.0,
        "Y": 123.0
       },
       "handle_left": {
        "X": 0.5,
        "Y": 1.0
       },
       "handle_right": {
        "X": 0.5,
        "Y": 0.0
       },
       "handle_type": 0,
       "interpolation": 0
      }
     ]
    },
    "red": {
     "Points": [
      {
       "co": {
        "X": 1.0,
        "Y": 0.0
       },
       "handle_left": {
        "X": 0.5,
        "Y": 1.0
       },
       "handle_right": {
        "X": 0.5,
        "Y": 0.0
       },
       "handle_type": 0,
       "interpolation": 0
      }
     ]
    }
   },
   "waveform": false,
   "file_id": "SIE0SNA01O",
   "title": "AerolongaVideo.mp4",
   "image": "thumbnail/SIE0SNA01O.png"
  }
 ],
 "effects": [
  {
   "id": "ZG54G6COA7",
   "layer": 1000000,
   "title": "Transition",
   "type": "Mask",
   "position": 9.7,
   "start": 0,
   "end": 3.1,
   "brightness": {
    "Points": [
     {
      "co": {
       "X": 1,
       "Y": 1
      },
      "handle_left": {
       "X": 0.5,
       "Y": 1
      },
      "handle_right": {
       "X": 0.5,
       "Y": 0
      },
      "handle_type": 0,
      "interpolation": 0
     },
     {
      "co": {
       "X": 94,
       "Y": -1
      },
      "handle_left": {
       "X": 0.5,
       "Y": 1
      },
      "handle_right": {
       "X": 0.5,
       "Y": 0
      },
      "handle_type": 0,
      "interpolation": 0
     }
    ]
   },
   "contrast": {
    "Points": [
     {
      "co": {
       "X": 1,
       "Y": 3
      },
      "interpolation": 2
     }
    ]
   },
   "reader": {
    "acodec": "",
    "audio_bit_rate": 0,
    "audio_stream_index": -1,
    "audio_timebase": {
     "den": 1,
     "num": 1
    },
    "channel_layout": 4,
    "channels": 0,
    "display_ratio": {
     "den": 4,
     "num": 5
    },
    "duration": 3600.0,
    "file_size": "1658880",
    "fps": {
     "den": 1,
     "num": 30
    },
    "has_audio": false,
    "has_single_image": true,
    "has_video": true,
    "height": 576,
    "interlaced_frame": false,
    "metadata": {},
    "path": "@transitions/extra/barr_ripple_13.jpg",
    "pixel_format": -1,
    "pixel_ratio": {
     "den": 1,
     "num": 1
    },
    "sample_rate": 0,
    "top_field_first": true,
    "type": "QtImageReader",
    "vcodec": "",
    "video_bit_rate": 0,
    "video_length": "108000",
    "video_stream_index": -1,
    "video_timebase": {
     "den": 30,
     "num": 1
    },
    "width": 720
   },
   "replace_image": false
  },
  {
   "id": "7F7NYAY8EY",
   "layer": 1000000,
   "title": "Transition",
   "type": "Mask",
   "position": 17.6,
   "start": 0,
   "end": 2.966666666666667,
   "brightness": {
    "Points": [
     {
      "co": {
       "X": 1,
       "Y": 1
      },
      "handle_left": {
       "X": 0.5,
       "Y": 1
      },
      "handle_right": {
       "X": 0.5,
       "Y": 0
      },
      "handle_type": 0,
      "interpolation": 0
     },
     {
      "co": {
       "X": 90,
       "Y": -1
      },
      "handle_left": {
       "X": 0.5,
       "Y": 1
      },
      "handle_right": {
       "X": 0.5,
       "Y": 0
      },
      "handle_type": 0,
      "interpolation": 0
     }
    ]
   },
   "contrast": {
    "Points": [
     {
      "co": {
       "X": 1,
       "Y": 3
      },
      "interpolation": 2
     }
    ]
   },
   "reader": {
    "acodec": "",
    "audio_bit_rate": 0,
    "audio_stream_index": -1,
    "audio_timebase": {
     "den": 1,
     "num": 1
    },
    "channel_layout": 4,
    "channels": 0,
    "display_ratio": {
     "den": 4,
     "num": 5
    },
    "duration": 3600.0,
    "file_size": "1658880",
    "fps": {
     "den": 1,
     "num": 30
    },
    "has_audio": false,
    "has_single_image": true,
    "has_video": true,
    "height": 576,
    "interlaced_frame": false,
    "metadata": {},
    "path": "@transitions/extra/barr_ripple_12.jpg",
    "pixel_format": -1,
    "pixel_ratio": {
     "den": 1,
     "num": 1
    },
    "sample_rate": 0,
    "top_field_first": true,
    "type": "QtImageReader",
    "vcodec": "",
    "video_bit_rate": 0,
    "video_length": "108000",
    "video_stream_index": -1,
    "video_timebase": {
     "den": 30,
     "num": 1
    },
    "width": 720
   },
   "replace_image": false
  },
  {
   "id": "AT3THIVCS4",
   "layer": 1000000,
   "title": "Transition",
   "type": "Mask",
   "position": 70.66666666666667,
   "start": 0,
   "end": 3.566666666666667,
   "brightness": {
    "Points": [
     {
      "co": {
       "X": 1,
       "Y": 1
      },
      "handle_left": {
       "X": 0.5,
       "Y": 1
      },
      "handle_right": {
       "X": 0.5,
       "Y": 0
      },
      "handle_type": 0,
      "interpolation": 0
     },
     {
      "co": {
       "X": 108,
       "Y": -1
      },
      "handle_left": {
       "X": 0.5,
       "Y": 1
      },
      "handle_right": {
       "X": 0.5,
       "Y": 0
      },
      "handle_type": 0,
      "interpolation": 0
     }
    ]
   },
   "contrast": {
    "Points": [
     {
      "co": {
       "X": 1,
       "Y": 3
      },
      "interpolation": 2
     }
    ]
   },
   "reader": {
    "acodec": "",
    "audio_bit_rate": 0,
    "audio_stream_index": -1,
    "audio_timebase": {
     "den": 1,
     "num": 1
    },
    "channel_layout": 4,
    "channels": 0,
    "display_ratio": {
     "den": 4,
     "num": 5
    },
    "duration": 3600.0,
    "file_size": "1658880",
    "fps": {
     "den": 1,
     "num": 30
    },
    "has_audio": false,
    "has_single_image": true,
    "has_video": true,
    "height": 576,
    "interlaced_frame": false,
    "metadata": {},
    "path": "@transitions/extra/barr_ripple_2.jpg",
    "pixel_format": -1,
    "pixel_ratio": {
     "den": 1,
     "num": 1
    },
    "sample_rate": 0,
    "top_field_first": true,
    "type": "QtImageReader",
    "vcodec": "",
    "video_bit_rate": 0,
    "video_length": "108000",
    "video_stream_index": -1,
    "video_timebase": {
     "den": 30,
     "num": 1
    },
    "width": 720
   },
   "replace_image": false
  },
  {
   "id": "MPU7JJY2CB",
   "layer": 1000000,
   "title": "Transition",
   "type": "Mask",
   "position": 27.6,
   "start": 0,
   "end": 3.1,
   "brightness": {
    "Points": [
     {
      "co": {
       "X": 1,
       "Y": 1
      },
      "handle_left": {
       "X": 0.5,
       "Y": 1
      },
      "handle_right": {
       "X": 0.5,
       "Y": 0
      },
      "handle_type": 0,
      "interpolation": 0
     },
     {
      "co": {
       "X": 94,
       "Y": -1
      },
      "handle_left": {
       "X": 0.5,
       "Y": 1
      },
      "handle_right": {
       "X": 0.5,
       "Y": 0
      },
      "handle_type": 0,
      "interpolation": 0
     }
    ]
   },
   "contrast": {
    "Points": [
     {
      "co": {
       "X": 1,
       "Y": 3
      },
      "interpolation": 2
     }
    ]
   },
   "reader": {
    "acodec": "",
    "audio_bit_rate": 0,
    "audio_stream_index": -1,
    "audio_timebase": {
     "den": 1,
     "num": 1
    },
    "channel_layout": 4,
    "channels": 0,
    "display_ratio": {
     "den": 4,
     "num": 5
    },
    "duration": 3600.0,
    "file_size": "1658880",
    "fps": {
     "den": 1,
     "num": 30
    },
    "has_audio": false,
    "has_single_image": true,
    "has_video": true,
    "height": 576,
    "interlaced_frame": false,
    "metadata": {},
    "path": "@transitions/extra/big_cross_left_barr.jpg",
    "pixel_format": -1,
    "pixel_ratio": {
     "den": 1,
     "num": 1
    },
    "sample_rate": 0,
    "top_field_first": true,
    "type": "QtImageReader",
    "vcodec": "",
    "video_bit_rate": 0,
    "video_length": "108000",
    "video_stream_index": -1,
    "video_timebase": {
     "den": 30,
     "num": 1
    },
    "width": 720
   },
   "replace_image": false
  },
  {
   "id": "OTVB3T8BEO",
   "layer": 1000000,
   "title": "Transition",
   "type": "Mask",
   "position": 60.233333333333334,
   "start": 0,
   "end": 3.433333333333333,
   "brightness": {
    "Points": [
     {
      "co": {
       "X": 1,
       "Y": 1
      },
      "handle_left": {
       "X": 0.5,
       "Y": 1
      },
      "handle_right": {
       "X": 0.5,
       "Y": 0
      },
      "handle_type": 0,
      "interpolation": 0
     },
     {
      "co": {
       "X": 104,
       "Y": -1
      },
      "handle_left": {
       "X": 0.5,
       "Y": 1
      },
      "handle_right": {
       "X": 0.5,
       "Y": 0
      },
      "handle_type": 0,
      "interpolation": 0
     }
    ]
   },
   "contrast": {
    "Points": [
     {
      "co": {
       "X": 1,
       "Y": 3
      },
      "interpolation": 2
     }
    ]
   },
   "reader": {
    "acodec": "",
    "audio_bit_rate": 0,
    "audio_stream_index": -1,
    "audio_timebase": {
     "den": 1,
     "num": 1
    },
    "channel_layout": 4,
    "channels": 0,
    "display_ratio": {
     "den": 4,
     "num": 5
    },
    "duration": 3600.0,
    "file_size": "1658880",
    "fps": {
     "den": 1,
     "num": 30
    },
    "has_audio": false,
    "has_single_image": true,
    "has_video": true,
    "height": 576,
    "interlaced_frame": false,
    "metadata": {},
    "path": "@transitions/extra/luminous_boxes_3.jpg",
    "pixel_format": -1,
    "pixel_ratio": {
     "den": 1,
     "num": 1
    },
    "sample_rate": 0,
    "top_field_first": true,
    "type": "QtImageReader",
    "vcodec": "",
    "video_bit_rate": 0,
    "video_length": "108000",
    "video_stream_index": -1,
    "video_timebase": {
     "den": 30,
     "num": 1
    },
    "width": 720
   },
   "replace_image": false
  },
  {
   "layer": 1000000,
   "title": "Transition",
   "type": "Mask",
   "position": 37.6,
   "start": 0,
   "end": 3.1,
   "brightness": {
    "Points": [
     {
      "co": {
       "X": 1,
       "Y": 1
      },
      "handle_left": {
       "X": 0.5,
       "Y": 1
      },
      "handle_right": {
       "X": 0.5,
       "Y": 0
      },
      "handle_type": 0,
      "interpolation": 0
     },
     {
      "co": {
       "X": 94,
       "Y": -1
      },
      "handle_left": {
       "X": 0.5,
       "Y": 1
      },
      "handle_right": {
       "X": 0.5,
       "Y": 0
      },
      "handle_type": 0,
      "interpolation": 0
     }
    ]
   },
   "contrast": {
    "Points": [
     {
      "co": {
       "X": 1,
       "Y": 3
      },
      "interpolation": 2
     }
    ]
   },
   "reader": {
    "acodec": "",
    "audio_bit_rate": 0,
    "audio_stream_index": -1,
    "audio_timebase": {
     "den": 1,
     "num": 1
    },
    "channel_layout": 4,
    "channels": 0,
    "display_ratio": {
     "den": 4,
     "num": 5
    },
    "duration": 3600.0,
    "file_size": "1658880",
    "fps": {
     "den": 1,
     "num": 30
    },
    "has_audio": false,
    "has_single_image": true,
    "has_video": true,
    "height": 576,
    "interlaced_frame": false,
    "metadata": {},
    "path": "@transitions/extra/big_cross_left_barr.jpg",
    "pixel_format": -1,
    "pixel_ratio": {
     "den": 1,
     "num": 1
    },
    "sample_rate": 0,
    "top_field_first": true,
    "type": "QtImageReader",
    "vcodec": "",
    "video_bit_rate": 0,
    "video_length": "108000",
    "video_stream_index": -1,
    "video_timebase": {
     "den": 30,
     "num": 1
    },
    "width": 720
   },
   "replace_image": false,
   "id": "HJBFXSSBFD"
  },
  {
   "id": "CM0OJTNUYM",
   "layer": 1000000,
   "title": "Transition",
   "type": "Mask",
   "position": 50.233333333333334,
   "start": 0,
   "end": 3.8666666666666667,
   "brightness": {
    "Points": [
     {
      "co": {
       "X": 1,
       "Y": 1
      },
      "handle_left": {
       "X": 0.5,
       "Y": 1
      },
      "handle_right": {
       "X": 0.5,
       "Y": 0
      },
      "handle_type": 0,
      "interpolation": 0
     },
     {
      "co": {
       "X": 117,
       "Y": -1
      },
      "handle_left": {
       "X": 0.5,
       "Y": 1
      },
      "handle_right": {
       "X": 0.5,
       "Y": 0
      },
      "handle_type": 0,
      "interpolation": 0
     }
    ]
   },
   "contrast": {
    "Points": [
     {
      "co": {
       "X": 1,
       "Y": 3
      },
      "interpolation": 2
     }
    ]
   },
   "reader": {
    "acodec": "",
    "audio_bit_rate": 0,
    "audio_stream_index": -1,
    "audio_timebase": {
     "den": 1,
     "num": 1
    },
    "channel_layout": 4,
    "channels": 0,
    "display_ratio": {
     "den": 4,
     "num": 5
    },
    "duration": 3600.0,
    "file_size": "1658880",
    "fps": {
     "den": 1,
     "num": 30
    },
    "has_audio": false,
    "has_single_image": true,
    "has_video": true,
    "height": 576,
    "interlaced_frame": false,
    "metadata": {},
    "path": "@transitions/common/fade.svg",
    "pixel_format": -1,
    "pixel_ratio": {
     "den": 1,
     "num": 1
    },
    "sample_rate": 0,
    "top_field_first": true,
    "type": "QtImageReader",
    "vcodec": "",
    "video_bit_rate": 0,
    "video_length": "108000",
    "video_stream_index": -1,
    "video_timebase": {
     "den": 30,
     "num": 1
    },
    "width": 720
   },
   "replace_image": false
  }
 ],
 "export_path": "E:\\diw\\Tema2\\ActividadVideo",
 "import_path": "",
 "files": [
  {
   "acodec": "",
   "audio_bit_rate": 0,
   "audio_stream_index": -1,
   "audio_timebase": {
    "den": 1,
    "num": 1
   },
   "channel_layout": 4,
   "channels": 0,
   "display_ratio": {
    "den": 600,
    "num": 487
   },
   "duration": 3600.0,
   "file_size": "4675200",
   "fps": {
    "den": 1,
    "num": 30
   },
   "has_audio": false,
   "has_single_image": true,
   "has_video": true,
   "height": 1200,
   "interlaced_frame": false,
   "metadata": {},
   "path": "./mapa.jpg",
   "pixel_format": -1,
   "pixel_ratio": {
    "den": 1,
    "num": 1
   },
   "sample_rate": 0,
   "top_field_first": true,
   "type": "QtImageReader",
   "vcodec": "",
   "video_bit_rate": 0,
   "video_length": "108000",
   "video_stream_index": -1,
   "video_timebase": {
    "den": 30,
    "num": 1
   },
   "width": 974,
   "media_type": "image",
   "id": "3CEE6QW14U",
   "image": "thumbnail/3CEE6QW14U.png"
  },
  {
   "acodec": "",
   "audio_bit_rate": 0,
   "audio_stream_index": -1,
   "audio_timebase": {
    "den": 1,
    "num": 1
   },
   "channel_layout": 4,
   "channels": 0,
   "display_ratio": {
    "den": 64,
    "num": 135
   },
   "duration": 3600.0,
   "file_size": "1693440",
   "fps": {
    "den": 1,
    "num": 30
   },
   "has_audio": false,
   "has_single_image": true,
   "has_video": true,
   "height": 448,
   "interlaced_frame": false,
   "metadata": {},
   "path": "./Portada.jpg",
   "pixel_format": -1,
   "pixel_ratio": {
    "den": 1,
    "num": 1
   },
   "sample_rate": 0,
   "top_field_first": true,
   "type": "QtImageReader",
   "vcodec": "",
   "video_bit_rate": 0,
   "video_length": "108000",
   "video_stream_index": -1,
   "video_timebase": {
    "den": 30,
    "num": 1
   },
   "width": 945,
   "media_type": "image",
   "id": "7KNKIPTI1V",
   "image": "thumbnail/7KNKIPTI1V.png"
  },
  {
   "acodec": "mp3float",
   "audio_bit_rate": 256000,
   "audio_stream_index": 0,
   "audio_timebase": {
    "den": 14112000,
    "num": 1
   },
   "channel_layout": 3,
   "channels": 2,
   "display_ratio": {
    "den": 1,
    "num": 1
   },
   "duration": 245.39431762695312,
   "file_size": "7854755",
   "fps": {
    "den": 1,
    "num": 24
   },
   "has_audio": true,
   "has_single_image": false,
   "has_video": false,
   "height": 480,
   "interlaced_frame": false,
   "metadata": {
    "TDAT": "2011-01-16 6:36:01",
    "album": "Tanzen Allee",
    "album_artist": "Brian",
    "artist": "Brian",
    "comment": "URL: http://freemusicarchive.org/music/Brian/Tanzen_Allee/vamos_a_la_playa_1918\r\nComments: http://freemusicarchive.org/\r\nCurator: \r\nCopyright: Creative Commons Attribution-Noncommercial 2.5 Switzerland: http://creativecommons.org/licenses/by-nc/2.5/ch/",
    "copyright": "Creative Commons Attribution-Noncommercial 2.5 Switzerland: http://creativecommons.org/licenses/by-nc/2.5/ch/",
    "date": "2011-01-16T06:36:01",
    "title": "vamos a la playa",
    "track": "0"
   },
   "path": "./playa.mp3",
   "pixel_format": -1,
   "pixel_ratio": {
    "den": 1,
    "num": 1
   },
   "sample_rate": 44100,
   "top_field_first": true,
   "type": "FFmpegReader",
   "vcodec": "",
   "video_bit_rate": 0,
   "video_length": "5889",
   "video_stream_index": -1,
   "video_timebase": {
    "den": 24,
    "num": 1
   },
   "width": 720,
   "media_type": "audio",
   "id": "PX9LDZ1U30",
   "image": "thumbnail/PX9LDZ1U30.png"
  },
  {
   "acodec": "",
   "audio_bit_rate": 0,
   "audio_stream_index": -1,
   "audio_timebase": {
    "den": 1,
    "num": 1
   },
   "channel_layout": 4,
   "channels": 0,
   "display_ratio": {
    "den": 37,
    "num": 50
   },
   "duration": 3600.0,
   "file_size": "266400",
   "fps": {
    "den": 1,
    "num": 30
   },
   "has_audio": false,
   "has_single_image": true,
   "has_video": true,
   "height": 222,
   "interlaced_frame": false,
   "metadata": {},
   "path": "./Playa-punta-de-anguileira-300x222.jpg",
   "pixel_format": -1,
   "pixel_ratio": {
    "den": 1,
    "num": 1
   },
   "sample_rate": 0,
   "top_field_first": true,
   "type": "QtImageReader",
   "vcodec": "",
   "video_bit_rate": 0,
   "video_length": "108000",
   "video_stream_index": -1,
   "video_timebase": {
    "den": 30,
    "num": 1
   },
   "width": 300,
   "media_type": "image",
   "id": "MIWNEF7JG9",
   "image": "thumbnail/MIWNEF7JG9.png"
  },
  {
   "acodec": "",
   "audio_bit_rate": 0,
   "audio_stream_index": -1,
   "audio_timebase": {
    "den": 1,
    "num": 1
   },
   "channel_layout": 4,
   "channels": 0,
   "display_ratio": {
    "den": 33,
    "num": 50
   },
   "duration": 3600.0,
   "file_size": "237600",
   "fps": {
    "den": 1,
    "num": 30
   },
   "has_audio": false,
   "has_single_image": true,
   "has_video": true,
   "height": 198,
   "interlaced_frame": false,
   "metadata": {},
   "path": "./Playa-de-Arealonga-300x198.jpg",
   "pixel_format": -1,
   "pixel_ratio": {
    "den": 1,
    "num": 1
   },
   "sample_rate": 0,
   "top_field_first": true,
   "type": "QtImageReader",
   "vcodec": "",
   "video_bit_rate": 0,
   "video_length": "108000",
   "video_stream_index": -1,
   "video_timebase": {
    "den": 30,
    "num": 1
   },
   "width": 300,
   "media_type": "image",
   "id": "U7059MT4QL",
   "image": "thumbnail/U7059MT4QL.png"
  },
  {
   "acodec": "",
   "audio_bit_rate": 0,
   "audio_stream_index": -1,
   "audio_timebase": {
    "den": 1,
    "num": 1
   },
   "channel_layout": 4,
   "channels": 0,
   "display_ratio": {
    "den": 37,
    "num": 50
   },
   "duration": 3600.0,
   "file_size": "266400",
   "fps": {
    "den": 1,
    "num": 30
   },
   "has_audio": false,
   "has_single_image": true,
   "has_video": true,
   "height": 222,
   "interlaced_frame": false,
   "metadata": {},
   "path": "./Playa-de-a-pasada-300x222.jpg",
   "pixel_format": -1,
   "pixel_ratio": {
    "den": 1,
    "num": 1
   },
   "sample_rate": 0,
   "top_field_first": true,
   "type": "QtImageReader",
   "vcodec": "",
   "video_bit_rate": 0,
   "video_length": "108000",
   "video_stream_index": -1,
   "video_timebase": {
    "den": 30,
    "num": 1
   },
   "width": 300,
   "media_type": "image",
   "id": "PXOXMID3OL",
   "image": "thumbnail/PXOXMID3OL.png"
  },
  {
   "acodec": "",
   "audio_bit_rate": 0,
   "audio_stream_index": -1,
   "audio_timebase": {
    "den": 1,
    "num": 1
   },
   "channel_layout": 4,
   "channels": 0,
   "display_ratio": {
    "den": 1,
    "num": 1
   },
   "duration": 3600.0,
   "file_size": "360000",
   "fps": {
    "den": 1,
    "num": 30
   },
   "has_audio": false,
   "has_single_image": true,
   "has_video": true,
   "height": 300,
   "interlaced_frame": false,
   "metadata": {},
   "path": "./Crditos.jpg.png",
   "pixel_format": -1,
   "pixel_ratio": {
    "den": 1,
    "num": 1
   },
   "sample_rate": 0,
   "top_field_first": true,
   "type": "QtImageReader",
   "vcodec": "",
   "video_bit_rate": 0,
   "video_length": "108000",
   "video_stream_index": -1,
   "video_timebase": {
    "den": 30,
    "num": 1
   },
   "width": 300,
   "media_type": "image",
   "id": "KZCD8EQ9G8",
   "image": "thumbnail/KZCD8EQ9G8.png"
  },
  {
   "acodec": "aac",
   "audio_bit_rate": 2277,
   "audio_stream_index": 1,
   "audio_timebase": {
    "den": 48000,
    "num": 1
   },
   "channel_layout": 3,
   "channels": 2,
   "display_ratio": {
    "den": 9,
    "num": 16
   },
   "duration": 10.426666259765625,
   "file_size": "6468057",
   "fps": {
    "den": 52,
    "num": 1305
   },
   "has_audio": true,
   "has_single_image": false,
   "has_video": true,
   "height": 576,
   "interlaced_frame": false,
   "metadata": {
    "compatible_brands": "isomiso2avc1mp41",
    "encoder": "Lavf58.20.100",
    "handler_name": "SoundHandler",
    "language": "und",
    "major_brand": "isom",
    "minor_version": "512"
   },
   "path": "./AerolongaVideo.mp4",
   "pixel_format": 0,
   "pixel_ratio": {
    "den": 1,
    "num": 1
   },
   "sample_rate": 48000,
   "top_field_first": true,
   "type": "FFmpegReader",
   "vcodec": "h264",
   "video_bit_rate": 620318,
   "video_length": "261",
   "video_stream_index": 0,
   "video_timebase": {
    "den": 12800,
    "num": 1
   },
   "width": 1024,
   "media_type": "video",
   "id": "SIE0SNA01O",
   "image": "thumbnail/SIE0SNA01O.png"
  },
  {
   "acodec": "aac",
   "audio_bit_rate": 2282,
   "audio_stream_index": 1,
   "audio_timebase": {
    "den": 48000,
    "num": 1
   },
   "channel_layout": 3,
   "channels": 2,
   "display_ratio": {
    "den": 9,
    "num": 16
   },
   "duration": 12.62933349609375,
   "file_size": "7964189",
   "fps": {
    "den": 63,
    "num": 1580
   },
   "has_audio": true,
   "has_single_image": false,
   "has_video": true,
   "height": 576,
   "interlaced_frame": false,
   "metadata": {
    "compatible_brands": "isomiso2avc1mp41",
    "encoder": "Lavf58.20.100",
    "handler_name": "SoundHandler",
    "language": "und",
    "major_brand": "isom",
    "minor_version": "512"
   },
   "path": "./VideoAPasada.mp4",
   "pixel_format": 0,
   "pixel_ratio": {
    "den": 1,
    "num": 1
   },
   "sample_rate": 48000,
   "top_field_first": true,
   "type": "FFmpegReader",
   "vcodec": "h264",
   "video_bit_rate": 630577,
   "video_length": "316",
   "video_stream_index": 0,
   "video_timebase": {
    "den": 12800,
    "num": 1
   },
   "width": 1024,
   "media_type": "video",
   "id": "WMSCAZ0V75",
   "image": "thumbnail/WMSCAZ0V75.png"
  },
  {
   "acodec": "mp3float",
   "audio_bit_rate": 256000,
   "audio_stream_index": 0,
   "audio_timebase": {
    "den": 14112000,
    "num": 1
   },
   "channel_layout": 3,
   "channels": 2,
   "display_ratio": {
    "den": 1,
    "num": 1
   },
   "duration": 245.39431762695312,
   "file_size": "7854755",
   "fps": {
    "den": 1,
    "num": 24
   },
   "has_audio": true,
   "has_single_image": false,
   "has_video": false,
   "height": 480,
   "interlaced_frame": false,
   "metadata": {
    "TDAT": "2011-01-16 6:36:01",
    "album": "Tanzen Allee",
    "album_artist": "Brian",
    "artist": "Brian",
    "comment": "URL: http://freemusicarchive.org/music/Brian/Tanzen_Allee/vamos_a_la_playa_1918\r\nComments: http://freemusicarchive.org/\r\nCurator: \r\nCopyright: Creative Commons Attribution-Noncommercial 2.5 Switzerland: http://creativecommons.org/licenses/by-nc/2.5/ch/",
    "copyright": "Creative Commons Attribution-Noncommercial 2.5 Switzerland: http://creativecommons.org/licenses/by-nc/2.5/ch/",
    "date": "2011-01-16T06:36:01",
    "title": "vamos a la playa",
    "track": "0"
   },
   "path": "./playa.mp3",
   "pixel_format": -1,
   "pixel_ratio": {
    "den": 1,
    "num": 1
   },
   "sample_rate": 44100,
   "top_field_first": true,
   "type": "FFmpegReader",
   "vcodec": "",
   "video_bit_rate": 0,
   "video_length": "5889",
   "video_stream_index": -1,
   "video_timebase": {
    "den": 24,
    "num": 1
   },
   "width": 720,
   "media_type": "audio",
   "id": "FTL2P1LDBH",
   "image": "thumbnail/FTL2P1LDBH.png"
  }
 ],
 "duration": 334.44431762695314,
 "scale": 20,
 "tick_pixels": 100,
 "playhead_position": 0,
 "profile": "HD 720p 30 fps",
 "layers": [
  {
   "id": "L1",
   "label": "",
   "number": 1000000,
   "y": 0,
   "lock": false
  },
  {
   "id": "L2",
   "label": "",
   "number": 2000000,
   "y": 0,
   "lock": false
  }
 ],
 "markers": [],
 "progress": [],
 "history": {
  "undo": [
   {
    "type": "update",
    "key": [
     "effects",
     {
      "id": "OTVB3T8BEO"
     }
    ],
    "value": {
     "id": "OTVB3T8BEO",
     "layer": 1000000,
     "position": 47.6,
     "start": 0,
     "end": 8.833333333333334,
     "brightness": {
      "Points": [
       {
        "co": {
         "X": 1,
         "Y": 1
        },
        "handle_left": {
         "X": 0.5,
         "Y": 1
        },
        "handle_right": {
         "X": 0.5,
         "Y": 0
        },
        "handle_type": 0,
        "interpolation": 0
       },
       {
        "co": {
         "X": 266,
         "Y": -1
        },
        "handle_left": {
         "X": 0.5,
         "Y": 1
        },
        "handle_right": {
         "X": 0.5,
         "Y": 0
        },
        "handle_type": 0,
        "interpolation": 0
       }
      ]
     },
     "contrast": {
      "Points": [
       {
        "co": {
         "X": 1,
         "Y": 3
        },
        "interpolation": 2
       }
      ]
     }
    },
    "partial": false,
    "old_values": {
     "id": "OTVB3T8BEO",
     "layer": 1000000,
     "title": "Transition",
     "type": "Mask",
     "position": 47.6,
     "start": 0,
     "end": 3.8666666666666667,
     "brightness": {
      "Points": [
       {
        "co": {
         "X": 1,
         "Y": 1
        },
        "handle_left": {
         "X": 0.5,
         "Y": 1
        },
        "handle_right": {
         "X": 0.5,
         "Y": 0
        },
        "handle_type": 0,
        "interpolation": 0
       },
       {
        "co": {
         "X": 117,
         "Y": -1
        },
        "handle_left": {
         "X": 0.5,
         "Y": 1
        },
        "handle_right": {
         "X": 0.5,
         "Y": 0
        },
        "handle_type": 0,
        "interpolation": 0
       }
      ]
     },
     "contrast": {
      "Points": [
       {
        "co": {
         "X": 1,
         "Y": 3
        },
        "interpolation": 2
       }
      ]
     },
     "reader": {
      "acodec": "",
      "audio_bit_rate": 0,
      "audio_stream_index": -1,
      "audio_timebase": {
       "den": 1,
       "num": 1
      },
      "channel_layout": 4,
      "channels": 0,
      "display_ratio": {
       "den": 4,
       "num": 5
      },
      "duration": 3600.0,
      "file_size": "1658880",
      "fps": {
       "den": 1,
       "num": 30
      },
      "has_audio": false,
      "has_single_image": true,
      "has_video": true,
      "height": 576,
      "interlaced_frame": false,
      "metadata": {},
      "path": "@transitions/extra/luminous_boxes_3.jpg",
      "pixel_format": -1,
      "pixel_ratio": {
       "den": 1,
       "num": 1
      },
      "sample_rate": 0,
      "top_field_first": true,
      "type": "QtImageReader",
      "vcodec": "",
      "video_bit_rate": 0,
      "video_length": "108000",
      "video_stream_index": -1,
      "video_timebase": {
       "den": 30,
       "num": 1
      },
      "width": 720
     },
     "replace_image": false
    }
   },
   {
    "type": "update",
    "key": [
     "effects",
     {
      "id": "OTVB3T8BEO"
     }
    ],
    "value": {
     "id": "OTVB3T8BEO",
     "layer": 1000000,
     "position": 64.6,
     "start": 0,
     "end": 8.833333333333334,
     "brightness": {
      "Points": [
       {
        "co": {
         "X": 1,
         "Y": 1
        },
        "handle_left": {
         "X": 0.5,
         "Y": 1
        },
        "handle_right": {
         "X": 0.5,
         "Y": 0
        },
        "handle_type": 0,
        "interpolation": 0
       },
       {
        "co": {
         "X": 266,
         "Y": -1
        },
        "handle_left": {
         "X": 0.5,
         "Y": 1
        },
        "handle_right": {
         "X": 0.5,
         "Y": 0
        },
        "handle_type": 0,
        "interpolation": 0
       }
      ]
     },
     "contrast": {
      "Points": [
       {
        "co": {
         "X": 1,
         "Y": 3
        },
        "interpolation": 2
       }
      ]
     }
    },
    "partial": false,
    "old_values": {
     "id": "OTVB3T8BEO",
     "layer": 1000000,
     "title": "Transition",
     "type": "Mask",
     "position": 47.6,
     "start": 0,
     "end": 8.833333333333334,
     "brightness": {
      "Points": [
       {
        "co": {
         "X": 1,
         "Y": 1
        },
        "handle_left": {
         "X": 0.5,
         "Y": 1
        },
        "handle_right": {
         "X": 0.5,
         "Y": 0
        },
        "handle_type": 0,
        "interpolation": 0
       },
       {
        "co": {
         "X": 266,
         "Y": -1
        },
        "handle_left": {
         "X": 0.5,
         "Y": 1
        },
        "handle_right": {
         "X": 0.5,
         "Y": 0
        },
        "handle_type": 0,
        "interpolation": 0
       }
      ]
     },
     "contrast": {
      "Points": [
       {
        "co": {
         "X": 1,
         "Y": 3
        },
        "interpolation": 2
       }
      ]
     },
     "reader": {
      "acodec": "",
      "audio_bit_rate": 0,
      "audio_stream_index": -1,
      "audio_timebase": {
       "den": 1,
       "num": 1
      },
      "channel_layout": 4,
      "channels": 0,
      "display_ratio": {
       "den": 4,
       "num": 5
      },
      "duration": 3600.0,
      "file_size": "1658880",
      "fps": {
       "den": 1,
       "num": 30
      },
      "has_audio": false,
      "has_single_image": true,
      "has_video": true,
      "height": 576,
      "interlaced_frame": false,
      "metadata": {},
      "path": "@transitions/extra/luminous_boxes_3.jpg",
      "pixel_format": -1,
      "pixel_ratio": {
       "den": 1,
       "num": 1
      },
      "sample_rate": 0,
      "top_field_first": true,
      "type": "QtImageReader",
      "vcodec": "",
      "video_bit_rate": 0,
      "video_length": "108000",
      "video_stream_index": -1,
      "video_timebase": {
       "den": 30,
       "num": 1
      },
      "width": 720
     },
     "replace_image": false
    }
   },
   {
    "type": "update",
    "key": [
     "clips",
     {
      "id": "XUIQHBTIKV"
     }
    ],
    "value": {
     "id": "XUIQHBTIKV",
     "layer": 1000000,
     "position": 109.63333333333334,
     "start": 0,
     "end": 8.966666666666667
    },
    "partial": false,
    "old_values": {
     "alpha": {
      "Points": [
       {
        "co": {
         "X": 1.0,
         "Y": 1.0
        },
        "handle_left": {
         "X": 0.5,
         "Y": 1.0
        },
        "handle_right": {
         "X": 0.5,
         "Y": 0.0
        },
        "handle_type": 0,
        "interpolation": 0
       },
       {
        "co": {
         "X": 1.0,
         "Y": 0.0
        },
        "handle_left": {
         "X": 0.5,
         "Y": 1.0
        },
        "handle_right": {
         "X": 0.5,
         "Y": 0.0
        },
        "handle_type": 0,
        "interpolation": 0
       },
       {
        "co": {
         "X": 91.0,
         "Y": 1.0
        },
        "handle_left": {
         "X": 0.5,
         "Y": 1.0
        },
        "handle_right": {
         "X": 0.5,
         "Y": 0.0
        },
        "handle_type": 0,
        "interpolation": 0
       },
       {
        "co": {
         "X": 180.0,
         "Y": 1.0
        },
        "handle_left": {
         "X": 0.5,
         "Y": 1.0
        },
        "handle_right": {
         "X": 0.5,
         "Y": 0.0
        },
        "handle_type": 0,
        "interpolation": 0
       },
       {
        "co": {
         "X": 270.0,
         "Y": 0.0
        },
        "handle_left": {
         "X": 0.5,
         "Y": 1.0
        },
        "handle_right": {
         "X": 0.5,
         "Y": 0.0
        },
        "handle_type": 0,
        "interpolation": 0
       }
      ]
     },
     "anchor": 0,
     "channel_filter": {
      "Points": [
       {
        "co": {
         "X": 1.0,
         "Y": -1.0
        },
        "interpolation": 2
       }
      ]
     },
     "channel_mapping": {
      "Points": [
       {
        "co": {
         "X": 1.0,
         "Y": -1.0
        },
        "interpolation": 2
       }
      ]
     },
     "crop_height": {
      "Points": [
       {
        "co": {
         "X": 1.0,
         "Y": 1.0
        },
        "interpolation": 2
       }
      ]
     },
     "crop_width": {
      "Points": [
       {
        "co": {
         "X": 1.0,
         "Y": 1.0
        },
        "interpolation": 2
       }
      ]
     },
     "crop_x": {
      "Points": [
       {
        "co": {
         "X": 1.0,
         "Y": 0.0
        },
        "interpolation": 2
       }
      ]
     },
     "crop_y": {
      "Points": [
       {
        "co": {
         "X": 1.0,
         "Y": 0.0
        },
        "interpolation": 2
       }
      ]
     },
     "display": 0,
     "duration": 3600.0,
     "effects": [],
     "end": 8.966666666666667,
     "gravity": 4,
     "has_audio": {
      "Points": [
       {
        "co": {
         "X": 1.0,
         "Y": -1.0
        },
        "interpolation": 2
       }
      ]
     },
     "has_video": {
      "Points": [
       {
        "co": {
         "X": 1.0,
         "Y": -1.0
        },
        "interpolation": 2
       }
      ]
     },
     "id": "XUIQHBTIKV",
     "layer": 1000000,
     "location_x": {
      "Points": [
       {
        "co": {
         "X": 1.0,
         "Y": 0.0
        },
        "interpolation": 2
       }
      ]
     },
     "location_y": {
      "Points": [
       {
        "co": {
         "X": 1.0,
         "Y": 0.0
        },
        "interpolation": 2
       }
      ]
     },
     "mixing": 0,
     "perspective_c1_x": {
      "Points": [
       {
        "co": {
         "X": 1.0,
         "Y": -1.0
        },
        "interpolation": 2
       }
      ]
     },
     "perspective_c1_y": {
      "Points": [
       {
        "co": {
         "X": 1.0,
         "Y": -1.0
        },
        "interpolation": 2
       }
      ]
     },
     "perspective_c2_x": {
      "Points": [
       {
        "co": {
         "X": 1.0,
         "Y": -1.0
        },
        "interpolation": 2
       }
      ]
     },
     "perspective_c2_y": {
      "Points": [
       {
        "co": {
         "X": 1.0,
         "Y": -1.0
        },
        "interpolation": 2
       }
      ]
     },
     "perspective_c3_x": {
      "Points": [
       {
        "co": {
         "X": 1.0,
         "Y": -1.0
        },
        "interpolation": 2
       }
      ]
     },
     "perspective_c3_y": {
      "Points": [
       {
        "co": {
         "X": 1.0,
         "Y": -1.0
        },
        "interpolation": 2
       }
      ]
     },
     "perspective_c4_x": {
      "Points": [
       {
        "co": {
         "X": 1.0,
         "Y": -1.0
        },
        "interpolation": 2
       }
      ]
     },
     "perspective_c4_y": {
      "Points": [
       {
        "co": {
         "X": 1.0,
         "Y": -1.0
        },
        "interpolation": 2
       }
      ]
     },
     "position": 47.70000000000001,
     "reader": {
      "acodec": "",
      "audio_bit_rate": 0,
      "audio_stream_index": -1,
      "audio_timebase": {
       "den": 1,
       "num": 1
      },
      "channel_layout": 4,
      "channels": 0,
      "display_ratio": {
       "den": 1,
       "num": 1
      },
      "duration": 3600.0,
      "file_size": "360000",
      "fps": {
       "den": 1,
       "num": 30
      },
      "has_audio": false,
      "has_single_image": true,
      "has_video": true,
      "height": 300,
      "interlaced_frame": false,
      "metadata": {},
      "path": "./Crditos.jpg.png",
      "pixel_format": -1,
      "pixel_ratio": {
       "den": 1,
       "num": 1
      },
      "sample_rate": 0,
      "top_field_first": true,
      "type": "QtImageReader",
      "vcodec": "",
      "video_bit_rate": 0,
      "video_length": "108000",
      "video_stream_index": -1,
      "video_timebase": {
       "den": 30,
       "num": 1
      },
      "width": 300
     },
     "rotation": {
      "Points": [
       {
        "co": {
         "X": 1.0,
         "Y": 0.0
        },
        "interpolation": 2
       }
      ]
     },
     "scale": 1,
     "scale_x": {
      "Points": [
       {
        "co": {
         "X": 1.0,
         "Y": 1.0
        },
        "interpolation": 2
       }
      ]
     },
     "scale_y": {
      "Points": [
       {
        "co": {
         "X": 1.0,
         "Y": 1.0
        },
        "interpolation": 2
       }
      ]
     },
     "shear_x": {
      "Points": [
       {
        "co": {
         "X": 1.0,
         "Y": 0.0
        },
        "interpolation": 2
       }
      ]
     },
     "shear_y": {
      "Points": [
       {
        "co": {
         "X": 1.0,
         "Y": 0.0
        },
        "interpolation": 2
       }
      ]
     },
     "start": 0,
     "time": {
      "Points": [
       {
        "co": {
         "X": 1.0,
         "Y": 1.0
        },
        "interpolation": 2
       }
      ]
     },
     "volume": {
      "Points": [
       {
        "co": {
         "X": 1.0,
         "Y": 1.0
        },
        "interpolation": 2
       }
      ]
     },
     "wave_color": {
      "alpha": {
       "Points": [
        {
         "co": {
          "X": 1.0,
          "Y": 255.0
         },
         "handle_left": {
          "X": 0.5,
          "Y": 1.0
         },
         "handle_right": {
          "X": 0.5,
          "Y": 0.0
         },
         "handle_type": 0,
         "interpolation": 0
        }
       ]
      },
      "blue": {
       "Points": [
        {
         "co": {
          "X": 1.0,
          "Y": 255.0
         },
         "handle_left": {
          "X": 0.5,
          "Y": 1.0
         },
         "handle_right": {
          "X": 0.5,
          "Y": 0.0
         },
         "handle_type": 0,
         "interpolation": 0
        }
       ]
      },
      "green": {
       "Points": [
        {
         "co": {
          "X": 1.0,
          "Y": 123.0
         },
         "handle_left": {
          "X": 0.5,
          "Y": 1.0
         },
         "handle_right": {
          "X": 0.5,
          "Y": 0.0
         },
         "handle_type": 0,
         "interpolation": 0
        }
       ]
      },
      "red": {
       "Points": [
        {
         "co": {
          "X": 1.0,
          "Y": 0.0
         },
         "handle_left": {
          "X": 0.5,
          "Y": 1.0
         },
         "handle_right": {
          "X": 0.5,
          "Y": 0.0
         },
         "handle_type": 0,
         "interpolation": 0
        }
       ]
      }
     },
     "waveform": false,
     "file_id": "KZCD8EQ9G8",
     "title": "Crditos.jpg.png",
     "image": "thumbnail/KZCD8EQ9G8.png"
    }
   },
   {
    "type": "update",
    "key": [
     "effects",
     {
      "id": "AT3THIVCS4"
     }
    ],
    "value": {
     "id": "AT3THIVCS4",
     "layer": 1000000,
     "position": 109.63333333333334,
     "start": 0,
     "end": 3.566666666666667,
     "brightness": {
      "Points": [
       {
        "co": {
         "X": 1,
         "Y": 1
        },
        "handle_left": {
         "X": 0.5,
         "Y": 1
        },
        "handle_right": {
         "X": 0.5,
         "Y": 0
        },
        "handle_type": 0,
        "interpolation": 0
       },
       {
        "co": {
         "X": 108,
         "Y": -1
        },
        "handle_left": {
         "X": 0.5,
         "Y": 1
        },
        "handle_right": {
         "X": 0.5,
         "Y": 0
        },
        "handle_type": 0,
        "interpolation": 0
       }
      ]
     },
     "contrast": {
      "Points": [
       {
        "co": {
         "X": 1,
         "Y": 3
        },
        "interpolation": 2
       }
      ]
     }
    },
    "partial": false,
    "old_values": {
     "id": "AT3THIVCS4",
     "layer": 1000000,
     "title": "Transition",
     "type": "Mask",
     "position": 96.4,
     "start": 0,
     "end": 3.566666666666667,
     "brightness": {
      "Points": [
       {
        "co": {
         "X": 1,
         "Y": 1
        },
        "handle_left": {
         "X": 0.5,
         "Y": 1
        },
        "handle_right": {
         "X": 0.5,
         "Y": 0
        },
        "handle_type": 0,
        "interpolation": 0
       },
       {
        "co": {
         "X": 108,
         "Y": -1
        },
        "handle_left": {
         "X": 0.5,
         "Y": 1
        },
        "handle_right": {
         "X": 0.5,
         "Y": 0
        },
        "handle_type": 0,
        "interpolation": 0
       }
      ]
     },
     "contrast": {
      "Points": [
       {
        "co": {
         "X": 1,
         "Y": 3
        },
        "interpolation": 2
       }
      ]
     },
     "reader": {
      "acodec": "",
      "audio_bit_rate": 0,
      "audio_stream_index": -1,
      "audio_timebase": {
       "den": 1,
       "num": 1
      },
      "channel_layout": 4,
      "channels": 0,
      "display_ratio": {
       "den": 4,
       "num": 5
      },
      "duration": 3600.0,
      "file_size": "1658880",
      "fps": {
       "den": 1,
       "num": 30
      },
      "has_audio": false,
      "has_single_image": true,
      "has_video": true,
      "height": 576,
      "interlaced_frame": false,
      "metadata": {},
      "path": "@transitions/extra/barr_ripple_2.jpg",
      "pixel_format": -1,
      "pixel_ratio": {
       "den": 1,
       "num": 1
      },
      "sample_rate": 0,
      "top_field_first": true,
      "type": "QtImageReader",
      "vcodec": "",
      "video_bit_rate": 0,
      "video_length": "108000",
      "video_stream_index": -1,
      "video_timebase": {
       "den": 30,
       "num": 1
      },
      "width": 720
     },
     "replace_image": false
    }
   },
   {
    "type": "update",
    "key": [
     "effects",
     {
      "id": "OTVB3T8BEO"
     }
    ],
    "value": {
     "id": "OTVB3T8BEO",
     "layer": 1000000,
     "position": 64.6,
     "start": 0,
     "end": 3.433333333333333,
     "brightness": {
      "Points": [
       {
        "co": {
         "X": 1,
         "Y": 1
        },
        "handle_left": {
         "X": 0.5,
         "Y": 1
        },
        "handle_right": {
         "X": 0.5,
         "Y": 0
        },
        "handle_type": 0,
        "interpolation": 0
       },
       {
        "co": {
         "X": 104,
         "Y": -1
        },
        "handle_left": {
         "X": 0.5,
         "Y": 1
        },
        "handle_right": {
         "X": 0.5,
         "Y": 0
        },
        "handle_type": 0,
        "interpolation": 0
       }
      ]
     },
     "contrast": {
      "Points": [
       {
        "co": {
         "X": 1,
         "Y": 3
        },
        "interpolation": 2
       }
      ]
     }
    },
    "partial": false,
    "old_values": {
     "id": "OTVB3T8BEO",
     "layer": 1000000,
     "title": "Transition",
     "type": "Mask",
     "position": 64.6,
     "start": 0,
     "end": 8.833333333333334,
     "brightness": {
      "Points": [
       {
        "co": {
         "X": 1,
         "Y": 1
        },
        "handle_left": {
         "X": 0.5,
         "Y": 1
        },
        "handle_right": {
         "X": 0.5,
         "Y": 0
        },
        "handle_type": 0,
        "interpolation": 0
       },
       {
        "co": {
         "X": 266,
         "Y": -1
        },
        "handle_left": {
         "X": 0.5,
         "Y": 1
        },
        "handle_right": {
         "X": 0.5,
         "Y": 0
        },
        "handle_type": 0,
        "interpolation": 0
       }
      ]
     },
     "contrast": {
      "Points": [
       {
        "co": {
         "X": 1,
         "Y": 3
        },
        "interpolation": 2
       }
      ]
     },
     "reader": {
      "acodec": "",
      "audio_bit_rate": 0,
      "audio_stream_index": -1,
      "audio_timebase": {
       "den": 1,
       "num": 1
      },
      "channel_layout": 4,
      "channels": 0,
      "display_ratio": {
       "den": 4,
       "num": 5
      },
      "duration": 3600.0,
      "file_size": "1658880",
      "fps": {
       "den": 1,
       "num": 30
      },
      "has_audio": false,
      "has_single_image": true,
      "has_video": true,
      "height": 576,
      "interlaced_frame": false,
      "metadata": {},
      "path": "@transitions/extra/luminous_boxes_3.jpg",
      "pixel_format": -1,
      "pixel_ratio": {
       "den": 1,
       "num": 1
      },
      "sample_rate": 0,
      "top_field_first": true,
      "type": "QtImageReader",
      "vcodec": "",
      "video_bit_rate": 0,
      "video_length": "108000",
      "video_stream_index": -1,
      "video_timebase": {
       "den": 30,
       "num": 1
      },
      "width": 720
     },
     "replace_image": false
    }
   },
   {
    "type": "update",
    "key": [
     "clips",
     {
      "id": "T9NB8VBY75"
     }
    ],
    "value": {
     "id": "T9NB8VBY75",
     "layer": 1000000,
     "position": 47.7,
     "start": 0,
     "end": 10
    },
    "partial": false,
    "old_values": {
     "alpha": {
      "Points": [
       {
        "co": {
         "X": 1.0,
         "Y": 1.0
        },
        "interpolation": 2
       }
      ]
     },
     "anchor": 0,
     "channel_filter": {
      "Points": [
       {
        "co": {
         "X": 1.0,
         "Y": -1.0
        },
        "interpolation": 2
       }
      ]
     },
     "channel_mapping": {
      "Points": [
       {
        "co": {
         "X": 1.0,
         "Y": -1.0
        },
        "interpolation": 2
       }
      ]
     },
     "crop_height": {
      "Points": [
       {
        "co": {
         "X": 1.0,
         "Y": 1.0
        },
        "interpolation": 2
       }
      ]
     },
     "crop_width": {
      "Points": [
       {
        "co": {
         "X": 1.0,
         "Y": 1.0
        },
        "interpolation": 2
       }
      ]
     },
     "crop_x": {
      "Points": [
       {
        "co": {
         "X": 1.0,
         "Y": 0.0
        },
        "interpolation": 2
       }
      ]
     },
     "crop_y": {
      "Points": [
       {
        "co": {
         "X": 1.0,
         "Y": 0.0
        },
        "interpolation": 2
       }
      ]
     },
     "display": 0,
     "duration": 3600.0,
     "effects": [],
     "end": 10,
     "gravity": 4,
     "has_audio": {
      "Points": [
       {
        "co": {
         "X": 1.0,
         "Y": -1.0
        },
        "interpolation": 2
       }
      ]
     },
     "has_video": {
      "Points": [
       {
        "co": {
         "X": 1.0,
         "Y": -1.0
        },
        "interpolation": 2
       }
      ]
     },
     "id": "T9NB8VBY75",
     "layer": 1000000,
     "location_x": {
      "Points": [
       {
        "co": {
         "X": 1.0,
         "Y": 0.0
        },
        "interpolation": 2
       }
      ]
     },
     "location_y": {
      "Points": [
       {
        "co": {
         "X": 1.0,
         "Y": 0.0
        },
        "interpolation": 2
       }
      ]
     },
     "mixing": 0,
     "perspective_c1_x": {
      "Points": [
       {
        "co": {
         "X": 1.0,
         "Y": -1.0
        },
        "interpolation": 2
       }
      ]
     },
     "perspective_c1_y": {
      "Points": [
       {
        "co": {
         "X": 1.0,
         "Y": -1.0
        },
        "interpolation": 2
       }
      ]
     },
     "perspective_c2_x": {
      "Points": [
       {
        "co": {
         "X": 1.0,
         "Y": -1.0
        },
        "interpolation": 2
       }
      ]
     },
     "perspective_c2_y": {
      "Points": [
       {
        "co": {
         "X": 1.0,
         "Y": -1.0
        },
        "interpolation": 2
       }
      ]
     },
     "perspective_c3_x": {
      "Points": [
       {
        "co": {
         "X": 1.0,
         "Y": -1.0
        },
        "interpolation": 2
       }
      ]
     },
     "perspective_c3_y": {
      "Points": [
       {
        "co": {
         "X": 1.0,
         "Y": -1.0
        },
        "interpolation": 2
       }
      ]
     },
     "perspective_c4_x": {
      "Points": [
       {
        "co": {
         "X": 1.0,
         "Y": -1.0
        },
        "interpolation": 2
       }
      ]
     },
     "perspective_c4_y": {
      "Points": [
       {
        "co": {
         "X": 1.0,
         "Y": -1.0
        },
        "interpolation": 2
       }
      ]
     },
     "position": 73.3,
     "reader": {
      "acodec": "",
      "audio_bit_rate": 0,
      "audio_stream_index": -1,
      "audio_timebase": {
       "den": 1,
       "num": 1
      },
      "channel_layout": 4,
      "channels": 0,
      "display_ratio": {
       "den": 33,
       "num": 50
      },
      "duration": 3600.0,
      "file_size": "237600",
      "fps": {
       "den": 1,
       "num": 30
      },
      "has_audio": false,
      "has_single_image": true,
      "has_video": true,
      "height": 198,
      "interlaced_frame": false,
      "metadata": {},
      "path": "./Playa-de-Arealonga-300x198.jpg",
      "pixel_format": -1,
      "pixel_ratio": {
       "den": 1,
       "num": 1
      },
      "sample_rate": 0,
      "top_field_first": true,
      "type": "QtImageReader",
      "vcodec": "",
      "video_bit_rate": 0,
      "video_length": "108000",
      "video_stream_index": -1,
      "video_timebase": {
       "den": 30,
       "num": 1
      },
      "width": 300
     },
     "rotation": {
      "Points": [
       {
        "co": {
         "X": 1.0,
         "Y": 0.0
        },
        "interpolation": 2
       }
      ]
     },
     "scale": 1,
     "scale_x": {
      "Points": [
       {
        "co": {
         "X": 1.0,
         "Y": 1.0
        },
        "interpolation": 2
       }
      ]
     },
     "scale_y": {
      "Points": [
       {
        "co": {
         "X": 1.0,
         "Y": 1.0
        },
        "interpolation": 2
       }
      ]
     },
     "shear_x": {
      "Points": [
       {
        "co": {
         "X": 1.0,
         "Y": 0.0
        },
        "interpolation": 2
       }
      ]
     },
     "shear_y": {
      "Points": [
       {
        "co": {
         "X": 1.0,
         "Y": 0.0
        },
        "interpolation": 2
       }
      ]
     },
     "start": 0,
     "time": {
      "Points": [
       {
        "co": {
         "X": 1.0,
         "Y": 1.0
        },
        "interpolation": 2
       }
      ]
     },
     "volume": {
      "Points": [
       {
        "co": {
         "X": 1.0,
         "Y": 1.0
        },
        "interpolation": 2
       }
      ]
     },
     "wave_color": {
      "alpha": {
       "Points": [
        {
         "co": {
          "X": 1.0,
          "Y": 255.0
         },
         "handle_left": {
          "X": 0.5,
          "Y": 1.0
         },
         "handle_right": {
          "X": 0.5,
          "Y": 0.0
         },
         "handle_type": 0,
         "interpolation": 0
        }
       ]
      },
      "blue": {
       "Points": [
        {
         "co": {
          "X": 1.0,
          "Y": 255.0
         },
         "handle_left": {
          "X": 0.5,
          "Y": 1.0
         },
         "handle_right": {
          "X": 0.5,
          "Y": 0.0
         },
         "handle_type": 0,
         "interpolation": 0
        }
       ]
      },
      "green": {
       "Points": [
        {
         "co": {
          "X": 1.0,
          "Y": 123.0
         },
         "handle_left": {
          "X": 0.5,
          "Y": 1.0
         },
         "handle_right": {
          "X": 0.5,
          "Y": 0.0
         },
         "handle_type": 0,
         "interpolation": 0
        }
       ]
      },
      "red": {
       "Points": [
        {
         "co": {
          "X": 1.0,
          "Y": 0.0
         },
         "handle_left": {
          "X": 0.5,
          "Y": 1.0
         },
         "handle_right": {
          "X": 0.5,
          "Y": 0.0
         },
         "handle_type": 0,
         "interpolation": 0
        }
       ]
      }
     },
     "waveform": false,
     "file_id": "U7059MT4QL",
     "title": "Playa-de-Arealonga-300x198.jpg",
     "image": "thumbnail/U7059MT4QL.png"
    }
   },
   {
    "type": "update",
    "key": [
     "clips",
     {
      "id": "T9NB8VBY75"
     }
    ],
    "value": {
     "id": "T9NB8VBY75",
     "layer": 1000000,
     "position": 50.233333333333334,
     "start": 0,
     "end": 10
    },
    "partial": false,
    "old_values": {
     "alpha": {
      "Points": [
       {
        "co": {
         "X": 1.0,
         "Y": 1.0
        },
        "interpolation": 2
       }
      ]
     },
     "anchor": 0,
     "channel_filter": {
      "Points": [
       {
        "co": {
         "X": 1.0,
         "Y": -1.0
        },
        "interpolation": 2
       }
      ]
     },
     "channel_mapping": {
      "Points": [
       {
        "co": {
         "X": 1.0,
         "Y": -1.0
        },
        "interpolation": 2
       }
      ]
     },
     "crop_height": {
      "Points": [
       {
        "co": {
         "X": 1.0,
         "Y": 1.0
        },
        "interpolation": 2
       }
      ]
     },
     "crop_width": {
      "Points": [
       {
        "co": {
         "X": 1.0,
         "Y": 1.0
        },
        "interpolation": 2
       }
      ]
     },
     "crop_x": {
      "Points": [
       {
        "co": {
         "X": 1.0,
         "Y": 0.0
        },
        "interpolation": 2
       }
      ]
     },
     "crop_y": {
      "Points": [
       {
        "co": {
         "X": 1.0,
         "Y": 0.0
        },
        "interpolation": 2
       }
      ]
     },
     "display": 0,
     "duration": 3600.0,
     "effects": [],
     "end": 10,
     "gravity": 4,
     "has_audio": {
      "Points": [
       {
        "co": {
         "X": 1.0,
         "Y": -1.0
        },
        "interpolation": 2
       }
      ]
     },
     "has_video": {
      "Points": [
       {
        "co": {
         "X": 1.0,
         "Y": -1.0
        },
        "interpolation": 2
       }
      ]
     },
     "id": "T9NB8VBY75",
     "layer": 1000000,
     "location_x": {
      "Points": [
       {
        "co": {
         "X": 1.0,
         "Y": 0.0
        },
        "interpolation": 2
       }
      ]
     },
     "location_y": {
      "Points": [
       {
        "co": {
         "X": 1.0,
         "Y": 0.0
        },
        "interpolation": 2
       }
      ]
     },
     "mixing": 0,
     "perspective_c1_x": {
      "Points": [
       {
        "co": {
         "X": 1.0,
         "Y": -1.0
        },
        "interpolation": 2
       }
      ]
     },
     "perspective_c1_y": {
      "Points": [
       {
        "co": {
         "X": 1.0,
         "Y": -1.0
        },
        "interpolation": 2
       }
      ]
     },
     "perspective_c2_x": {
      "Points": [
       {
        "co": {
         "X": 1.0,
         "Y": -1.0
        },
        "interpolation": 2
       }
      ]
     },
     "perspective_c2_y": {
      "Points": [
       {
        "co": {
         "X": 1.0,
         "Y": -1.0
        },
        "interpolation": 2
       }
      ]
     },
     "perspective_c3_x": {
      "Points": [
       {
        "co": {
         "X": 1.0,
         "Y": -1.0
        },
        "interpolation": 2
       }
      ]
     },
     "perspective_c3_y": {
      "Points": [
       {
        "co": {
         "X": 1.0,
         "Y": -1.0
        },
        "interpolation": 2
       }
      ]
     },
     "perspective_c4_x": {
      "Points": [
       {
        "co": {
         "X": 1.0,
         "Y": -1.0
        },
        "interpolation": 2
       }
      ]
     },
     "perspective_c4_y": {
      "Points": [
       {
        "co": {
         "X": 1.0,
         "Y": -1.0
        },
        "interpolation": 2
       }
      ]
     },
     "position": 47.7,
     "reader": {
      "acodec": "",
      "audio_bit_rate": 0,
      "audio_stream_index": -1,
      "audio_timebase": {
       "den": 1,
       "num": 1
      },
      "channel_layout": 4,
      "channels": 0,
      "display_ratio": {
       "den": 33,
       "num": 50
      },
      "duration": 3600.0,
      "file_size": "237600",
      "fps": {
       "den": 1,
       "num": 30
      },
      "has_audio": false,
      "has_single_image": true,
      "has_video": true,
      "height": 198,
      "interlaced_frame": false,
      "metadata": {},
      "path": "./Playa-de-Arealonga-300x198.jpg",
      "pixel_format": -1,
      "pixel_ratio": {
       "den": 1,
       "num": 1
      },
      "sample_rate": 0,
      "top_field_first": true,
      "type": "QtImageReader",
      "vcodec": "",
      "video_bit_rate": 0,
      "video_length": "108000",
      "video_stream_index": -1,
      "video_timebase": {
       "den": 30,
       "num": 1
      },
      "width": 300
     },
     "rotation": {
      "Points": [
       {
        "co": {
         "X": 1.0,
         "Y": 0.0
        },
        "interpolation": 2
       }
      ]
     },
     "scale": 1,
     "scale_x": {
      "Points": [
       {
        "co": {
         "X": 1.0,
         "Y": 1.0
        },
        "interpolation": 2
       }
      ]
     },
     "scale_y": {
      "Points": [
       {
        "co": {
         "X": 1.0,
         "Y": 1.0
        },
        "interpolation": 2
       }
      ]
     },
     "shear_x": {
      "Points": [
       {
        "co": {
         "X": 1.0,
         "Y": 0.0
        },
        "interpolation": 2
       }
      ]
     },
     "shear_y": {
      "Points": [
       {
        "co": {
         "X": 1.0,
         "Y": 0.0
        },
        "interpolation": 2
       }
      ]
     },
     "start": 0,
     "time": {
      "Points": [
       {
        "co": {
         "X": 1.0,
         "Y": 1.0
        },
        "interpolation": 2
       }
      ]
     },
     "volume": {
      "Points": [
       {
        "co": {
         "X": 1.0,
         "Y": 1.0
        },
        "interpolation": 2
       }
      ]
     },
     "wave_color": {
      "alpha": {
       "Points": [
        {
         "co": {
          "X": 1.0,
          "Y": 255.0
         },
         "handle_left": {
          "X": 0.5,
          "Y": 1.0
         },
         "handle_right": {
          "X": 0.5,
          "Y": 0.0
         },
         "handle_type": 0,
         "interpolation": 0
        }
       ]
      },
      "blue": {
       "Points": [
        {
         "co": {
          "X": 1.0,
          "Y": 255.0
         },
         "handle_left": {
          "X": 0.5,
          "Y": 1.0
         },
         "handle_right": {
          "X": 0.5,
          "Y": 0.0
         },
         "handle_type": 0,
         "interpolation": 0
        }
       ]
      },
      "green": {
       "Points": [
        {
         "co": {
          "X": 1.0,
          "Y": 123.0
         },
         "handle_left": {
          "X": 0.5,
          "Y": 1.0
         },
         "handle_right": {
          "X": 0.5,
          "Y": 0.0
         },
         "handle_type": 0,
         "interpolation": 0
        }
       ]
      },
      "red": {
       "Points": [
        {
         "co": {
          "X": 1.0,
          "Y": 0.0
         },
         "handle_left": {
          "X": 0.5,
          "Y": 1.0
         },
         "handle_right": {
          "X": 0.5,
          "Y": 0.0
         },
         "handle_type": 0,
         "interpolation": 0
        }
       ]
      }
     },
     "waveform": false,
     "file_id": "U7059MT4QL",
     "title": "Playa-de-Arealonga-300x198.jpg",
     "image": "thumbnail/U7059MT4QL.png"
    }
   },
   {
    "type": "update",
    "key": [
     "effects",
     {
      "id": "CM0OJTNUYM"
     }
    ],
    "value": {
     "id": "CM0OJTNUYM",
     "layer": 1000000,
     "position": 50.233333333333334,
     "start": 0,
     "end": 2.5293334960937415,
     "brightness": {
      "Points": [
       {
        "co": {
         "X": 1,
         "Y": 1
        },
        "handle_left": {
         "X": 0.5,
         "Y": 1
        },
        "handle_right": {
         "X": 0.5,
         "Y": 0
        },
        "handle_type": 0,
        "interpolation": 0
       },
       {
        "co": {
         "X": 77,
         "Y": -1
        },
        "handle_left": {
         "X": 0.5,
         "Y": 1
        },
        "handle_right": {
         "X": 0.5,
         "Y": 0
        },
        "handle_type": 0,
        "interpolation": 0
       }
      ]
     },
     "contrast": {
      "Points": [
       {
        "co": {
         "X": 1,
         "Y": 3
        },
        "interpolation": 2
       }
      ]
     }
    },
    "partial": false,
    "old_values": {
     "id": "CM0OJTNUYM",
     "layer": 1000000,
     "title": "Transition",
     "type": "Mask",
     "position": 47.70000000000001,
     "start": 0,
     "end": 2.5293334960937415,
     "brightness": {
      "Points": [
       {
        "co": {
         "X": 1.0,
         "Y": 1.0
        },
        "handle_left": {
         "X": 0.5,
         "Y": 1.0
        },
        "handle_right": {
         "X": 0.5,
         "Y": 0.0
        },
        "handle_type": 0,
        "interpolation": 0
       },
       {
        "co": {
         "X": 77.0,
         "Y": -1.0
        },
        "handle_left": {
         "X": 0.5,
         "Y": 1.0
        },
        "handle_right": {
         "X": 0.5,
         "Y": 0.0
        },
        "handle_type": 0,
        "interpolation": 0
       }
      ]
     },
     "contrast": {
      "Points": [
       {
        "co": {
         "X": 1.0,
         "Y": 3.0
        },
        "interpolation": 2
       }
      ]
     },
     "reader": {
      "acodec": "",
      "audio_bit_rate": 0,
      "audio_stream_index": -1,
      "audio_timebase": {
       "den": 1,
       "num": 1
      },
      "channel_layout": 4,
      "channels": 0,
      "display_ratio": {
       "den": 4,
       "num": 5
      },
      "duration": 3600.0,
      "file_size": "1658880",
      "fps": {
       "den": 1,
       "num": 30
      },
      "has_audio": false,
      "has_single_image": true,
      "has_video": true,
      "height": 576,
      "interlaced_frame": false,
      "metadata": {},
      "path": "@transitions/common/fade.svg",
      "pixel_format": -1,
      "pixel_ratio": {
       "den": 1,
       "num": 1
      },
      "sample_rate": 0,
      "top_field_first": true,
      "type": "QtImageReader",
      "vcodec": "",
      "video_bit_rate": 0,
      "video_length": "108000",
      "video_stream_index": -1,
      "video_timebase": {
       "den": 30,
       "num": 1
      },
      "width": 720
     },
     "replace_image": false
    }
   },
   {
    "type": "update",
    "key": [
     "effects",
     {
      "id": "CM0OJTNUYM"
     }
    ],
    "value": {
     "id": "CM0OJTNUYM",
     "layer": 1000000,
     "position": 50.233333333333334,
     "start": 0,
     "end": 3.8666666666666667,
     "brightness": {
      "Points": [
       {
        "co": {
         "X": 1,
         "Y": 1
        },
        "handle_left": {
         "X": 0.5,
         "Y": 1
        },
        "handle_right": {
         "X": 0.5,
         "Y": 0
        },
        "handle_type": 0,
        "interpolation": 0
       },
       {
        "co": {
         "X": 117,
         "Y": -1
        },
        "handle_left": {
         "X": 0.5,
         "Y": 1
        },
        "handle_right": {
         "X": 0.5,
         "Y": 0
        },
        "handle_type": 0,
        "interpolation": 0
       }
      ]
     },
     "contrast": {
      "Points": [
       {
        "co": {
         "X": 1,
         "Y": 3
        },
        "interpolation": 2
       }
      ]
     }
    },
    "partial": false,
    "old_values": {
     "id": "CM0OJTNUYM",
     "layer": 1000000,
     "title": "Transition",
     "type": "Mask",
     "position": 50.233333333333334,
     "start": 0,
     "end": 2.5293334960937415,
     "brightness": {
      "Points": [
       {
        "co": {
         "X": 1,
         "Y": 1
        },
        "handle_left": {
         "X": 0.5,
         "Y": 1
        },
        "handle_right": {
         "X": 0.5,
         "Y": 0
        },
        "handle_type": 0,
        "interpolation": 0
       },
       {
        "co": {
         "X": 77,
         "Y": -1
        },
        "handle_left": {
         "X": 0.5,
         "Y": 1
        },
        "handle_right": {
         "X": 0.5,
         "Y": 0
        },
        "handle_type": 0,
        "interpolation": 0
       }
      ]
     },
     "contrast": {
      "Points": [
       {
        "co": {
         "X": 1,
         "Y": 3
        },
        "interpolation": 2
       }
      ]
     },
     "reader": {
      "acodec": "",
      "audio_bit_rate": 0,
      "audio_stream_index": -1,
      "audio_timebase": {
       "den": 1,
       "num": 1
      },
      "channel_layout": 4,
      "channels": 0,
      "display_ratio": {
       "den": 4,
       "num": 5
      },
      "duration": 3600.0,
      "file_size": "1658880",
      "fps": {
       "den": 1,
       "num": 30
      },
      "has_audio": false,
      "has_single_image": true,
      "has_video": true,
      "height": 576,
      "interlaced_frame": false,
      "metadata": {},
      "path": "@transitions/common/fade.svg",
      "pixel_format": -1,
      "pixel_ratio": {
       "den": 1,
       "num": 1
      },
      "sample_rate": 0,
      "top_field_first": true,
      "type": "QtImageReader",
      "vcodec": "",
      "video_bit_rate": 0,
      "video_length": "108000",
      "video_stream_index": -1,
      "video_timebase": {
       "den": 30,
       "num": 1
      },
      "width": 720
     },
     "replace_image": false
    }
   },
   {
    "type": "update",
    "key": [
     "effects",
     {
      "id": "OTVB3T8BEO"
     }
    ],
    "value": {
     "id": "OTVB3T8BEO",
     "layer": 1000000,
     "position": 60.233333333333334,
     "start": 0,
     "end": 3.433333333333333,
     "brightness": {
      "Points": [
       {
        "co": {
         "X": 1,
         "Y": 1
        },
        "handle_left": {
         "X": 0.5,
         "Y": 1
        },
        "handle_right": {
         "X": 0.5,
         "Y": 0
        },
        "handle_type": 0,
        "interpolation": 0
       },
       {
        "co": {
         "X": 104,
         "Y": -1
        },
        "handle_left": {
         "X": 0.5,
         "Y": 1
        },
        "handle_right": {
         "X": 0.5,
         "Y": 0
        },
        "handle_type": 0,
        "interpolation": 0
       }
      ]
     },
     "contrast": {
      "Points": [
       {
        "co": {
         "X": 1,
         "Y": 3
        },
        "interpolation": 2
       }
      ]
     }
    },
    "partial": false,
    "old_values": {
     "id": "OTVB3T8BEO",
     "layer": 1000000,
     "title": "Transition",
     "type": "Mask",
     "position": 64.6,
     "start": 0,
     "end": 3.433333333333333,
     "brightness": {
      "Points": [
       {
        "co": {
         "X": 1,
         "Y": 1
        },
        "handle_left": {
         "X": 0.5,
         "Y": 1
        },
        "handle_right": {
         "X": 0.5,
         "Y": 0
        },
        "handle_type": 0,
        "interpolation": 0
       },
       {
        "co": {
         "X": 104,
         "Y": -1
        },
        "handle_left": {
         "X": 0.5,
         "Y": 1
        },
        "handle_right": {
         "X": 0.5,
         "Y": 0
        },
        "handle_type": 0,
        "interpolation": 0
       }
      ]
     },
     "contrast": {
      "Points": [
       {
        "co": {
         "X": 1,
         "Y": 3
        },
        "interpolation": 2
       }
      ]
     },
     "reader": {
      "acodec": "",
      "audio_bit_rate": 0,
      "audio_stream_index": -1,
      "audio_timebase": {
       "den": 1,
       "num": 1
      },
      "channel_layout": 4,
      "channels": 0,
      "display_ratio": {
       "den": 4,
       "num": 5
      },
      "duration": 3600.0,
      "file_size": "1658880",
      "fps": {
       "den": 1,
       "num": 30
      },
      "has_audio": false,
      "has_single_image": true,
      "has_video": true,
      "height": 576,
      "interlaced_frame": false,
      "metadata": {},
      "path": "@transitions/extra/luminous_boxes_3.jpg",
      "pixel_format": -1,
      "pixel_ratio": {
       "den": 1,
       "num": 1
      },
      "sample_rate": 0,
      "top_field_first": true,
      "type": "QtImageReader",
      "vcodec": "",
      "video_bit_rate": 0,
      "video_length": "108000",
      "video_stream_index": -1,
      "video_timebase": {
       "den": 30,
       "num": 1
      },
      "width": 720
     },
     "replace_image": false
    }
   },
   {
    "type": "insert",
    "key": [
     "clips"
    ],
    "value": {
     "alpha": {
      "Points": [
       {
        "co": {
         "X": 1.0,
         "Y": 1.0
        },
        "interpolation": 2
       }
      ]
     },
     "anchor": 0,
     "channel_filter": {
      "Points": [
       {
        "co": {
         "X": 1.0,
         "Y": -1.0
        },
        "interpolation": 2
       }
      ]
     },
     "channel_mapping": {
      "Points": [
       {
        "co": {
         "X": 1.0,
         "Y": -1.0
        },
        "interpolation": 2
       }
      ]
     },
     "crop_height": {
      "Points": [
       {
        "co": {
         "X": 1.0,
         "Y": 1.0
        },
        "interpolation": 2
       }
      ]
     },
     "crop_width": {
      "Points": [
       {
        "co": {
         "X": 1.0,
         "Y": 1.0
        },
        "interpolation": 2
       }
      ]
     },
     "crop_x": {
      "Points": [
       {
        "co": {
         "X": 1.0,
         "Y": 0.0
        },
        "interpolation": 2
       }
      ]
     },
     "crop_y": {
      "Points": [
       {
        "co": {
         "X": 1.0,
         "Y": 0.0
        },
        "interpolation": 2
       }
      ]
     },
     "display": 0,
     "duration": 10.426666259765625,
     "effects": [],
     "end": 10.426666259765625,
     "gravity": 4,
     "has_audio": {
      "Points": [
       {
        "co": {
         "X": 1.0,
         "Y": -1.0
        },
        "interpolation": 2
       }
      ]
     },
     "has_video": {
      "Points": [
       {
        "co": {
         "X": 1.0,
         "Y": -1.0
        },
        "interpolation": 2
       }
      ]
     },
     "id": "XGNY5V5HGC",
     "layer": 1000000,
     "location_x": {
      "Points": [
       {
        "co": {
         "X": 1.0,
         "Y": 0.0
        },
        "interpolation": 2
       }
      ]
     },
     "location_y": {
      "Points": [
       {
        "co": {
         "X": 1.0,
         "Y": 0.0
        },
        "interpolation": 2
       }
      ]
     },
     "mixing": 0,
     "perspective_c1_x": {
      "Points": [
       {
        "co": {
         "X": 1.0,
         "Y": -1.0
        },
        "interpolation": 2
       }
      ]
     },
     "perspective_c1_y": {
      "Points": [
       {
        "co": {
         "X": 1.0,
         "Y": -1.0
        },
        "interpolation": 2
       }
      ]
     },
     "perspective_c2_x": {
      "Points": [
       {
        "co": {
         "X": 1.0,
         "Y": -1.0
        },
        "interpolation": 2
       }
      ]
     },
     "perspective_c2_y": {
      "Points": [
       {
        "co": {
         "X": 1.0,
         "Y": -1.0
        },
        "interpolation": 2
       }
      ]
     },
     "perspective_c3_x": {
      "Points": [
       {
        "co": {
         "X": 1.0,
         "Y": -1.0
        },
        "interpolation": 2
       }
      ]
     },
     "perspective_c3_y": {
      "Points": [
       {
        "co": {
         "X": 1.0,
         "Y": -1.0
        },
        "interpolation": 2
       }
      ]
     },
     "perspective_c4_x": {
      "Points": [
       {
        "co": {
         "X": 1.0,
         "Y": -1.0
        },
        "interpolation": 2
       }
      ]
     },
     "perspective_c4_y": {
      "Points": [
       {
        "co": {
         "X": 1.0,
         "Y": -1.0
        },
        "interpolation": 2
       }
      ]
     },
     "position": 60.233333333333334,
     "reader": {
      "acodec": "aac",
      "audio_bit_rate": 2277,
      "audio_stream_index": 1,
      "audio_timebase": {
       "den": 48000,
       "num": 1
      },
      "channel_layout": 3,
      "channels": 2,
      "display_ratio": {
       "den": 9,
       "num": 16
      },
      "duration": 10.426666259765625,
      "file_size": "6468057",
      "fps": {
       "den": 52,
       "num": 1305
      },
      "has_audio": true,
      "has_single_image": false,
      "has_video": true,
      "height": 576,
      "interlaced_frame": false,
      "metadata": {
       "compatible_brands": "isomiso2avc1mp41",
       "encoder": "Lavf58.20.100",
       "handler_name": "SoundHandler",
       "language": "und",
       "major_brand": "isom",
       "minor_version": "512"
      },
      "path": "./AerolongaVideo.mp4",
      "pixel_format": 0,
      "pixel_ratio": {
       "den": 1,
       "num": 1
      },
      "sample_rate": 48000,
      "top_field_first": true,
      "type": "FFmpegReader",
      "vcodec": "h264",
      "video_bit_rate": 620318,
      "video_length": "261",
      "video_stream_index": 0,
      "video_timebase": {
       "den": 12800,
       "num": 1
      },
      "width": 1024
     },
     "rotation": {
      "Points": [
       {
        "co": {
         "X": 1.0,
         "Y": 0.0
        },
        "interpolation": 2
       }
      ]
     },
     "scale": 1,
     "scale_x": {
      "Points": [
       {
        "co": {
         "X": 1.0,
         "Y": 1.0
        },
        "interpolation": 2
       }
      ]
     },
     "scale_y": {
      "Points": [
       {
        "co": {
         "X": 1.0,
         "Y": 1.0
        },
        "interpolation": 2
       }
      ]
     },
     "shear_x": {
      "Points": [
       {
        "co": {
         "X": 1.0,
         "Y": 0.0
        },
        "interpolation": 2
       }
      ]
     },
     "shear_y": {
      "Points": [
       {
        "co": {
         "X": 1.0,
         "Y": 0.0
        },
        "interpolation": 2
       }
      ]
     },
     "start": 0,
     "time": {
      "Points": [
       {
        "co": {
         "X": 1.0,
         "Y": 1.0
        },
        "interpolation": 2
       }
      ]
     },
     "volume": {
      "Points": [
       {
        "co": {
         "X": 1.0,
         "Y": 1.0
        },
        "interpolation": 2
       }
      ]
     },
     "wave_color": {
      "alpha": {
       "Points": [
        {
         "co": {
          "X": 1.0,
          "Y": 255.0
         },
         "handle_left": {
          "X": 0.5,
          "Y": 1.0
         },
         "handle_right": {
          "X": 0.5,
          "Y": 0.0
         },
         "handle_type": 0,
         "interpolation": 0
        }
       ]
      },
      "blue": {
       "Points": [
        {
         "co": {
          "X": 1.0,
          "Y": 255.0
         },
         "handle_left": {
          "X": 0.5,
          "Y": 1.0
         },
         "handle_right": {
          "X": 0.5,
          "Y": 0.0
         },
         "handle_type": 0,
         "interpolation": 0
        }
       ]
      },
      "green": {
       "Points": [
        {
         "co": {
          "X": 1.0,
          "Y": 123.0
         },
         "handle_left": {
          "X": 0.5,
          "Y": 1.0
         },
         "handle_right": {
          "X": 0.5,
          "Y": 0.0
         },
         "handle_type": 0,
         "interpolation": 0
        }
       ]
      },
      "red": {
       "Points": [
        {
         "co": {
          "X": 1.0,
          "Y": 0.0
         },
         "handle_left": {
          "X": 0.5,
          "Y": 1.0
         },
         "handle_right": {
          "X": 0.5,
          "Y": 0.0
         },
         "handle_type": 0,
         "interpolation": 0
        }
       ]
      }
     },
     "waveform": false,
     "file_id": "SIE0SNA01O",
     "title": "AerolongaVideo.mp4",
     "image": "thumbnail/SIE0SNA01O.png"
    },
    "partial": false,
    "old_values": [
     {
      "alpha": {
       "Points": [
        {
         "co": {
          "X": 1.0,
          "Y": 1.0
         },
         "interpolation": 2
        }
       ]
      },
      "anchor": 0,
      "channel_filter": {
       "Points": [
        {
         "co": {
          "X": 1.0,
          "Y": -1.0
         },
         "interpolation": 2
        }
       ]
      },
      "channel_mapping": {
       "Points": [
        {
         "co": {
          "X": 1.0,
          "Y": -1.0
         },
         "interpolation": 2
        }
       ]
      },
      "crop_height": {
       "Points": [
        {
         "co": {
          "X": 1.0,
          "Y": 1.0
         },
         "interpolation": 2
        }
       ]
      },
      "crop_width": {
       "Points": [
        {
         "co": {
          "X": 1.0,
          "Y": 1.0
         },
         "interpolation": 2
        }
       ]
      },
      "crop_x": {
       "Points": [
        {
         "co": {
          "X": 1.0,
          "Y": 0.0
         },
         "interpolation": 2
        }
       ]
      },
      "crop_y": {
       "Points": [
        {
         "co": {
          "X": 1.0,
          "Y": 0.0
         },
         "interpolation": 2
        }
       ]
      },
      "display": 0,
      "duration": 3600.0,
      "effects": [],
      "end": 9.7,
      "gravity": 4,
      "has_audio": {
       "Points": [
        {
         "co": {
          "X": 1.0,
          "Y": -1.0
         },
         "interpolation": 2
        }
       ]
      },
      "has_video": {
       "Points": [
        {
         "co": {
          "X": 1.0,
          "Y": -1.0
         },
         "interpolation": 2
        }
       ]
      },
      "id": "K9WNY1TF6W",
      "layer": 1000000,
      "location_x": {
       "Points": [
        {
         "co": {
          "X": 1.0,
          "Y": 0.0
         },
         "interpolation": 2
        }
       ]
      },
      "location_y": {
       "Points": [
        {
         "co": {
          "X": 1.0,
          "Y": 0.0
         },
         "interpolation": 2
        }
       ]
      },
      "mixing": 0,
      "perspective_c1_x": {
       "Points": [
        {
         "co": {
          "X": 1.0,
          "Y": -1.0
         },
         "interpolation": 2
        }
       ]
      },
      "perspective_c1_y": {
       "Points": [
        {
         "co": {
          "X": 1.0,
          "Y": -1.0
         },
         "interpolation": 2
        }
       ]
      },
      "perspective_c2_x": {
       "Points": [
        {
         "co": {
          "X": 1.0,
          "Y": -1.0
         },
         "interpolation": 2
        }
       ]
      },
      "perspective_c2_y": {
       "Points": [
        {
         "co": {
          "X": 1.0,
          "Y": -1.0
         },
         "interpolation": 2
        }
       ]
      },
      "perspective_c3_x": {
       "Points": [
        {
         "co": {
          "X": 1.0,
          "Y": -1.0
         },
         "interpolation": 2
        }
       ]
      },
      "perspective_c3_y": {
       "Points": [
        {
         "co": {
          "X": 1.0,
          "Y": -1.0
         },
         "interpolation": 2
        }
       ]
      },
      "perspective_c4_x": {
       "Points": [
        {
         "co": {
          "X": 1.0,
          "Y": -1.0
         },
         "interpolation": 2
        }
       ]
      },
      "perspective_c4_y": {
       "Points": [
        {
         "co": {
          "X": 1.0,
          "Y": -1.0
         },
         "interpolation": 2
        }
       ]
      },
      "position": 0,
      "reader": {
       "acodec": "",
       "audio_bit_rate": 0,
       "audio_stream_index": -1,
       "audio_timebase": {
        "den": 1,
        "num": 1
       },
       "channel_layout": 4,
       "channels": 0,
       "display_ratio": {
        "den": 64,
        "num": 135
       },
       "duration": 3600.0,
       "file_size": "1693440",
       "fps": {
        "den": 1,
        "num": 30
       },
       "has_audio": false,
       "has_single_image": true,
       "has_video": true,
       "height": 448,
       "interlaced_frame": false,
       "metadata": {},
       "path": "./Portada.jpg",
       "pixel_format": -1,
       "pixel_ratio": {
        "den": 1,
        "num": 1
       },
       "sample_rate": 0,
       "top_field_first": true,
       "type": "QtImageReader",
       "vcodec": "",
       "video_bit_rate": 0,
       "video_length": "108000",
       "video_stream_index": -1,
       "video_timebase": {
        "den": 30,
        "num": 1
       },
       "width": 945
      },
      "rotation": {
       "Points": [
        {
         "co": {
          "X": 1.0,
          "Y": 0.0
         },
         "interpolation": 2
        }
       ]
      },
      "scale": 1,
      "scale_x": {
       "Points": [
        {
         "co": {
          "X": 1.0,
          "Y": 1.0
         },
         "interpolation": 2
        }
       ]
      },
      "scale_y": {
       "Points": [
        {
         "co": {
          "X": 1.0,
          "Y": 1.0
         },
         "interpolation": 2
        }
       ]
      },
      "shear_x": {
       "Points": [
        {
         "co": {
          "X": 1.0,
          "Y": 0.0
         },
         "interpolation": 2
        }
       ]
      },
      "shear_y": {
       "Points": [
        {
         "co": {
          "X": 1.0,
          "Y": 0.0
         },
         "interpolation": 2
        }
       ]
      },
      "start": 0,
      "time": {
       "Points": [
        {
         "co": {
          "X": 1.0,
          "Y": 1.0
         },
         "interpolation": 2
        }
       ]
      },
      "volume": {
       "Points": [
        {
         "co": {
          "X": 1.0,
          "Y": 1.0
         },
         "interpolation": 2
        }
       ]
      },
      "wave_color": {
       "alpha": {
        "Points": [
         {
          "co": {
           "X": 1.0,
           "Y": 255.0
          },
          "handle_left": {
           "X": 0.5,
           "Y": 1.0
          },
          "handle_right": {
           "X": 0.5,
           "Y": 0.0
          },
          "handle_type": 0,
          "interpolation": 0
         }
        ]
       },
       "blue": {
        "Points": [
         {
          "co": {
           "X": 1.0,
           "Y": 255.0
          },
          "handle_left": {
           "X": 0.5,
           "Y": 1.0
          },
          "handle_right": {
           "X": 0.5,
           "Y": 0.0
          },
          "handle_type": 0,
          "interpolation": 0
         }
        ]
       },
       "green": {
        "Points": [
         {
          "co": {
           "X": 1.0,
           "Y": 123.0
          },
          "handle_left": {
           "X": 0.5,
           "Y": 1.0
          },
          "handle_right": {
           "X": 0.5,
           "Y": 0.0
          },
          "handle_type": 0,
          "interpolation": 0
         }
        ]
       },
       "red": {
        "Points": [
         {
          "co": {
           "X": 1.0,
           "Y": 0.0
          },
          "handle_left": {
           "X": 0.5,
           "Y": 1.0
          },
          "handle_right": {
           "X": 0.5,
           "Y": 0.0
          },
          "handle_type": 0,
          "interpolation": 0
         }
        ]
       }
      },
      "waveform": false,
      "file_id": "7KNKIPTI1V",
      "title": "Portada.jpg",
      "image": "thumbnail/7KNKIPTI1V.png"
     },
     {
      "alpha": {
       "Points": [
        {
         "co": {
          "X": 1.0,
          "Y": 1.0
         },
         "interpolation": 2
        }
       ]
      },
      "anchor": 0,
      "channel_filter": {
       "Points": [
        {
         "co": {
          "X": 1.0,
          "Y": -1.0
         },
         "interpolation": 2
        }
       ]
      },
      "channel_mapping": {
       "Points": [
        {
         "co": {
          "X": 1.0,
          "Y": -1.0
         },
         "interpolation": 2
        }
       ]
      },
      "crop_height": {
       "Points": [
        {
         "co": {
          "X": 1.0,
          "Y": 1.0
         },
         "interpolation": 2
        }
       ]
      },
      "crop_width": {
       "Points": [
        {
         "co": {
          "X": 1.0,
          "Y": 1.0
         },
         "interpolation": 2
        }
       ]
      },
      "crop_x": {
       "Points": [
        {
         "co": {
          "X": 1.0,
          "Y": 0.0
         },
         "interpolation": 2
        }
       ]
      },
      "crop_y": {
       "Points": [
        {
         "co": {
          "X": 1.0,
          "Y": 0.0
         },
         "interpolation": 2
        }
       ]
      },
      "display": 0,
      "duration": 3600.0,
      "effects": [],
      "end": 7.9,
      "gravity": 4,
      "has_audio": {
       "Points": [
        {
         "co": {
          "X": 1.0,
          "Y": -1.0
         },
         "interpolation": 2
        }
       ]
      },
      "has_video": {
       "Points": [
        {
         "co": {
          "X": 1.0,
          "Y": -1.0
         },
         "interpolation": 2
        }
       ]
      },
      "id": "6H5ASCXTT6",
      "layer": 1000000,
      "location_x": {
       "Points": [
        {
         "co": {
          "X": 1.0,
          "Y": 0.0
         },
         "interpolation": 2
        }
       ]
      },
      "location_y": {
       "Points": [
        {
         "co": {
          "X": 1.0,
          "Y": 0.0
         },
         "interpolation": 2
        }
       ]
      },
      "mixing": 0,
      "perspective_c1_x": {
       "Points": [
        {
         "co": {
          "X": 1.0,
          "Y": -1.0
         },
         "interpolation": 2
        }
       ]
      },
      "perspective_c1_y": {
       "Points": [
        {
         "co": {
          "X": 1.0,
          "Y": -1.0
         },
         "interpolation": 2
        }
       ]
      },
      "perspective_c2_x": {
       "Points": [
        {
         "co": {
          "X": 1.0,
          "Y": -1.0
         },
         "interpolation": 2
        }
       ]
      },
      "perspective_c2_y": {
       "Points": [
        {
         "co": {
          "X": 1.0,
          "Y": -1.0
         },
         "interpolation": 2
        }
       ]
      },
      "perspective_c3_x": {
       "Points": [
        {
         "co": {
          "X": 1.0,
          "Y": -1.0
         },
         "interpolation": 2
        }
       ]
      },
      "perspective_c3_y": {
       "Points": [
        {
         "co": {
          "X": 1.0,
          "Y": -1.0
         },
         "interpolation": 2
        }
       ]
      },
      "perspective_c4_x": {
       "Points": [
        {
         "co": {
          "X": 1.0,
          "Y": -1.0
         },
         "interpolation": 2
        }
       ]
      },
      "perspective_c4_y": {
       "Points": [
        {
         "co": {
          "X": 1.0,
          "Y": -1.0
         },
         "interpolation": 2
        }
       ]
      },
      "position": 9.700000000000001,
      "reader": {
       "acodec": "",
       "audio_bit_rate": 0,
       "audio_stream_index": -1,
       "audio_timebase": {
        "den": 1,
        "num": 1
       },
       "channel_layout": 4,
       "channels": 0,
       "display_ratio": {
        "den": 600,
        "num": 487
       },
       "duration": 3600.0,
       "file_size": "4675200",
       "fps": {
        "den": 1,
        "num": 30
       },
       "has_audio": false,
       "has_single_image": true,
       "has_video": true,
       "height": 1200,
       "interlaced_frame": false,
       "metadata": {},
       "path": "./mapa.jpg",
       "pixel_format": -1,
       "pixel_ratio": {
        "den": 1,
        "num": 1
       },
       "sample_rate": 0,
       "top_field_first": true,
       "type": "QtImageReader",
       "vcodec": "",
       "video_bit_rate": 0,
       "video_length": "108000",
       "video_stream_index": -1,
       "video_timebase": {
        "den": 30,
        "num": 1
       },
       "width": 974
      },
      "rotation": {
       "Points": [
        {
         "co": {
          "X": 1.0,
          "Y": 0.0
         },
         "interpolation": 2
        }
       ]
      },
      "scale": 1,
      "scale_x": {
       "Points": [
        {
         "co": {
          "X": 1.0,
          "Y": 1.0
         },
         "interpolation": 2
        }
       ]
      },
      "scale_y": {
       "Points": [
        {
         "co": {
          "X": 1.0,
          "Y": 1.0
         },
         "interpolation": 2
        }
       ]
      },
      "shear_x": {
       "Points": [
        {
         "co": {
          "X": 1.0,
          "Y": 0.0
         },
         "interpolation": 2
        }
       ]
      },
      "shear_y": {
       "Points": [
        {
         "co": {
          "X": 1.0,
          "Y": 0.0
         },
         "interpolation": 2
        }
       ]
      },
      "start": 0,
      "time": {
       "Points": [
        {
         "co": {
          "X": 1.0,
          "Y": 1.0
         },
         "interpolation": 2
        }
       ]
      },
      "volume": {
       "Points": [
        {
         "co": {
          "X": 1.0,
          "Y": 1.0
         },
         "interpolation": 2
        }
       ]
      },
      "wave_color": {
       "alpha": {
        "Points": [
         {
          "co": {
           "X": 1.0,
           "Y": 255.0
          },
          "handle_left": {
           "X": 0.5,
           "Y": 1.0
          },
          "handle_right": {
           "X": 0.5,
           "Y": 0.0
          },
          "handle_type": 0,
          "interpolation": 0
         }
        ]
       },
       "blue": {
        "Points": [
         {
          "co": {
           "X": 1.0,
           "Y": 255.0
          },
          "handle_left": {
           "X": 0.5,
           "Y": 1.0
          },
          "handle_right": {
           "X": 0.5,
           "Y": 0.0
          },
          "handle_type": 0,
          "interpolation": 0
         }
        ]
       },
       "green": {
        "Points": [
         {
          "co": {
           "X": 1.0,
           "Y": 123.0
          },
          "handle_left": {
           "X": 0.5,
           "Y": 1.0
          },
          "handle_right": {
           "X": 0.5,
           "Y": 0.0
          },
          "handle_type": 0,
          "interpolation": 0
         }
        ]
       },
       "red": {
        "Points": [
         {
          "co": {
           "X": 1.0,
           "Y": 0.0
          },
          "handle_left": {
           "X": 0.5,
           "Y": 1.0
          },
          "handle_right": {
           "X": 0.5,
           "Y": 0.0
          },
          "handle_type": 0,
          "interpolation": 0
         }
        ]
       }
      },
      "waveform": false,
      "file_id": "3CEE6QW14U",
      "title": "mapa.jpg",
      "image": "thumbnail/3CEE6QW14U.png"
     },
     {
      "alpha": {
       "Points": [
        {
         "co": {
          "X": 1.0,
          "Y": 1.0
         },
         "interpolation": 2
        }
       ]
      },
      "anchor": 0,
      "channel_filter": {
       "Points": [
        {
         "co": {
          "X": 1.0,
          "Y": -1.0
         },
         "interpolation": 2
        }
       ]
      },
      "channel_mapping": {
       "Points": [
        {
         "co": {
          "X": 1.0,
          "Y": -1.0
         },
         "interpolation": 2
        }
       ]
      },
      "crop_height": {
       "Points": [
        {
         "co": {
          "X": 1.0,
          "Y": 1.0
         },
         "interpolation": 2
        }
       ]
      },
      "crop_width": {
       "Points": [
        {
         "co": {
          "X": 1.0,
          "Y": 1.0
         },
         "interpolation": 2
        }
       ]
      },
      "crop_x": {
       "Points": [
        {
         "co": {
          "X": 1.0,
          "Y": 0.0
         },
         "interpolation": 2
        }
       ]
      },
      "crop_y": {
       "Points": [
        {
         "co": {
          "X": 1.0,
          "Y": 0.0
         },
         "interpolation": 2
        }
       ]
      },
      "display": 0,
      "duration": 3600.0,
      "effects": [],
      "end": 10,
      "gravity": 4,
      "has_audio": {
       "Points": [
        {
         "co": {
          "X": 1.0,
          "Y": -1.0
         },
         "interpolation": 2
        }
       ]
      },
      "has_video": {
       "Points": [
        {
         "co": {
          "X": 1.0,
          "Y": -1.0
         },
         "interpolation": 2
        }
       ]
      },
      "id": "SBRYWH6ZFA",
      "layer": 1000000,
      "location_x": {
       "Points": [
        {
         "co": {
          "X": 1.0,
          "Y": 0.0
         },
         "interpolation": 2
        }
       ]
      },
      "location_y": {
       "Points": [
        {
         "co": {
          "X": 1.0,
          "Y": 0.0
         },
         "interpolation": 2
        }
       ]
      },
      "mixing": 0,
      "perspective_c1_x": {
       "Points": [
        {
         "co": {
          "X": 1.0,
          "Y": -1.0
         },
         "interpolation": 2
        }
       ]
      },
      "perspective_c1_y": {
       "Points": [
        {
         "co": {
          "X": 1.0,
          "Y": -1.0
         },
         "interpolation": 2
        }
       ]
      },
      "perspective_c2_x": {
       "Points": [
        {
         "co": {
          "X": 1.0,
          "Y": -1.0
         },
         "interpolation": 2
        }
       ]
      },
      "perspective_c2_y": {
       "Points": [
        {
         "co": {
          "X": 1.0,
          "Y": -1.0
         },
         "interpolation": 2
        }
       ]
      },
      "perspective_c3_x": {
       "Points": [
        {
         "co": {
          "X": 1.0,
          "Y": -1.0
         },
         "interpolation": 2
        }
       ]
      },
      "perspective_c3_y": {
       "Points": [
        {
         "co": {
          "X": 1.0,
          "Y": -1.0
         },
         "interpolation": 2
        }
       ]
      },
      "perspective_c4_x": {
       "Points": [
        {
         "co": {
          "X": 1.0,
          "Y": -1.0
         },
         "interpolation": 2
        }
       ]
      },
      "perspective_c4_y": {
       "Points": [
        {
         "co": {
          "X": 1.0,
          "Y": -1.0
         },
         "interpolation": 2
        }
       ]
      },
      "position": 17.6,
      "reader": {
       "acodec": "",
       "audio_bit_rate": 0,
       "audio_stream_index": -1,
       "audio_timebase": {
        "den": 1,
        "num": 1
       },
       "channel_layout": 4,
       "channels": 0,
       "display_ratio": {
        "den": 37,
        "num": 50
       },
       "duration": 3600.0,
       "file_size": "266400",
       "fps": {
        "den": 1,
        "num": 30
       },
       "has_audio": false,
       "has_single_image": true,
       "has_video": true,
       "height": 222,
       "interlaced_frame": false,
       "metadata": {},
       "path": "./Playa-punta-de-anguileira-300x222.jpg",
       "pixel_format": -1,
       "pixel_ratio": {
        "den": 1,
        "num": 1
       },
       "sample_rate": 0,
       "top_field_first": true,
       "type": "QtImageReader",
       "vcodec": "",
       "video_bit_rate": 0,
       "video_length": "108000",
       "video_stream_index": -1,
       "video_timebase": {
        "den": 30,
        "num": 1
       },
       "width": 300
      },
      "rotation": {
       "Points": [
        {
         "co": {
          "X": 1.0,
          "Y": 0.0
         },
         "interpolation": 2
        }
       ]
      },
      "scale": 1,
      "scale_x": {
       "Points": [
        {
         "co": {
          "X": 1.0,
          "Y": 1.0
         },
         "interpolation": 2
        }
       ]
      },
      "scale_y": {
       "Points": [
        {
         "co": {
          "X": 1.0,
          "Y": 1.0
         },
         "interpolation": 2
        }
       ]
      },
      "shear_x": {
       "Points": [
        {
         "co": {
          "X": 1.0,
          "Y": 0.0
         },
         "interpolation": 2
        }
       ]
      },
      "shear_y": {
       "Points": [
        {
         "co": {
          "X": 1.0,
          "Y": 0.0
         },
         "interpolation": 2
        }
       ]
      },
      "start": 0,
      "time": {
       "Points": [
        {
         "co": {
          "X": 1.0,
          "Y": 1.0
         },
         "interpolation": 2
        }
       ]
      },
      "volume": {
       "Points": [
        {
         "co": {
          "X": 1.0,
          "Y": 1.0
         },
         "interpolation": 2
        }
       ]
      },
      "wave_color": {
       "alpha": {
        "Points": [
         {
          "co": {
           "X": 1.0,
           "Y": 255.0
          },
          "handle_left": {
           "X": 0.5,
           "Y": 1.0
          },
          "handle_right": {
           "X": 0.5,
           "Y": 0.0
          },
          "handle_type": 0,
          "interpolation": 0
         }
        ]
       },
       "blue": {
        "Points": [
         {
          "co": {
           "X": 1.0,
           "Y": 255.0
          },
          "handle_left": {
           "X": 0.5,
           "Y": 1.0
          },
          "handle_right": {
           "X": 0.5,
           "Y": 0.0
          },
          "handle_type": 0,
          "interpolation": 0
         }
        ]
       },
       "green": {
        "Points": [
         {
          "co": {
           "X": 1.0,
           "Y": 123.0
          },
          "handle_left": {
           "X": 0.5,
           "Y": 1.0
          },
          "handle_right": {
           "X": 0.5,
           "Y": 0.0
          },
          "handle_type": 0,
          "interpolation": 0
         }
        ]
       },
       "red": {
        "Points": [
         {
          "co": {
           "X": 1.0,
           "Y": 0.0
          },
          "handle_left": {
           "X": 0.5,
           "Y": 1.0
          },
          "handle_right": {
           "X": 0.5,
           "Y": 0.0
          },
          "handle_type": 0,
          "interpolation": 0
         }
        ]
       }
      },
      "waveform": false,
      "file_id": "MIWNEF7JG9",
      "title": "Playa-punta-de-anguileira-300x222.jpg",
      "image": "thumbnail/MIWNEF7JG9.png"
     },
     {
      "alpha": {
       "Points": [
        {
         "co": {
          "X": 1.0,
          "Y": 1.0
         },
         "interpolation": 2
        }
       ]
      },
      "anchor": 0,
      "channel_filter": {
       "Points": [
        {
         "co": {
          "X": 1.0,
          "Y": -1.0
         },
         "interpolation": 2
        }
       ]
      },
      "channel_mapping": {
       "Points": [
        {
         "co": {
          "X": 1.0,
          "Y": -1.0
         },
         "interpolation": 2
        }
       ]
      },
      "crop_height": {
       "Points": [
        {
         "co": {
          "X": 1.0,
          "Y": 1.0
         },
         "interpolation": 2
        }
       ]
      },
      "crop_width": {
       "Points": [
        {
         "co": {
          "X": 1.0,
          "Y": 1.0
         },
         "interpolation": 2
        }
       ]
      },
      "crop_x": {
       "Points": [
        {
         "co": {
          "X": 1.0,
          "Y": 0.0
         },
         "interpolation": 2
        }
       ]
      },
      "crop_y": {
       "Points": [
        {
         "co": {
          "X": 1.0,
          "Y": 0.0
         },
         "interpolation": 2
        }
       ]
      },
      "display": 0,
      "duration": 3600.0,
      "effects": [],
      "end": 10,
      "gravity": 4,
      "has_audio": {
       "Points": [
        {
         "co": {
          "X": 1.0,
          "Y": -1.0
         },
         "interpolation": 2
        }
       ]
      },
      "has_video": {
       "Points": [
        {
         "co": {
          "X": 1.0,
          "Y": -1.0
         },
         "interpolation": 2
        }
       ]
      },
      "id": "2WTYH5BK7W",
      "layer": 1000000,
      "location_x": {
       "Points": [
        {
         "co": {
          "X": 1.0,
          "Y": 0.0
         },
         "interpolation": 2
        }
       ]
      },
      "location_y": {
       "Points": [
        {
         "co": {
          "X": 1.0,
          "Y": 0.0
         },
         "interpolation": 2
        }
       ]
      },
      "mixing": 0,
      "perspective_c1_x": {
       "Points": [
        {
         "co": {
          "X": 1.0,
          "Y": -1.0
         },
         "interpolation": 2
        }
       ]
      },
      "perspective_c1_y": {
       "Points": [
        {
         "co": {
          "X": 1.0,
          "Y": -1.0
         },
         "interpolation": 2
        }
       ]
      },
      "perspective_c2_x": {
       "Points": [
        {
         "co": {
          "X": 1.0,
          "Y": -1.0
         },
         "interpolation": 2
        }
       ]
      },
      "perspective_c2_y": {
       "Points": [
        {
         "co": {
          "X": 1.0,
          "Y": -1.0
         },
         "interpolation": 2
        }
       ]
      },
      "perspective_c3_x": {
       "Points": [
        {
         "co": {
          "X": 1.0,
          "Y": -1.0
         },
         "interpolation": 2
        }
       ]
      },
      "perspective_c3_y": {
       "Points": [
        {
         "co": {
          "X": 1.0,
          "Y": -1.0
         },
         "interpolation": 2
        }
       ]
      },
      "perspective_c4_x": {
       "Points": [
        {
         "co": {
          "X": 1.0,
          "Y": -1.0
         },
         "interpolation": 2
        }
       ]
      },
      "perspective_c4_y": {
       "Points": [
        {
         "co": {
          "X": 1.0,
          "Y": -1.0
         },
         "interpolation": 2
        }
       ]
      },
      "position": 27.6,
      "reader": {
       "acodec": "",
       "audio_bit_rate": 0,
       "audio_stream_index": -1,
       "audio_timebase": {
        "den": 1,
        "num": 1
       },
       "channel_layout": 4,
       "channels": 0,
       "display_ratio": {
        "den": 37,
        "num": 50
       },
       "duration": 3600.0,
       "file_size": "266400",
       "fps": {
        "den": 1,
        "num": 30
       },
       "has_audio": false,
       "has_single_image": true,
       "has_video": true,
       "height": 222,
       "interlaced_frame": false,
       "metadata": {},
       "path": "./Playa-de-a-pasada-300x222.jpg",
       "pixel_format": -1,
       "pixel_ratio": {
        "den": 1,
        "num": 1
       },
       "sample_rate": 0,
       "top_field_first": true,
       "type": "QtImageReader",
       "vcodec": "",
       "video_bit_rate": 0,
       "video_length": "108000",
       "video_stream_index": -1,
       "video_timebase": {
        "den": 30,
        "num": 1
       },
       "width": 300
      },
      "rotation": {
       "Points": [
        {
         "co": {
          "X": 1.0,
          "Y": 0.0
         },
         "interpolation": 2
        }
       ]
      },
      "scale": 1,
      "scale_x": {
       "Points": [
        {
         "co": {
          "X": 1.0,
          "Y": 1.0
         },
         "interpolation": 2
        }
       ]
      },
      "scale_y": {
       "Points": [
        {
         "co": {
          "X": 1.0,
          "Y": 1.0
         },
         "interpolation": 2
        }
       ]
      },
      "shear_x": {
       "Points": [
        {
         "co": {
          "X": 1.0,
          "Y": 0.0
         },
         "interpolation": 2
        }
       ]
      },
      "shear_y": {
       "Points": [
        {
         "co": {
          "X": 1.0,
          "Y": 0.0
         },
         "interpolation": 2
        }
       ]
      },
      "start": 0,
      "time": {
       "Points": [
        {
         "co": {
          "X": 1.0,
          "Y": 1.0
         },
         "interpolation": 2
        }
       ]
      },
      "volume": {
       "Points": [
        {
         "co": {
          "X": 1.0,
          "Y": 1.0
         },
         "interpolation": 2
        }
       ]
      },
      "wave_color": {
       "alpha": {
        "Points": [
         {
          "co": {
           "X": 1.0,
           "Y": 255.0
          },
          "handle_left": {
           "X": 0.5,
           "Y": 1.0
          },
          "handle_right": {
           "X": 0.5,
           "Y": 0.0
          },
          "handle_type": 0,
          "interpolation": 0
         }
        ]
       },
       "blue": {
        "Points": [
         {
          "co": {
           "X": 1.0,
           "Y": 255.0
          },
          "handle_left": {
           "X": 0.5,
           "Y": 1.0
          },
          "handle_right": {
           "X": 0.5,
           "Y": 0.0
          },
          "handle_type": 0,
          "interpolation": 0
         }
        ]
       },
       "green": {
        "Points": [
         {
          "co": {
           "X": 1.0,
           "Y": 123.0
          },
          "handle_left": {
           "X": 0.5,
           "Y": 1.0
          },
          "handle_right": {
           "X": 0.5,
           "Y": 0.0
          },
          "handle_type": 0,
          "interpolation": 0
         }
        ]
       },
       "red": {
        "Points": [
         {
          "co": {
           "X": 1.0,
           "Y": 0.0
          },
          "handle_left": {
           "X": 0.5,
           "Y": 1.0
          },
          "handle_right": {
           "X": 0.5,
           "Y": 0.0
          },
          "handle_type": 0,
          "interpolation": 0
         }
        ]
       }
      },
      "waveform": false,
      "file_id": "PXOXMID3OL",
      "title": "Playa-de-a-pasada-300x222.jpg",
      "image": "thumbnail/PXOXMID3OL.png"
     },
     {
      "alpha": {
       "Points": [
        {
         "co": {
          "X": 1.0,
          "Y": 1.0
         },
         "interpolation": 2
        }
       ]
      },
      "anchor": 0,
      "channel_filter": {
       "Points": [
        {
         "co": {
          "X": 1.0,
          "Y": -1.0
         },
         "interpolation": 2
        }
       ]
      },
      "channel_mapping": {
       "Points": [
        {
         "co": {
          "X": 1.0,
          "Y": -1.0
         },
         "interpolation": 2
        }
       ]
      },
      "crop_height": {
       "Points": [
        {
         "co": {
          "X": 1.0,
          "Y": 1.0
         },
         "interpolation": 2
        }
       ]
      },
      "crop_width": {
       "Points": [
        {
         "co": {
          "X": 1.0,
          "Y": 1.0
         },
         "interpolation": 2
        }
       ]
      },
      "crop_x": {
       "Points": [
        {
         "co": {
          "X": 1.0,
          "Y": 0.0
         },
         "interpolation": 2
        }
       ]
      },
      "crop_y": {
       "Points": [
        {
         "co": {
          "X": 1.0,
          "Y": 0.0
         },
         "interpolation": 2
        }
       ]
      },
      "display": 0,
      "duration": 3600.0,
      "effects": [],
      "end": 10,
      "gravity": 4,
      "has_audio": {
       "Points": [
        {
         "co": {
          "X": 1.0,
          "Y": -1.0
         },
         "interpolation": 2
        }
       ]
      },
      "has_video": {
       "Points": [
        {
         "co": {
          "X": 1.0,
          "Y": -1.0
         },
         "interpolation": 2
        }
       ]
      },
      "id": "T9NB8VBY75",
      "layer": 1000000,
      "location_x": {
       "Points": [
        {
         "co": {
          "X": 1.0,
          "Y": 0.0
         },
         "interpolation": 2
        }
       ]
      },
      "location_y": {
       "Points": [
        {
         "co": {
          "X": 1.0,
          "Y": 0.0
         },
         "interpolation": 2
        }
       ]
      },
      "mixing": 0,
      "perspective_c1_x": {
       "Points": [
        {
         "co": {
          "X": 1.0,
          "Y": -1.0
         },
         "interpolation": 2
        }
       ]
      },
      "perspective_c1_y": {
       "Points": [
        {
         "co": {
          "X": 1.0,
          "Y": -1.0
         },
         "interpolation": 2
        }
       ]
      },
      "perspective_c2_x": {
       "Points": [
        {
         "co": {
          "X": 1.0,
          "Y": -1.0
         },
         "interpolation": 2
        }
       ]
      },
      "perspective_c2_y": {
       "Points": [
        {
         "co": {
          "X": 1.0,
          "Y": -1.0
         },
         "interpolation": 2
        }
       ]
      },
      "perspective_c3_x": {
       "Points": [
        {
         "co": {
          "X": 1.0,
          "Y": -1.0
         },
         "interpolation": 2
        }
       ]
      },
      "perspective_c3_y": {
       "Points": [
        {
         "co": {
          "X": 1.0,
          "Y": -1.0
         },
         "interpolation": 2
        }
       ]
      },
      "perspective_c4_x": {
       "Points": [
        {
         "co": {
          "X": 1.0,
          "Y": -1.0
         },
         "interpolation": 2
        }
       ]
      },
      "perspective_c4_y": {
       "Points": [
        {
         "co": {
          "X": 1.0,
          "Y": -1.0
         },
         "interpolation": 2
        }
       ]
      },
      "position": 50.233333333333334,
      "reader": {
       "acodec": "",
       "audio_bit_rate": 0,
       "audio_stream_index": -1,
       "audio_timebase": {
        "den": 1,
        "num": 1
       },
       "channel_layout": 4,
       "channels": 0,
       "display_ratio": {
        "den": 33,
        "num": 50
       },
       "duration": 3600.0,
       "file_size": "237600",
       "fps": {
        "den": 1,
        "num": 30
       },
       "has_audio": false,
       "has_single_image": true,
       "has_video": true,
       "height": 198,
       "interlaced_frame": false,
       "metadata": {},
       "path": "./Playa-de-Arealonga-300x198.jpg",
       "pixel_format": -1,
       "pixel_ratio": {
        "den": 1,
        "num": 1
       },
       "sample_rate": 0,
       "top_field_first": true,
       "type": "QtImageReader",
       "vcodec": "",
       "video_bit_rate": 0,
       "video_length": "108000",
       "video_stream_index": -1,
       "video_timebase": {
        "den": 30,
        "num": 1
       },
       "width": 300
      },
      "rotation": {
       "Points": [
        {
         "co": {
          "X": 1.0,
          "Y": 0.0
         },
         "interpolation": 2
        }
       ]
      },
      "scale": 1,
      "scale_x": {
       "Points": [
        {
         "co": {
          "X": 1.0,
          "Y": 1.0
         },
         "interpolation": 2
        }
       ]
      },
      "scale_y": {
       "Points": [
        {
         "co": {
          "X": 1.0,
          "Y": 1.0
         },
         "interpolation": 2
        }
       ]
      },
      "shear_x": {
       "Points": [
        {
         "co": {
          "X": 1.0,
          "Y": 0.0
         },
         "interpolation": 2
        }
       ]
      },
      "shear_y": {
       "Points": [
        {
         "co": {
          "X": 1.0,
          "Y": 0.0
         },
         "interpolation": 2
        }
       ]
      },
      "start": 0,
      "time": {
       "Points": [
        {
         "co": {
          "X": 1.0,
          "Y": 1.0
         },
         "interpolation": 2
        }
       ]
      },
      "volume": {
       "Points": [
        {
         "co": {
          "X": 1.0,
          "Y": 1.0
         },
         "interpolation": 2
        }
       ]
      },
      "wave_color": {
       "alpha": {
        "Points": [
         {
          "co": {
           "X": 1.0,
           "Y": 255.0
          },
          "handle_left": {
           "X": 0.5,
           "Y": 1.0
          },
          "handle_right": {
           "X": 0.5,
           "Y": 0.0
          },
          "handle_type": 0,
          "interpolation": 0
         }
        ]
       },
       "blue": {
        "Points": [
         {
          "co": {
           "X": 1.0,
           "Y": 255.0
          },
          "handle_left": {
           "X": 0.5,
           "Y": 1.0
          },
          "handle_right": {
           "X": 0.5,
           "Y": 0.0
          },
          "handle_type": 0,
          "interpolation": 0
         }
        ]
       },
       "green": {
        "Points": [
         {
          "co": {
           "X": 1.0,
           "Y": 123.0
          },
          "handle_left": {
           "X": 0.5,
           "Y": 1.0
          },
          "handle_right": {
           "X": 0.5,
           "Y": 0.0
          },
          "handle_type": 0,
          "interpolation": 0
         }
        ]
       },
       "red": {
        "Points": [
         {
          "co": {
           "X": 1.0,
           "Y": 0.0
          },
          "handle_left": {
           "X": 0.5,
           "Y": 1.0
          },
          "handle_right": {
           "X": 0.5,
           "Y": 0.0
          },
          "handle_type": 0,
          "interpolation": 0
         }
        ]
       }
      },
      "waveform": false,
      "file_id": "U7059MT4QL",
      "title": "Playa-de-Arealonga-300x198.jpg",
      "image": "thumbnail/U7059MT4QL.png"
     },
     {
      "alpha": {
       "Points": [
        {
         "co": {
          "X": 1.0,
          "Y": 1.0
         },
         "handle_left": {
          "X": 0.5,
          "Y": 1.0
         },
         "handle_right": {
          "X": 0.5,
          "Y": 0.0
         },
         "handle_type": 0,
         "interpolation": 0
        },
        {
         "co": {
          "X": 1.0,
          "Y": 0.0
         },
         "handle_left": {
          "X": 0.5,
          "Y": 1.0
         },
         "handle_right": {
          "X": 0.5,
          "Y": 0.0
         },
         "handle_type": 0,
         "interpolation": 0
        },
        {
         "co": {
          "X": 91.0,
          "Y": 1.0
         },
         "handle_left": {
          "X": 0.5,
          "Y": 1.0
         },
         "handle_right": {
          "X": 0.5,
          "Y": 0.0
         },
         "handle_type": 0,
         "interpolation": 0
        },
        {
         "co": {
          "X": 180.0,
          "Y": 1.0
         },
         "handle_left": {
          "X": 0.5,
          "Y": 1.0
         },
         "handle_right": {
          "X": 0.5,
          "Y": 0.0
         },
         "handle_type": 0,
         "interpolation": 0
        },
        {
         "co": {
          "X": 270.0,
          "Y": 0.0
         },
         "handle_left": {
          "X": 0.5,
          "Y": 1.0
         },
         "handle_right": {
          "X": 0.5,
          "Y": 0.0
         },
         "handle_type": 0,
         "interpolation": 0
        }
       ]
      },
      "anchor": 0,
      "channel_filter": {
       "Points": [
        {
         "co": {
          "X": 1.0,
          "Y": -1.0
         },
         "interpolation": 2
        }
       ]
      },
      "channel_mapping": {
       "Points": [
        {
         "co": {
          "X": 1.0,
          "Y": -1.0
         },
         "interpolation": 2
        }
       ]
      },
      "crop_height": {
       "Points": [
        {
         "co": {
          "X": 1.0,
          "Y": 1.0
         },
         "interpolation": 2
        }
       ]
      },
      "crop_width": {
       "Points": [
        {
         "co": {
          "X": 1.0,
          "Y": 1.0
         },
         "interpolation": 2
        }
       ]
      },
      "crop_x": {
       "Points": [
        {
         "co": {
          "X": 1.0,
          "Y": 0.0
         },
         "interpolation": 2
        }
       ]
      },
      "crop_y": {
       "Points": [
        {
         "co": {
          "X": 1.0,
          "Y": 0.0
         },
         "interpolation": 2
        }
       ]
      },
      "display": 0,
      "duration": 3600.0,
      "effects": [],
      "end": 8.966666666666667,
      "gravity": 4,
      "has_audio": {
       "Points": [
        {
         "co": {
          "X": 1.0,
          "Y": -1.0
         },
         "interpolation": 2
        }
       ]
      },
      "has_video": {
       "Points": [
        {
         "co": {
          "X": 1.0,
          "Y": -1.0
         },
         "interpolation": 2
        }
       ]
      },
      "id": "XUIQHBTIKV",
      "layer": 1000000,
      "location_x": {
       "Points": [
        {
         "co": {
          "X": 1.0,
          "Y": 0.0
         },
         "interpolation": 2
        }
       ]
      },
      "location_y": {
       "Points": [
        {
         "co": {
          "X": 1.0,
          "Y": 0.0
         },
         "interpolation": 2
        }
       ]
      },
      "mixing": 0,
      "perspective_c1_x": {
       "Points": [
        {
         "co": {
          "X": 1.0,
          "Y": -1.0
         },
         "interpolation": 2
        }
       ]
      },
      "perspective_c1_y": {
       "Points": [
        {
         "co": {
          "X": 1.0,
          "Y": -1.0
         },
         "interpolation": 2
        }
       ]
      },
      "perspective_c2_x": {
       "Points": [
        {
         "co": {
          "X": 1.0,
          "Y": -1.0
         },
         "interpolation": 2
        }
       ]
      },
      "perspective_c2_y": {
       "Points": [
        {
         "co": {
          "X": 1.0,
          "Y": -1.0
         },
         "interpolation": 2
        }
       ]
      },
      "perspective_c3_x": {
       "Points": [
        {
         "co": {
          "X": 1.0,
          "Y": -1.0
         },
         "interpolation": 2
        }
       ]
      },
      "perspective_c3_y": {
       "Points": [
        {
         "co": {
          "X": 1.0,
          "Y": -1.0
         },
         "interpolation": 2
        }
       ]
      },
      "perspective_c4_x": {
       "Points": [
        {
         "co": {
          "X": 1.0,
          "Y": -1.0
         },
         "interpolation": 2
        }
       ]
      },
      "perspective_c4_y": {
       "Points": [
        {
         "co": {
          "X": 1.0,
          "Y": -1.0
         },
         "interpolation": 2
        }
       ]
      },
      "position": 109.63333333333334,
      "reader": {
       "acodec": "",
       "audio_bit_rate": 0,
       "audio_stream_index": -1,
       "audio_timebase": {
        "den": 1,
        "num": 1
       },
       "channel_layout": 4,
       "channels": 0,
       "display_ratio": {
        "den": 1,
        "num": 1
       },
       "duration": 3600.0,
       "file_size": "360000",
       "fps": {
        "den": 1,
        "num": 30
       },
       "has_audio": false,
       "has_single_image": true,
       "has_video": true,
       "height": 300,
       "interlaced_frame": false,
       "metadata": {},
       "path": "./Crditos.jpg.png",
       "pixel_format": -1,
       "pixel_ratio": {
        "den": 1,
        "num": 1
       },
       "sample_rate": 0,
       "top_field_first": true,
       "type": "QtImageReader",
       "vcodec": "",
       "video_bit_rate": 0,
       "video_length": "108000",
       "video_stream_index": -1,
       "video_timebase": {
        "den": 30,
        "num": 1
       },
       "width": 300
      },
      "rotation": {
       "Points": [
        {
         "co": {
          "X": 1.0,
          "Y": 0.0
         },
         "interpolation": 2
        }
       ]
      },
      "scale": 1,
      "scale_x": {
       "Points": [
        {
         "co": {
          "X": 1.0,
          "Y": 1.0
         },
         "interpolation": 2
        }
       ]
      },
      "scale_y": {
       "Points": [
        {
         "co": {
          "X": 1.0,
          "Y": 1.0
         },
         "interpolation": 2
        }
       ]
      },
      "shear_x": {
       "Points": [
        {
         "co": {
          "X": 1.0,
          "Y": 0.0
         },
         "interpolation": 2
        }
       ]
      },
      "shear_y": {
       "Points": [
        {
         "co": {
          "X": 1.0,
          "Y": 0.0
         },
         "interpolation": 2
        }
       ]
      },
      "start": 0,
      "time": {
       "Points": [
        {
         "co": {
          "X": 1.0,
          "Y": 1.0
         },
         "interpolation": 2
        }
       ]
      },
      "volume": {
       "Points": [
        {
         "co": {
          "X": 1.0,
          "Y": 1.0
         },
         "interpolation": 2
        }
       ]
      },
      "wave_color": {
       "alpha": {
        "Points": [
         {
          "co": {
           "X": 1.0,
           "Y": 255.0
          },
          "handle_left": {
           "X": 0.5,
           "Y": 1.0
          },
          "handle_right": {
           "X": 0.5,
           "Y": 0.0
          },
          "handle_type": 0,
          "interpolation": 0
         }
        ]
       },
       "blue": {
        "Points": [
         {
          "co": {
           "X": 1.0,
           "Y": 255.0
          },
          "handle_left": {
           "X": 0.5,
           "Y": 1.0
          },
          "handle_right": {
           "X": 0.5,
           "Y": 0.0
          },
          "handle_type": 0,
          "interpolation": 0
         }
        ]
       },
       "green": {
        "Points": [
         {
          "co": {
           "X": 1.0,
           "Y": 123.0
          },
          "handle_left": {
           "X": 0.5,
           "Y": 1.0
          },
          "handle_right": {
           "X": 0.5,
           "Y": 0.0
          },
          "handle_type": 0,
          "interpolation": 0
         }
        ]
       },
       "red": {
        "Points": [
         {
          "co": {
           "X": 1.0,
           "Y": 0.0
          },
          "handle_left": {
           "X": 0.5,
           "Y": 1.0
          },
          "handle_right": {
           "X": 0.5,
           "Y": 0.0
          },
          "handle_type": 0,
          "interpolation": 0
         }
        ]
       }
      },
      "waveform": false,
      "file_id": "KZCD8EQ9G8",
      "title": "Crditos.jpg.png",
      "image": "thumbnail/KZCD8EQ9G8.png"
     },
     {
      "alpha": {
       "Points": [
        {
         "co": {
          "X": 1.0,
          "Y": 1.0
         },
         "interpolation": 2
        }
       ]
      },
      "anchor": 0,
      "channel_filter": {
       "Points": [
        {
         "co": {
          "X": 1.0,
          "Y": -1.0
         },
         "interpolation": 2
        }
       ]
      },
      "channel_mapping": {
       "Points": [
        {
         "co": {
          "X": 1.0,
          "Y": -1.0
         },
         "interpolation": 2
        }
       ]
      },
      "crop_height": {
       "Points": [
        {
         "co": {
          "X": 1.0,
          "Y": 1.0
         },
         "interpolation": 2
        }
       ]
      },
      "crop_width": {
       "Points": [
        {
         "co": {
          "X": 1.0,
          "Y": 1.0
         },
         "interpolation": 2
        }
       ]
      },
      "crop_x": {
       "Points": [
        {
         "co": {
          "X": 1.0,
          "Y": 0.0
         },
         "interpolation": 2
        }
       ]
      },
      "crop_y": {
       "Points": [
        {
         "co": {
          "X": 1.0,
          "Y": 0.0
         },
         "interpolation": 2
        }
       ]
      },
      "display": 0,
      "duration": 245.39431762695312,
      "effects": [],
      "end": 245.39431762695312,
      "gravity": 4,
      "has_audio": {
       "Points": [
        {
         "co": {
          "X": 1.0,
          "Y": -1.0
         },
         "interpolation": 2
        }
       ]
      },
      "has_video": {
       "Points": [
        {
         "co": {
          "X": 1.0,
          "Y": -1.0
         },
         "interpolation": 2
        }
       ]
      },
      "id": "VYG6JUQ6X2",
      "layer": 2000000,
      "location_x": {
       "Points": [
        {
         "co": {
          "X": 1.0,
          "Y": 0.0
         },
         "interpolation": 2
        }
       ]
      },
      "location_y": {
       "Points": [
        {
         "co": {
          "X": 1.0,
          "Y": 0.0
         },
         "interpolation": 2
        }
       ]
      },
      "mixing": 0,
      "perspective_c1_x": {
       "Points": [
        {
         "co": {
          "X": 1.0,
          "Y": -1.0
         },
         "interpolation": 2
        }
       ]
      },
      "perspective_c1_y": {
       "Points": [
        {
         "co": {
          "X": 1.0,
          "Y": -1.0
         },
         "interpolation": 2
        }
       ]
      },
      "perspective_c2_x": {
       "Points": [
        {
         "co": {
          "X": 1.0,
          "Y": -1.0
         },
         "interpolation": 2
        }
       ]
      },
      "perspective_c2_y": {
       "Points": [
        {
         "co": {
          "X": 1.0,
          "Y": -1.0
         },
         "interpolation": 2
        }
       ]
      },
      "perspective_c3_x": {
       "Points": [
        {
         "co": {
          "X": 1.0,
          "Y": -1.0
         },
         "interpolation": 2
        }
       ]
      },
      "perspective_c3_y": {
       "Points": [
        {
         "co": {
          "X": 1.0,
          "Y": -1.0
         },
         "interpolation": 2
        }
       ]
      },
      "perspective_c4_x": {
       "Points": [
        {
         "co": {
          "X": 1.0,
          "Y": -1.0
         },
         "interpolation": 2
        }
       ]
      },
      "perspective_c4_y": {
       "Points": [
        {
         "co": {
          "X": 1.0,
          "Y": -1.0
         },
         "interpolation": 2
        }
       ]
      },
      "position": 0,
      "reader": {
       "acodec": "mp3float",
       "audio_bit_rate": 256000,
       "audio_stream_index": 0,
       "audio_timebase": {
        "den": 14112000,
        "num": 1
       },
       "channel_layout": 3,
       "channels": 2,
       "display_ratio": {
        "den": 1,
        "num": 1
       },
       "duration": 245.39431762695312,
       "file_size": "7854755",
       "fps": {
        "den": 1,
        "num": 24
       },
       "has_audio": true,
       "has_single_image": false,
       "has_video": false,
       "height": 480,
       "interlaced_frame": false,
       "metadata": {
        "TDAT": "2011-01-16 6:36:01",
        "album": "Tanzen Allee",
        "album_artist": "Brian",
        "artist": "Brian",
        "comment": "URL: http://freemusicarchive.org/music/Brian/Tanzen_Allee/vamos_a_la_playa_1918\r\nComments: http://freemusicarchive.org/\r\nCurator: \r\nCopyright: Creative Commons Attribution-Noncommercial 2.5 Switzerland: http://creativecommons.org/licenses/by-nc/2.5/ch/",
        "copyright": "Creative Commons Attribution-Noncommercial 2.5 Switzerland: http://creativecommons.org/licenses/by-nc/2.5/ch/",
        "date": "2011-01-16T06:36:01",
        "title": "vamos a la playa",
        "track": "0"
       },
       "path": "./playa.mp3",
       "pixel_format": -1,
       "pixel_ratio": {
        "den": 1,
        "num": 1
       },
       "sample_rate": 44100,
       "top_field_first": true,
       "type": "FFmpegReader",
       "vcodec": "",
       "video_bit_rate": 0,
       "video_length": "5889",
       "video_stream_index": -1,
       "video_timebase": {
        "den": 24,
        "num": 1
       },
       "width": 720
      },
      "rotation": {
       "Points": [
        {
         "co": {
          "X": 1.0,
          "Y": 0.0
         },
         "interpolation": 2
        }
       ]
      },
      "scale": 1,
      "scale_x": {
       "Points": [
        {
         "co": {
          "X": 1.0,
          "Y": 1.0
         },
         "interpolation": 2
        }
       ]
      },
      "scale_y": {
       "Points": [
        {
         "co": {
          "X": 1.0,
          "Y": 1.0
         },
         "interpolation": 2
        }
       ]
      },
      "shear_x": {
       "Points": [
        {
         "co": {
          "X": 1.0,
          "Y": 0.0
         },
         "interpolation": 2
        }
       ]
      },
      "shear_y": {
       "Points": [
        {
         "co": {
          "X": 1.0,
          "Y": 0.0
         },
         "interpolation": 2
        }
       ]
      },
      "start": 0,
      "time": {
       "Points": [
        {
         "co": {
          "X": 1.0,
          "Y": 1.0
         },
         "interpolation": 2
        }
       ]
      },
      "volume": {
       "Points": [
        {
         "co": {
          "X": 1.0,
          "Y": 1.0
         },
         "interpolation": 2
        }
       ]
      },
      "wave_color": {
       "alpha": {
        "Points": [
         {
          "co": {
           "X": 1.0,
           "Y": 255.0
          },
          "handle_left": {
           "X": 0.5,
           "Y": 1.0
          },
          "handle_right": {
           "X": 0.5,
           "Y": 0.0
          },
          "handle_type": 0,
          "interpolation": 0
         }
        ]
       },
       "blue": {
        "Points": [
         {
          "co": {
           "X": 1.0,
           "Y": 255.0
          },
          "handle_left": {
           "X": 0.5,
           "Y": 1.0
          },
          "handle_right": {
           "X": 0.5,
           "Y": 0.0
          },
          "handle_type": 0,
          "interpolation": 0
         }
        ]
       },
       "green": {
        "Points": [
         {
          "co": {
           "X": 1.0,
           "Y": 123.0
          },
          "handle_left": {
           "X": 0.5,
           "Y": 1.0
          },
          "handle_right": {
           "X": 0.5,
           "Y": 0.0
          },
          "handle_type": 0,
          "interpolation": 0
         }
        ]
       },
       "red": {
        "Points": [
         {
          "co": {
           "X": 1.0,
           "Y": 0.0
          },
          "handle_left": {
           "X": 0.5,
           "Y": 1.0
          },
          "handle_right": {
           "X": 0.5,
           "Y": 0.0
          },
          "handle_type": 0,
          "interpolation": 0
         }
        ]
       }
      },
      "waveform": false,
      "file_id": "FTL2P1LDBH",
      "title": "playa.mp3",
      "image": "thumbnail/FTL2P1LDBH.png"
     },
     {
      "alpha": {
       "Points": [
        {
         "co": {
          "X": 1.0,
          "Y": 1.0
         },
         "interpolation": 2
        }
       ]
      },
      "anchor": 0,
      "channel_filter": {
       "Points": [
        {
         "co": {
          "X": 1.0,
          "Y": -1.0
         },
         "interpolation": 2
        }
       ]
      },
      "channel_mapping": {
       "Points": [
        {
         "co": {
          "X": 1.0,
          "Y": -1.0
         },
         "interpolation": 2
        }
       ]
      },
      "crop_height": {
       "Points": [
        {
         "co": {
          "X": 1.0,
          "Y": 1.0
         },
         "interpolation": 2
        }
       ]
      },
      "crop_width": {
       "Points": [
        {
         "co": {
          "X": 1.0,
          "Y": 1.0
         },
         "interpolation": 2
        }
       ]
      },
      "crop_x": {
       "Points": [
        {
         "co": {
          "X": 1.0,
          "Y": 0.0
         },
         "interpolation": 2
        }
       ]
      },
      "crop_y": {
       "Points": [
        {
         "co": {
          "X": 1.0,
          "Y": 0.0
         },
         "interpolation": 2
        }
       ]
      },
      "display": 0,
      "duration": 12.62933349609375,
      "effects": [],
      "end": 12.62933349609375,
      "gravity": 4,
      "has_audio": {
       "Points": [
        {
         "co": {
          "X": 1.0,
          "Y": -1.0
         },
         "interpolation": 2
        }
       ]
      },
      "has_video": {
       "Points": [
        {
         "co": {
          "X": 1.0,
          "Y": -1.0
         },
         "interpolation": 2
        }
       ]
      },
      "id": "QBPJX3417B",
      "layer": 1000000,
      "location_x": {
       "Points": [
        {
         "co": {
          "X": 1.0,
          "Y": 0.0
         },
         "interpolation": 2
        }
       ]
      },
      "location_y": {
       "Points": [
        {
         "co": {
          "X": 1.0,
          "Y": 0.0
         },
         "interpolation": 2
        }
       ]
      },
      "mixing": 0,
      "perspective_c1_x": {
       "Points": [
        {
         "co": {
          "X": 1.0,
          "Y": -1.0
         },
         "interpolation": 2
        }
       ]
      },
      "perspective_c1_y": {
       "Points": [
        {
         "co": {
          "X": 1.0,
          "Y": -1.0
         },
         "interpolation": 2
        }
       ]
      },
      "perspective_c2_x": {
       "Points": [
        {
         "co": {
          "X": 1.0,
          "Y": -1.0
         },
         "interpolation": 2
        }
       ]
      },
      "perspective_c2_y": {
       "Points": [
        {
         "co": {
          "X": 1.0,
          "Y": -1.0
         },
         "interpolation": 2
        }
       ]
      },
      "perspective_c3_x": {
       "Points": [
        {
         "co": {
          "X": 1.0,
          "Y": -1.0
         },
         "interpolation": 2
        }
       ]
      },
      "perspective_c3_y": {
       "Points": [
        {
         "co": {
          "X": 1.0,
          "Y": -1.0
         },
         "interpolation": 2
        }
       ]
      },
      "perspective_c4_x": {
       "Points": [
        {
         "co": {
          "X": 1.0,
          "Y": -1.0
         },
         "interpolation": 2
        }
       ]
      },
      "perspective_c4_y": {
       "Points": [
        {
         "co": {
          "X": 1.0,
          "Y": -1.0
         },
         "interpolation": 2
        }
       ]
      },
      "position": 37.6,
      "reader": {
       "acodec": "aac",
       "audio_bit_rate": 2282,
       "audio_stream_index": 1,
       "audio_timebase": {
        "den": 48000,
        "num": 1
       },
       "channel_layout": 3,
       "channels": 2,
       "display_ratio": {
        "den": 9,
        "num": 16
       },
       "duration": 12.62933349609375,
       "file_size": "7964189",
       "fps": {
        "den": 63,
        "num": 1580
       },
       "has_audio": true,
       "has_single_image": false,
       "has_video": true,
       "height": 576,
       "interlaced_frame": false,
       "metadata": {
        "compatible_brands": "isomiso2avc1mp41",
        "encoder": "Lavf58.20.100",
        "handler_name": "SoundHandler",
        "language": "und",
        "major_brand": "isom",
        "minor_version": "512"
       },
       "path": "./VideoAPasada.mp4",
       "pixel_format": 0,
       "pixel_ratio": {
        "den": 1,
        "num": 1
       },
       "sample_rate": 48000,
       "top_field_first": true,
       "type": "FFmpegReader",
       "vcodec": "h264",
       "video_bit_rate": 630577,
       "video_length": "316",
       "video_stream_index": 0,
       "video_timebase": {
        "den": 12800,
        "num": 1
       },
       "width": 1024
      },
      "rotation": {
       "Points": [
        {
         "co": {
          "X": 1.0,
          "Y": 0.0
         },
         "interpolation": 2
        }
       ]
      },
      "scale": 1,
      "scale_x": {
       "Points": [
        {
         "co": {
          "X": 1.0,
          "Y": 1.0
         },
         "interpolation": 2
        }
       ]
      },
      "scale_y": {
       "Points": [
        {
         "co": {
          "X": 1.0,
          "Y": 1.0
         },
         "interpolation": 2
        }
       ]
      },
      "shear_x": {
       "Points": [
        {
         "co": {
          "X": 1.0,
          "Y": 0.0
         },
         "interpolation": 2
        }
       ]
      },
      "shear_y": {
       "Points": [
        {
         "co": {
          "X": 1.0,
          "Y": 0.0
         },
         "interpolation": 2
        }
       ]
      },
      "start": 0,
      "time": {
       "Points": [
        {
         "co": {
          "X": 1.0,
          "Y": 1.0
         },
         "interpolation": 2
        }
       ]
      },
      "volume": {
       "Points": [
        {
         "co": {
          "X": 1.0,
          "Y": 1.0
         },
         "interpolation": 2
        }
       ]
      },
      "wave_color": {
       "alpha": {
        "Points": [
         {
          "co": {
           "X": 1.0,
           "Y": 255.0
          },
          "handle_left": {
           "X": 0.5,
           "Y": 1.0
          },
          "handle_right": {
           "X": 0.5,
           "Y": 0.0
          },
          "handle_type": 0,
          "interpolation": 0
         }
        ]
       },
       "blue": {
        "Points": [
         {
          "co": {
           "X": 1.0,
           "Y": 255.0
          },
          "handle_left": {
           "X": 0.5,
           "Y": 1.0
          },
          "handle_right": {
           "X": 0.5,
           "Y": 0.0
          },
          "handle_type": 0,
          "interpolation": 0
         }
        ]
       },
       "green": {
        "Points": [
         {
          "co": {
           "X": 1.0,
           "Y": 123.0
          },
          "handle_left": {
           "X": 0.5,
           "Y": 1.0
          },
          "handle_right": {
           "X": 0.5,
           "Y": 0.0
          },
          "handle_type": 0,
          "interpolation": 0
         }
        ]
       },
       "red": {
        "Points": [
         {
          "co": {
           "X": 1.0,
           "Y": 0.0
          },
          "handle_left": {
           "X": 0.5,
           "Y": 1.0
          },
          "handle_right": {
           "X": 0.5,
           "Y": 0.0
          },
          "handle_type": 0,
          "interpolation": 0
         }
        ]
       }
      },
      "waveform": false,
      "file_id": "WMSCAZ0V75",
      "title": "VideoAPasada.mp4"
     }
    ]
   },
   {
    "type": "update",
    "key": [
     "clips",
     {
      "id": "XGNY5V5HGC"
     }
    ],
    "value": {
     "id": "XGNY5V5HGC",
     "layer": 1000000,
     "position": 60.233333333333334,
     "start": 0,
     "end": 10.426666259765625
    },
    "partial": false,
    "old_values": {
     "alpha": {
      "Points": [
       {
        "co": {
         "X": 1.0,
         "Y": 1.0
        },
        "interpolation": 2
       }
      ]
     },
     "anchor": 0,
     "channel_filter": {
      "Points": [
       {
        "co": {
         "X": 1.0,
         "Y": -1.0
        },
        "interpolation": 2
       }
      ]
     },
     "channel_mapping": {
      "Points": [
       {
        "co": {
         "X": 1.0,
         "Y": -1.0
        },
        "interpolation": 2
       }
      ]
     },
     "crop_height": {
      "Points": [
       {
        "co": {
         "X": 1.0,
         "Y": 1.0
        },
        "interpolation": 2
       }
      ]
     },
     "crop_width": {
      "Points": [
       {
        "co": {
         "X": 1.0,
         "Y": 1.0
        },
        "interpolation": 2
       }
      ]
     },
     "crop_x": {
      "Points": [
       {
        "co": {
         "X": 1.0,
         "Y": 0.0
        },
        "interpolation": 2
       }
      ]
     },
     "crop_y": {
      "Points": [
       {
        "co": {
         "X": 1.0,
         "Y": 0.0
        },
        "interpolation": 2
       }
      ]
     },
     "display": 0,
     "duration": 10.426666259765625,
     "effects": [],
     "end": 10.426666259765625,
     "gravity": 4,
     "has_audio": {
      "Points": [
       {
        "co": {
         "X": 1.0,
         "Y": -1.0
        },
        "interpolation": 2
       }
      ]
     },
     "has_video": {
      "Points": [
       {
        "co": {
         "X": 1.0,
         "Y": -1.0
        },
        "interpolation": 2
       }
      ]
     },
     "id": "XGNY5V5HGC",
     "layer": 2000000,
     "location_x": {
      "Points": [
       {
        "co": {
         "X": 1.0,
         "Y": 0.0
        },
        "interpolation": 2
       }
      ]
     },
     "location_y": {
      "Points": [
       {
        "co": {
         "X": 1.0,
         "Y": 0.0
        },
        "interpolation": 2
       }
      ]
     },
     "mixing": 0,
     "perspective_c1_x": {
      "Points": [
       {
        "co": {
         "X": 1.0,
         "Y": -1.0
        },
        "interpolation": 2
       }
      ]
     },
     "perspective_c1_y": {
      "Points": [
       {
        "co": {
         "X": 1.0,
         "Y": -1.0
        },
        "interpolation": 2
       }
      ]
     },
     "perspective_c2_x": {
      "Points": [
       {
        "co": {
         "X": 1.0,
         "Y": -1.0
        },
        "interpolation": 2
       }
      ]
     },
     "perspective_c2_y": {
      "Points": [
       {
        "co": {
         "X": 1.0,
         "Y": -1.0
        },
        "interpolation": 2
       }
      ]
     },
     "perspective_c3_x": {
      "Points": [
       {
        "co": {
         "X": 1.0,
         "Y": -1.0
        },
        "interpolation": 2
       }
      ]
     },
     "perspective_c3_y": {
      "Points": [
       {
        "co": {
         "X": 1.0,
         "Y": -1.0
        },
        "interpolation": 2
       }
      ]
     },
     "perspective_c4_x": {
      "Points": [
       {
        "co": {
         "X": 1.0,
         "Y": -1.0
        },
        "interpolation": 2
       }
      ]
     },
     "perspective_c4_y": {
      "Points": [
       {
        "co": {
         "X": 1.0,
         "Y": -1.0
        },
        "interpolation": 2
       }
      ]
     },
     "position": 68.25,
     "reader": {
      "acodec": "aac",
      "audio_bit_rate": 2277,
      "audio_stream_index": 1,
      "audio_timebase": {
       "den": 48000,
       "num": 1
      },
      "channel_layout": 3,
      "channels": 2,
      "display_ratio": {
       "den": 9,
       "num": 16
      },
      "duration": 10.426666259765625,
      "file_size": "6468057",
      "fps": {
       "den": 52,
       "num": 1305
      },
      "has_audio": true,
      "has_single_image": false,
      "has_video": true,
      "height": 576,
      "interlaced_frame": false,
      "metadata": {
       "compatible_brands": "isomiso2avc1mp41",
       "encoder": "Lavf58.20.100",
       "handler_name": "SoundHandler",
       "language": "und",
       "major_brand": "isom",
       "minor_version": "512"
      },
      "path": "./AerolongaVideo.mp4",
      "pixel_format": 0,
      "pixel_ratio": {
       "den": 1,
       "num": 1
      },
      "sample_rate": 48000,
      "top_field_first": true,
      "type": "FFmpegReader",
      "vcodec": "h264",
      "video_bit_rate": 620318,
      "video_length": "261",
      "video_stream_index": 0,
      "video_timebase": {
       "den": 12800,
       "num": 1
      },
      "width": 1024
     },
     "rotation": {
      "Points": [
       {
        "co": {
         "X": 1.0,
         "Y": 0.0
        },
        "interpolation": 2
       }
      ]
     },
     "scale": 1,
     "scale_x": {
      "Points": [
       {
        "co": {
         "X": 1.0,
         "Y": 1.0
        },
        "interpolation": 2
       }
      ]
     },
     "scale_y": {
      "Points": [
       {
        "co": {
         "X": 1.0,
         "Y": 1.0
        },
        "interpolation": 2
       }
      ]
     },
     "shear_x": {
      "Points": [
       {
        "co": {
         "X": 1.0,
         "Y": 0.0
        },
        "interpolation": 2
       }
      ]
     },
     "shear_y": {
      "Points": [
       {
        "co": {
         "X": 1.0,
         "Y": 0.0
        },
        "interpolation": 2
       }
      ]
     },
     "start": 0.0,
     "time": {
      "Points": [
       {
        "co": {
         "X": 1.0,
         "Y": 1.0
        },
        "interpolation": 2
       }
      ]
     },
     "volume": {
      "Points": [
       {
        "co": {
         "X": 1.0,
         "Y": 1.0
        },
        "interpolation": 2
       }
      ]
     },
     "wave_color": {
      "alpha": {
       "Points": [
        {
         "co": {
          "X": 1.0,
          "Y": 255.0
         },
         "handle_left": {
          "X": 0.5,
          "Y": 1.0
         },
         "handle_right": {
          "X": 0.5,
          "Y": 0.0
         },
         "handle_type": 0,
         "interpolation": 0
        }
       ]
      },
      "blue": {
       "Points": [
        {
         "co": {
          "X": 1.0,
          "Y": 255.0
         },
         "handle_left": {
          "X": 0.5,
          "Y": 1.0
         },
         "handle_right": {
          "X": 0.5,
          "Y": 0.0
         },
         "handle_type": 0,
         "interpolation": 0
        }
       ]
      },
      "green": {
       "Points": [
        {
         "co": {
          "X": 1.0,
          "Y": 123.0
         },
         "handle_left": {
          "X": 0.5,
          "Y": 1.0
         },
         "handle_right": {
          "X": 0.5,
          "Y": 0.0
         },
         "handle_type": 0,
         "interpolation": 0
        }
       ]
      },
      "red": {
       "Points": [
        {
         "co": {
          "X": 1.0,
          "Y": 0.0
         },
         "handle_left": {
          "X": 0.5,
          "Y": 1.0
         },
         "handle_right": {
          "X": 0.5,
          "Y": 0.0
         },
         "handle_type": 0,
         "interpolation": 0
        }
       ]
      }
     },
     "waveform": false,
     "file_id": "SIE0SNA01O",
     "title": "AerolongaVideo.mp4"
    }
   },
   {
    "type": "update",
    "key": [
     "effects",
     {
      "id": "AT3THIVCS4"
     }
    ],
    "value": {
     "id": "AT3THIVCS4",
     "layer": 1000000,
     "position": 70.66666666666667,
     "start": 0,
     "end": 3.566666666666667,
     "brightness": {
      "Points": [
       {
        "co": {
         "X": 1,
         "Y": 1
        },
        "handle_left": {
         "X": 0.5,
         "Y": 1
        },
        "handle_right": {
         "X": 0.5,
         "Y": 0
        },
        "handle_type": 0,
        "interpolation": 0
       },
       {
        "co": {
         "X": 108,
         "Y": -1
        },
        "handle_left": {
         "X": 0.5,
         "Y": 1
        },
        "handle_right": {
         "X": 0.5,
         "Y": 0
        },
        "handle_type": 0,
        "interpolation": 0
       }
      ]
     },
     "contrast": {
      "Points": [
       {
        "co": {
         "X": 1,
         "Y": 3
        },
        "interpolation": 2
       }
      ]
     }
    },
    "partial": false,
    "old_values": {
     "id": "AT3THIVCS4",
     "layer": 1000000,
     "title": "Transition",
     "type": "Mask",
     "position": 109.63333333333334,
     "start": 0,
     "end": 3.566666666666667,
     "brightness": {
      "Points": [
       {
        "co": {
         "X": 1,
         "Y": 1
        },
        "handle_left": {
         "X": 0.5,
         "Y": 1
        },
        "handle_right": {
         "X": 0.5,
         "Y": 0
        },
        "handle_type": 0,
        "interpolation": 0
       },
       {
        "co": {
         "X": 108,
         "Y": -1
        },
        "handle_left": {
         "X": 0.5,
         "Y": 1
        },
        "handle_right": {
         "X": 0.5,
         "Y": 0
        },
        "handle_type": 0,
        "interpolation": 0
       }
      ]
     },
     "contrast": {
      "Points": [
       {
        "co": {
         "X": 1,
         "Y": 3
        },
        "interpolation": 2
       }
      ]
     },
     "reader": {
      "acodec": "",
      "audio_bit_rate": 0,
      "audio_stream_index": -1,
      "audio_timebase": {
       "den": 1,
       "num": 1
      },
      "channel_layout": 4,
      "channels": 0,
      "display_ratio": {
       "den": 4,
       "num": 5
      },
      "duration": 3600.0,
      "file_size": "1658880",
      "fps": {
       "den": 1,
       "num": 30
      },
      "has_audio": false,
      "has_single_image": true,
      "has_video": true,
      "height": 576,
      "interlaced_frame": false,
      "metadata": {},
      "path": "@transitions/extra/barr_ripple_2.jpg",
      "pixel_format": -1,
      "pixel_ratio": {
       "den": 1,
       "num": 1
      },
      "sample_rate": 0,
      "top_field_first": true,
      "type": "QtImageReader",
      "vcodec": "",
      "video_bit_rate": 0,
      "video_length": "108000",
      "video_stream_index": -1,
      "video_timebase": {
       "den": 30,
       "num": 1
      },
      "width": 720
     },
     "replace_image": false
    }
   },
   {
    "type": "update",
    "key": [
     "clips",
     {
      "id": "XUIQHBTIKV"
     }
    ],
    "value": {
     "id": "XUIQHBTIKV",
     "layer": 1000000,
     "position": 70.66666666666667,
     "start": 0,
     "end": 8.966666666666667
    },
    "partial": false,
    "old_values": {
     "alpha": {
      "Points": [
       {
        "co": {
         "X": 1.0,
         "Y": 1.0
        },
        "handle_left": {
         "X": 0.5,
         "Y": 1.0
        },
        "handle_right": {
         "X": 0.5,
         "Y": 0.0
        },
        "handle_type": 0,
        "interpolation": 0
       },
       {
        "co": {
         "X": 1.0,
         "Y": 0.0
        },
        "handle_left": {
         "X": 0.5,
         "Y": 1.0
        },
        "handle_right": {
         "X": 0.5,
         "Y": 0.0
        },
        "handle_type": 0,
        "interpolation": 0
       },
       {
        "co": {
         "X": 91.0,
         "Y": 1.0
        },
        "handle_left": {
         "X": 0.5,
         "Y": 1.0
        },
        "handle_right": {
         "X": 0.5,
         "Y": 0.0
        },
        "handle_type": 0,
        "interpolation": 0
       },
       {
        "co": {
         "X": 180.0,
         "Y": 1.0
        },
        "handle_left": {
         "X": 0.5,
         "Y": 1.0
        },
        "handle_right": {
         "X": 0.5,
         "Y": 0.0
        },
        "handle_type": 0,
        "interpolation": 0
       },
       {
        "co": {
         "X": 270.0,
         "Y": 0.0
        },
        "handle_left": {
         "X": 0.5,
         "Y": 1.0
        },
        "handle_right": {
         "X": 0.5,
         "Y": 0.0
        },
        "handle_type": 0,
        "interpolation": 0
       }
      ]
     },
     "anchor": 0,
     "channel_filter": {
      "Points": [
       {
        "co": {
         "X": 1.0,
         "Y": -1.0
        },
        "interpolation": 2
       }
      ]
     },
     "channel_mapping": {
      "Points": [
       {
        "co": {
         "X": 1.0,
         "Y": -1.0
        },
        "interpolation": 2
       }
      ]
     },
     "crop_height": {
      "Points": [
       {
        "co": {
         "X": 1.0,
         "Y": 1.0
        },
        "interpolation": 2
       }
      ]
     },
     "crop_width": {
      "Points": [
       {
        "co": {
         "X": 1.0,
         "Y": 1.0
        },
        "interpolation": 2
       }
      ]
     },
     "crop_x": {
      "Points": [
       {
        "co": {
         "X": 1.0,
         "Y": 0.0
        },
        "interpolation": 2
       }
      ]
     },
     "crop_y": {
      "Points": [
       {
        "co": {
         "X": 1.0,
         "Y": 0.0
        },
        "interpolation": 2
       }
      ]
     },
     "display": 0,
     "duration": 3600.0,
     "effects": [],
     "end": 8.966666666666667,
     "gravity": 4,
     "has_audio": {
      "Points": [
       {
        "co": {
         "X": 1.0,
         "Y": -1.0
        },
        "interpolation": 2
       }
      ]
     },
     "has_video": {
      "Points": [
       {
        "co": {
         "X": 1.0,
         "Y": -1.0
        },
        "interpolation": 2
       }
      ]
     },
     "id": "XUIQHBTIKV",
     "layer": 1000000,
     "location_x": {
      "Points": [
       {
        "co": {
         "X": 1.0,
         "Y": 0.0
        },
        "interpolation": 2
       }
      ]
     },
     "location_y": {
      "Points": [
       {
        "co": {
         "X": 1.0,
         "Y": 0.0
        },
        "interpolation": 2
       }
      ]
     },
     "mixing": 0,
     "perspective_c1_x": {
      "Points": [
       {
        "co": {
         "X": 1.0,
         "Y": -1.0
        },
        "interpolation": 2
       }
      ]
     },
     "perspective_c1_y": {
      "Points": [
       {
        "co": {
         "X": 1.0,
         "Y": -1.0
        },
        "interpolation": 2
       }
      ]
     },
     "perspective_c2_x": {
      "Points": [
       {
        "co": {
         "X": 1.0,
         "Y": -1.0
        },
        "interpolation": 2
       }
      ]
     },
     "perspective_c2_y": {
      "Points": [
       {
        "co": {
         "X": 1.0,
         "Y": -1.0
        },
        "interpolation": 2
       }
      ]
     },
     "perspective_c3_x": {
      "Points": [
       {
        "co": {
         "X": 1.0,
         "Y": -1.0
        },
        "interpolation": 2
       }
      ]
     },
     "perspective_c3_y": {
      "Points": [
       {
        "co": {
         "X": 1.0,
         "Y": -1.0
        },
        "interpolation": 2
       }
      ]
     },
     "perspective_c4_x": {
      "Points": [
       {
        "co": {
         "X": 1.0,
         "Y": -1.0
        },
        "interpolation": 2
       }
      ]
     },
     "perspective_c4_y": {
      "Points": [
       {
        "co": {
         "X": 1.0,
         "Y": -1.0
        },
        "interpolation": 2
       }
      ]
     },
     "position": 109.63333333333334,
     "reader": {
      "acodec": "",
      "audio_bit_rate": 0,
      "audio_stream_index": -1,
      "audio_timebase": {
       "den": 1,
       "num": 1
      },
      "channel_layout": 4,
      "channels": 0,
      "display_ratio": {
       "den": 1,
       "num": 1
      },
      "duration": 3600.0,
      "file_size": "360000",
      "fps": {
       "den": 1,
       "num": 30
      },
      "has_audio": false,
      "has_single_image": true,
      "has_video": true,
      "height": 300,
      "interlaced_frame": false,
      "metadata": {},
      "path": "./Crditos.jpg.png",
      "pixel_format": -1,
      "pixel_ratio": {
       "den": 1,
       "num": 1
      },
      "sample_rate": 0,
      "top_field_first": true,
      "type": "QtImageReader",
      "vcodec": "",
      "video_bit_rate": 0,
      "video_length": "108000",
      "video_stream_index": -1,
      "video_timebase": {
       "den": 30,
       "num": 1
      },
      "width": 300
     },
     "rotation": {
      "Points": [
       {
        "co": {
         "X": 1.0,
         "Y": 0.0
        },
        "interpolation": 2
       }
      ]
     },
     "scale": 1,
     "scale_x": {
      "Points": [
       {
        "co": {
         "X": 1.0,
         "Y": 1.0
        },
        "interpolation": 2
       }
      ]
     },
     "scale_y": {
      "Points": [
       {
        "co": {
         "X": 1.0,
         "Y": 1.0
        },
        "interpolation": 2
       }
      ]
     },
     "shear_x": {
      "Points": [
       {
        "co": {
         "X": 1.0,
         "Y": 0.0
        },
        "interpolation": 2
       }
      ]
     },
     "shear_y": {
      "Points": [
       {
        "co": {
         "X": 1.0,
         "Y": 0.0
        },
        "interpolation": 2
       }
      ]
     },
     "start": 0,
     "time": {
      "Points": [
       {
        "co": {
         "X": 1.0,
         "Y": 1.0
        },
        "interpolation": 2
       }
      ]
     },
     "volume": {
      "Points": [
       {
        "co": {
         "X": 1.0,
         "Y": 1.0
        },
        "interpolation": 2
       }
      ]
     },
     "wave_color": {
      "alpha": {
       "Points": [
        {
         "co": {
          "X": 1.0,
          "Y": 255.0
         },
         "handle_left": {
          "X": 0.5,
          "Y": 1.0
         },
         "handle_right": {
          "X": 0.5,
          "Y": 0.0
         },
         "handle_type": 0,
         "interpolation": 0
        }
       ]
      },
      "blue": {
       "Points": [
        {
         "co": {
          "X": 1.0,
          "Y": 255.0
         },
         "handle_left": {
          "X": 0.5,
          "Y": 1.0
         },
         "handle_right": {
          "X": 0.5,
          "Y": 0.0
         },
         "handle_type": 0,
         "interpolation": 0
        }
       ]
      },
      "green": {
       "Points": [
        {
         "co": {
          "X": 1.0,
          "Y": 123.0
         },
         "handle_left": {
          "X": 0.5,
          "Y": 1.0
         },
         "handle_right": {
          "X": 0.5,
          "Y": 0.0
         },
         "handle_type": 0,
         "interpolation": 0
        }
       ]
      },
      "red": {
       "Points": [
        {
         "co": {
          "X": 1.0,
          "Y": 0.0
         },
         "handle_left": {
          "X": 0.5,
          "Y": 1.0
         },
         "handle_right": {
          "X": 0.5,
          "Y": 0.0
         },
         "handle_type": 0,
         "interpolation": 0
        }
       ]
      }
     },
     "waveform": false,
     "file_id": "KZCD8EQ9G8",
     "title": "Crditos.jpg.png",
     "image": "thumbnail/KZCD8EQ9G8.png"
    }
   },
   {
    "type": "update",
    "key": [
     "clips",
     {
      "id": "VYG6JUQ6X2"
     }
    ],
    "value": {
     "alpha": {
      "Points": [
       {
        "co": {
         "X": 1.0,
         "Y": 1.0
        },
        "interpolation": 2
       }
      ]
     },
     "anchor": 0,
     "channel_filter": {
      "Points": [
       {
        "co": {
         "X": 1.0,
         "Y": -1.0
        },
        "interpolation": 2
       }
      ]
     },
     "channel_mapping": {
      "Points": [
       {
        "co": {
         "X": 1.0,
         "Y": -1.0
        },
        "interpolation": 2
       }
      ]
     },
     "crop_height": {
      "Points": [
       {
        "co": {
         "X": 1.0,
         "Y": 1.0
        },
        "interpolation": 2
       }
      ]
     },
     "crop_width": {
      "Points": [
       {
        "co": {
         "X": 1.0,
         "Y": 1.0
        },
        "interpolation": 2
       }
      ]
     },
     "crop_x": {
      "Points": [
       {
        "co": {
         "X": 1.0,
         "Y": 0.0
        },
        "interpolation": 2
       }
      ]
     },
     "crop_y": {
      "Points": [
       {
        "co": {
         "X": 1.0,
         "Y": 0.0
        },
        "interpolation": 2
       }
      ]
     },
     "display": 0,
     "duration": 245.39431762695312,
     "effects": [],
     "end": 79.23333333333333,
     "gravity": 4,
     "has_audio": {
      "Points": [
       {
        "co": {
         "X": 1.0,
         "Y": -1.0
        },
        "interpolation": 2
       }
      ]
     },
     "has_video": {
      "Points": [
       {
        "co": {
         "X": 1.0,
         "Y": -1.0
        },
        "interpolation": 2
       }
      ]
     },
     "id": "VYG6JUQ6X2",
     "layer": 2000000,
     "location_x": {
      "Points": [
       {
        "co": {
         "X": 1.0,
         "Y": 0.0
        },
        "interpolation": 2
       }
      ]
     },
     "location_y": {
      "Points": [
       {
        "co": {
         "X": 1.0,
         "Y": 0.0
        },
        "interpolation": 2
       }
      ]
     },
     "mixing": 0,
     "perspective_c1_x": {
      "Points": [
       {
        "co": {
         "X": 1.0,
         "Y": -1.0
        },
        "interpolation": 2
       }
      ]
     },
     "perspective_c1_y": {
      "Points": [
       {
        "co": {
         "X": 1.0,
         "Y": -1.0
        },
        "interpolation": 2
       }
      ]
     },
     "perspective_c2_x": {
      "Points": [
       {
        "co": {
         "X": 1.0,
         "Y": -1.0
        },
        "interpolation": 2
       }
      ]
     },
     "perspective_c2_y": {
      "Points": [
       {
        "co": {
         "X": 1.0,
         "Y": -1.0
        },
        "interpolation": 2
       }
      ]
     },
     "perspective_c3_x": {
      "Points": [
       {
        "co": {
         "X": 1.0,
         "Y": -1.0
        },
        "interpolation": 2
       }
      ]
     },
     "perspective_c3_y": {
      "Points": [
       {
        "co": {
         "X": 1.0,
         "Y": -1.0
        },
        "interpolation": 2
       }
      ]
     },
     "perspective_c4_x": {
      "Points": [
       {
        "co": {
         "X": 1.0,
         "Y": -1.0
        },
        "interpolation": 2
       }
      ]
     },
     "perspective_c4_y": {
      "Points": [
       {
        "co": {
         "X": 1.0,
         "Y": -1.0
        },
        "interpolation": 2
       }
      ]
     },
     "position": 0,
     "rotation": {
      "Points": [
       {
        "co": {
         "X": 1.0,
         "Y": 0.0
        },
        "interpolation": 2
       }
      ]
     },
     "scale": 1,
     "scale_x": {
      "Points": [
       {
        "co": {
         "X": 1.0,
         "Y": 1.0
        },
        "interpolation": 2
       }
      ]
     },
     "scale_y": {
      "Points": [
       {
        "co": {
         "X": 1.0,
         "Y": 1.0
        },
        "interpolation": 2
       }
      ]
     },
     "shear_x": {
      "Points": [
       {
        "co": {
         "X": 1.0,
         "Y": 0.0
        },
        "interpolation": 2
       }
      ]
     },
     "shear_y": {
      "Points": [
       {
        "co": {
         "X": 1.0,
         "Y": 0.0
        },
        "interpolation": 2
       }
      ]
     },
     "start": 0,
     "time": {
      "Points": [
       {
        "co": {
         "X": 1.0,
         "Y": 1.0
        },
        "interpolation": 2
       }
      ]
     },
     "volume": {
      "Points": [
       {
        "co": {
         "X": 1.0,
         "Y": 1.0
        },
        "interpolation": 2
       }
      ]
     },
     "wave_color": {
      "alpha": {
       "Points": [
        {
         "co": {
          "X": 1.0,
          "Y": 255.0
         },
         "handle_left": {
          "X": 0.5,
          "Y": 1.0
         },
         "handle_right": {
          "X": 0.5,
          "Y": 0.0
         },
         "handle_type": 0,
         "interpolation": 0
        }
       ]
      },
      "blue": {
       "Points": [
        {
         "co": {
          "X": 1.0,
          "Y": 255.0
         },
         "handle_left": {
          "X": 0.5,
          "Y": 1.0
         },
         "handle_right": {
          "X": 0.5,
          "Y": 0.0
         },
         "handle_type": 0,
         "interpolation": 0
        }
       ]
      },
      "green": {
       "Points": [
        {
         "co": {
          "X": 1.0,
          "Y": 123.0
         },
         "handle_left": {
          "X": 0.5,
          "Y": 1.0
         },
         "handle_right": {
          "X": 0.5,
          "Y": 0.0
         },
         "handle_type": 0,
         "interpolation": 0
        }
       ]
      },
      "red": {
       "Points": [
        {
         "co": {
          "X": 1.0,
          "Y": 0.0
         },
         "handle_left": {
          "X": 0.5,
          "Y": 1.0
         },
         "handle_right": {
          "X": 0.5,
          "Y": 0.0
         },
         "handle_type": 0,
         "interpolation": 0
        }
       ]
      }
     },
     "waveform": false,
     "file_id": "FTL2P1LDBH",
     "title": "playa.mp3",
     "image": "thumbnail/FTL2P1LDBH.png"
    },
    "partial": false,
    "old_values": {
     "alpha": {
      "Points": [
       {
        "co": {
         "X": 1.0,
         "Y": 1.0
        },
        "interpolation": 2
       }
      ]
     },
     "anchor": 0,
     "channel_filter": {
      "Points": [
       {
        "co": {
         "X": 1.0,
         "Y": -1.0
        },
        "interpolation": 2
       }
      ]
     },
     "channel_mapping": {
      "Points": [
       {
        "co": {
         "X": 1.0,
         "Y": -1.0
        },
        "interpolation": 2
       }
      ]
     },
     "crop_height": {
      "Points": [
       {
        "co": {
         "X": 1.0,
         "Y": 1.0
        },
        "interpolation": 2
       }
      ]
     },
     "crop_width": {
      "Points": [
       {
        "co": {
         "X": 1.0,
         "Y": 1.0
        },
        "interpolation": 2
       }
      ]
     },
     "crop_x": {
      "Points": [
       {
        "co": {
         "X": 1.0,
         "Y": 0.0
        },
        "interpolation": 2
       }
      ]
     },
     "crop_y": {
      "Points": [
       {
        "co": {
         "X": 1.0,
         "Y": 0.0
        },
        "interpolation": 2
       }
      ]
     },
     "display": 0,
     "duration": 245.39431762695312,
     "effects": [],
     "end": 245.39431762695312,
     "gravity": 4,
     "has_audio": {
      "Points": [
       {
        "co": {
         "X": 1.0,
         "Y": -1.0
        },
        "interpolation": 2
       }
      ]
     },
     "has_video": {
      "Points": [
       {
        "co": {
         "X": 1.0,
         "Y": -1.0
        },
        "interpolation": 2
       }
      ]
     },
     "id": "VYG6JUQ6X2",
     "layer": 2000000,
     "location_x": {
      "Points": [
       {
        "co": {
         "X": 1.0,
         "Y": 0.0
        },
        "interpolation": 2
       }
      ]
     },
     "location_y": {
      "Points": [
       {
        "co": {
         "X": 1.0,
         "Y": 0.0
        },
        "interpolation": 2
       }
      ]
     },
     "mixing": 0,
     "perspective_c1_x": {
      "Points": [
       {
        "co": {
         "X": 1.0,
         "Y": -1.0
        },
        "interpolation": 2
       }
      ]
     },
     "perspective_c1_y": {
      "Points": [
       {
        "co": {
         "X": 1.0,
         "Y": -1.0
        },
        "interpolation": 2
       }
      ]
     },
     "perspective_c2_x": {
      "Points": [
       {
        "co": {
         "X": 1.0,
         "Y": -1.0
        },
        "interpolation": 2
       }
      ]
     },
     "perspective_c2_y": {
      "Points": [
       {
        "co": {
         "X": 1.0,
         "Y": -1.0
        },
        "interpolation": 2
       }
      ]
     },
     "perspective_c3_x": {
      "Points": [
       {
        "co": {
         "X": 1.0,
         "Y": -1.0
        },
        "interpolation": 2
       }
      ]
     },
     "perspective_c3_y": {
      "Points": [
       {
        "co": {
         "X": 1.0,
         "Y": -1.0
        },
        "interpolation": 2
       }
      ]
     },
     "perspective_c4_x": {
      "Points": [
       {
        "co": {
         "X": 1.0,
         "Y": -1.0
        },
        "interpolation": 2
       }
      ]
     },
     "perspective_c4_y": {
      "Points": [
       {
        "co": {
         "X": 1.0,
         "Y": -1.0
        },
        "interpolation": 2
       }
      ]
     },
     "position": 0,
     "reader": {
      "acodec": "mp3float",
      "audio_bit_rate": 256000,
      "audio_stream_index": 0,
      "audio_timebase": {
       "den": 14112000,
       "num": 1
      },
      "channel_layout": 3,
      "channels": 2,
      "display_ratio": {
       "den": 1,
       "num": 1
      },
      "duration": 245.39431762695312,
      "file_size": "7854755",
      "fps": {
       "den": 1,
       "num": 24
      },
      "has_audio": true,
      "has_single_image": false,
      "has_video": false,
      "height": 480,
      "interlaced_frame": false,
      "metadata": {
       "TDAT": "2011-01-16 6:36:01",
       "album": "Tanzen Allee",
       "album_artist": "Brian",
       "artist": "Brian",
       "comment": "URL: http://freemusicarchive.org/music/Brian/Tanzen_Allee/vamos_a_la_playa_1918\r\nComments: http://freemusicarchive.org/\r\nCurator: \r\nCopyright: Creative Commons Attribution-Noncommercial 2.5 Switzerland: http://creativecommons.org/licenses/by-nc/2.5/ch/",
       "copyright": "Creative Commons Attribution-Noncommercial 2.5 Switzerland: http://creativecommons.org/licenses/by-nc/2.5/ch/",
       "date": "2011-01-16T06:36:01",
       "title": "vamos a la playa",
       "track": "0"
      },
      "path": "./playa.mp3",
      "pixel_format": -1,
      "pixel_ratio": {
       "den": 1,
       "num": 1
      },
      "sample_rate": 44100,
      "top_field_first": true,
      "type": "FFmpegReader",
      "vcodec": "",
      "video_bit_rate": 0,
      "video_length": "5889",
      "video_stream_index": -1,
      "video_timebase": {
       "den": 24,
       "num": 1
      },
      "width": 720
     },
     "rotation": {
      "Points": [
       {
        "co": {
         "X": 1.0,
         "Y": 0.0
        },
        "interpolation": 2
       }
      ]
     },
     "scale": 1,
     "scale_x": {
      "Points": [
       {
        "co": {
         "X": 1.0,
         "Y": 1.0
        },
        "interpolation": 2
       }
      ]
     },
     "scale_y": {
      "Points": [
       {
        "co": {
         "X": 1.0,
         "Y": 1.0
        },
        "interpolation": 2
       }
      ]
     },
     "shear_x": {
      "Points": [
       {
        "co": {
         "X": 1.0,
         "Y": 0.0
        },
        "interpolation": 2
       }
      ]
     },
     "shear_y": {
      "Points": [
       {
        "co": {
         "X": 1.0,
         "Y": 0.0
        },
        "interpolation": 2
       }
      ]
     },
     "start": 0,
     "time": {
      "Points": [
       {
        "co": {
         "X": 1.0,
         "Y": 1.0
        },
        "interpolation": 2
       }
      ]
     },
     "volume": {
      "Points": [
       {
        "co": {
         "X": 1.0,
         "Y": 1.0
        },
        "interpolation": 2
       }
      ]
     },
     "wave_color": {
      "alpha": {
       "Points": [
        {
         "co": {
          "X": 1.0,
          "Y": 255.0
         },
         "handle_left": {
          "X": 0.5,
          "Y": 1.0
         },
         "handle_right": {
          "X": 0.5,
          "Y": 0.0
         },
         "handle_type": 0,
         "interpolation": 0
        }
       ]
      },
      "blue": {
       "Points": [
        {
         "co": {
          "X": 1.0,
          "Y": 255.0
         },
         "handle_left": {
          "X": 0.5,
          "Y": 1.0
         },
         "handle_right": {
          "X": 0.5,
          "Y": 0.0
         },
         "handle_type": 0,
         "interpolation": 0
        }
       ]
      },
      "green": {
       "Points": [
        {
         "co": {
          "X": 1.0,
          "Y": 123.0
         },
         "handle_left": {
          "X": 0.5,
          "Y": 1.0
         },
         "handle_right": {
          "X": 0.5,
          "Y": 0.0
         },
         "handle_type": 0,
         "interpolation": 0
        }
       ]
      },
      "red": {
       "Points": [
        {
         "co": {
          "X": 1.0,
          "Y": 0.0
         },
         "handle_left": {
          "X": 0.5,
          "Y": 1.0
         },
         "handle_right": {
          "X": 0.5,
          "Y": 0.0
         },
         "handle_type": 0,
         "interpolation": 0
        }
       ]
      }
     },
     "waveform": false,
     "file_id": "FTL2P1LDBH",
     "title": "playa.mp3",
     "image": "thumbnail/FTL2P1LDBH.png"
    }
   }
  ],
  "redo": []
 },
 "version": {
  "openshot-qt": "2.5.1",
  "libopenshot": "0.2.5"
 }
}